Peel-Reg-extended.ufo
<glyph name="quotedbl" format="1">
  <advance width="856"/>
  <unicode hex="0022"/>
  <outline>
    <contour>
      <point x="289.0" y="961.0" type="curve" smooth="yes"/>
      <point x="306.0" y="961.0"/>
      <point x="325.0" y="971.0"/>
      <point x="331.0" y="1019.0" type="curve"/>
      <point x="390.0" y="1424.0"/>
      <point x="390.0" y="1429.0"/>
      <point x="390.0" y="1435.0" type="curve" smooth="yes"/>
      <point x="390.0" y="1489.0"/>
      <point x="341.0" y="1515.0"/>
      <point x="293.0" y="1515.0" type="curve" smooth="yes"/>
      <point x="245.0" y="1515.0"/>
      <point x="194.0" y="1488.0"/>
      <point x="194.0" y="1434.0" type="curve" smooth="yes"/>
      <point x="194.0" y="1429.0"/>
      <point x="196.0" y="1424.0"/>
      <point x="250.0" y="1018.0" type="curve"/>
      <point x="255.0" y="969.0"/>
      <point x="272.0" y="961.0"/>
    </contour>
    <contour>
      <point x="547" y="961" type="curve" smooth="yes"/>
      <point x="564" y="961"/>
      <point x="583" y="971"/>
      <point x="589" y="1019" type="curve"/>
      <point x="648" y="1424"/>
      <point x="648" y="1429"/>
      <point x="648" y="1435" type="curve" smooth="yes"/>
      <point x="648" y="1489"/>
      <point x="599" y="1515"/>
      <point x="551" y="1515" type="curve" smooth="yes"/>
      <point x="503" y="1515"/>
      <point x="452" y="1488"/>
      <point x="452" y="1434" type="curve" smooth="yes"/>
      <point x="452" y="1429"/>
      <point x="454" y="1424"/>
      <point x="508" y="1018" type="curve"/>
      <point x="513" y="969"/>
      <point x="530" y="961"/>
    </contour>
  </outline>
</glyph>
<glyph name="dollar" format="1">
  <advance width="1163"/>
  <unicode hex="0024"/>
  <outline>
    <contour>
      <point x="609" y="-212" type="curve" smooth="yes"/>
      <point x="629" y="-212"/>
      <point x="650" y="-190"/>
      <point x="650" y="-147" type="curve" smooth="yes"/>
      <point x="650" y="-7" type="line"/>
      <point x="849" y="26"/>
      <point x="1019" y="159"/>
      <point x="1019" y="390" type="curve" smooth="yes"/>
      <point x="1019" y="534"/>
      <point x="966" y="643"/>
      <point x="783" y="768" type="curve" smooth="yes"/>
      <point x="650" y="859" type="line"/>
      <point x="650" y="1357" type="line"/>
      <point x="791" y="1347"/>
      <point x="931" y="1247"/>
      <point x="960" y="1224" type="curve"/>
      <point x="960" y="1439" type="line"/>
      <point x="932" y="1464"/>
      <point x="788" y="1525"/>
      <point x="650" y="1535" type="curve"/>
      <point x="650" y="1674" type="line" smooth="yes"/>
      <point x="650" y="1717"/>
      <point x="629" y="1739"/>
      <point x="609" y="1739" type="curve" smooth="yes"/>
      <point x="585" y="1739"/>
      <point x="560" y="1715"/>
      <point x="560" y="1672" type="curve" smooth="yes"/>
      <point x="560" y="1535" type="line"/>
      <point x="298" y="1514"/>
      <point x="150" y="1334"/>
      <point x="150" y="1149" type="curve" smooth="yes"/>
      <point x="150" y="1033"/>
      <point x="208" y="913"/>
      <point x="330" y="831" type="curve"/>
      <point x="560" y="671" type="line"/>
      <point x="560" y="166" type="line"/>
      <point x="379" y="169"/>
      <point x="279" y="266"/>
      <point x="183" y="343" type="curve"/>
      <point x="183" y="121" type="line"/>
      <point x="282" y="32"/>
      <point x="419" y="-14"/>
      <point x="555" y="-14" type="curve" smooth="yes"/>
      <point x="555" y="-14"/>
      <point x="560" y="-145"/>
      <point x="560" y="-145" type="curve"/>
      <point x="560" y="-188"/>
      <point x="585" y="-212"/>
    </contour>
    <contour>
      <point x="560" y="919" type="line"/>
      <point x="560" y="919"/>
      <point x="366" y="1092"/>
      <point x="366" y="1170" type="curve" smooth="yes"/>
      <point x="366" y="1257"/>
      <point x="431" y="1334"/>
      <point x="560" y="1354" type="curve"/>
    </contour>
    <contour>
      <point x="650" y="174" type="curve"/>
      <point x="650" y="174"/>
      <point x="656" y="605"/>
      <point x="656" y="605" type="curve"/>
      <point x="801" y="505"/>
      <point x="821" y="446"/>
      <point x="821" y="376" type="curve" smooth="yes"/>
      <point x="821" y="266"/>
      <point x="750" y="198"/>
    </contour>
  </outline>
</glyph>
<glyph name="percent" format="1">
  <advance width="1828"/>
  <unicode hex="0025"/>
  <outline>
    <contour>
      <point x="473" y="906" type="curve" smooth="yes"/>
      <point x="316" y="906"/>
      <point x="238" y="1038"/>
      <point x="238" y="1169" type="curve" smooth="yes"/>
      <point x="238" y="1298"/>
      <point x="315" y="1428"/>
      <point x="473" y="1428" type="curve" smooth="yes"/>
      <point x="629" y="1428"/>
      <point x="708" y="1298"/>
      <point x="708" y="1169" type="curve" smooth="yes"/>
      <point x="708" y="1038"/>
      <point x="628" y="906"/>
    </contour>
    <contour>
      <point x="473" y="798" type="curve" smooth="yes"/>
      <point x="726" y="798"/>
      <point x="851" y="980"/>
      <point x="851" y="1164" type="curve" smooth="yes"/>
      <point x="851" y="1351"/>
      <point x="724" y="1538"/>
      <point x="473" y="1538" type="curve" smooth="yes"/>
      <point x="222" y="1538"/>
      <point x="93" y="1351"/>
      <point x="93" y="1164" type="curve" smooth="yes"/>
      <point x="93" y="980"/>
      <point x="217" y="798"/>
    </contour>
    <contour>
      <point x="350" y="0" type="line"/>
      <point x="510" y="0" type="line"/>
      <point x="1477" y="1516" type="line"/>
      <point x="1319" y="1516" type="line"/>
    </contour>
    <contour>
      <point x="1357" y="92" type="curve" smooth="yes"/>
      <point x="1201" y="92"/>
      <point x="1123" y="224"/>
      <point x="1123" y="354" type="curve" smooth="yes"/>
      <point x="1123" y="484"/>
      <point x="1200" y="614"/>
      <point x="1357" y="614" type="curve" smooth="yes"/>
      <point x="1514" y="614"/>
      <point x="1591" y="484"/>
      <point x="1591" y="354" type="curve" smooth="yes"/>
      <point x="1591" y="224"/>
      <point x="1513" y="92"/>
    </contour>
    <contour>
      <point x="1357" y="-17" type="curve" smooth="yes"/>
      <point x="1612" y="-17"/>
      <point x="1735" y="166"/>
      <point x="1735" y="349" type="curve" smooth="yes"/>
      <point x="1735" y="535"/>
      <point x="1609" y="723"/>
      <point x="1357" y="723" type="curve" smooth="yes"/>
      <point x="1106" y="723"/>
      <point x="977" y="535"/>
      <point x="977" y="349" type="curve" smooth="yes"/>
      <point x="977" y="166"/>
      <point x="1103" y="-17"/>
    </contour>
  </outline>
</glyph>
<glyph name="quotesingle" format="1">
  <advance width="580"/>
  <unicode hex="0027"/>
  <outline>
    <contour>
      <point x="289" y="961" type="curve" smooth="yes"/>
      <point x="306" y="961"/>
      <point x="325" y="971"/>
      <point x="331" y="1019" type="curve"/>
      <point x="390" y="1424"/>
      <point x="390" y="1429"/>
      <point x="390" y="1435" type="curve" smooth="yes"/>
      <point x="390" y="1489"/>
      <point x="341" y="1515"/>
      <point x="293" y="1515" type="curve" smooth="yes"/>
      <point x="245" y="1515"/>
      <point x="194" y="1488"/>
      <point x="194" y="1434" type="curve" smooth="yes"/>
      <point x="194" y="1429"/>
      <point x="196" y="1424"/>
      <point x="250" y="1018" type="curve"/>
      <point x="255" y="969"/>
      <point x="272" y="961"/>
    </contour>
  </outline>
</glyph>
<glyph name="parenleft" format="1">
  <advance width="681"/>
  <unicode hex="0028"/>
  <outline>
    <contour>
      <point x="473" y="-108" type="curve"/>
      <point x="582" y="4" type="line"/>
      <point x="376" y="143"/>
      <point x="273" y="453"/>
      <point x="273" y="760" type="curve" smooth="yes"/>
      <point x="273" y="1067"/>
      <point x="376" y="1377"/>
      <point x="582" y="1516" type="curve"/>
      <point x="473" y="1628" type="line"/>
      <point x="205" y="1460"/>
      <point x="73" y="1109"/>
      <point x="73" y="760" type="curve" smooth="yes"/>
      <point x="73" y="411"/>
      <point x="205" y="60"/>
    </contour>
  </outline>
</glyph>
<glyph name="asterisk" format="1">
  <advance width="1283"/>
  <unicode hex="002A"/>
  <outline>
    <contour>
      <point x="242.682" y="624.394" type="curve" smooth="yes"/>
      <point x="192.033" y="624.394"/>
      <point x="144" y="683.132"/>
      <point x="144" y="740.223" type="curve" smooth="yes"/>
      <point x="144" y="765.66"/>
      <point x="154.627" y="789.465"/>
      <point x="181.013" y="803.5" type="curve"/>
      <point x="571.013" y="955.5" type="line"/>
      <point x="181.013" y="1105" type="line"/>
      <point x="154.627" y="1119.03"/>
      <point x="144" y="1142.84"/>
      <point x="144" y="1168.28" type="curve" smooth="yes"/>
      <point x="144" y="1225.36"/>
      <point x="192.051" y="1284.11"/>
      <point x="242.682" y="1284.11" type="curve" smooth="yes"/>
      <point x="254.557" y="1284.11"/>
      <point x="266.818" y="1281.01"/>
      <point x="279.013" y="1274" type="curve"/>
      <point x="602.013" y="1034" type="line"/>
      <point x="545.013" y="1415" type="line"/>
      <point x="545.013" y="1469"/>
      <point x="594.013" y="1495"/>
      <point x="642.013" y="1495" type="curve" smooth="yes"/>
      <point x="690.013" y="1495"/>
      <point x="739.013" y="1469"/>
      <point x="739.013" y="1415" type="curve"/>
      <point x="682.013" y="1034" type="line"/>
      <point x="1005.01" y="1274" type="line"/>
      <point x="1017.21" y="1281.01"/>
      <point x="1029.47" y="1284.11"/>
      <point x="1041.34" y="1284.11" type="curve" smooth="yes"/>
      <point x="1091.99" y="1284.11"/>
      <point x="1140.03" y="1225.37"/>
      <point x="1140.03" y="1168.28" type="curve" smooth="yes"/>
      <point x="1140.03" y="1142.84"/>
      <point x="1129.4" y="1119.04"/>
      <point x="1103.01" y="1105" type="curve"/>
      <point x="713.013" y="955.5" type="line"/>
      <point x="1103.01" y="803.5" type="line"/>
      <point x="1129.4" y="789.465"/>
      <point x="1140.03" y="765.66"/>
      <point x="1140.03" y="740.223" type="curve" smooth="yes"/>
      <point x="1140.03" y="683.138"/>
      <point x="1091.97" y="624.394"/>
      <point x="1041.34" y="624.394" type="curve" smooth="yes"/>
      <point x="1029.47" y="624.394"/>
      <point x="1017.21" y="627.495"/>
      <point x="1005.01" y="634.5" type="curve"/>
      <point x="682.013" y="874.5" type="line"/>
      <point x="739.013" y="493.5" type="line"/>
      <point x="739.013" y="439.5"/>
      <point x="690.013" y="413.5"/>
      <point x="642.013" y="413.5" type="curve" smooth="yes"/>
      <point x="594.013" y="413.5"/>
      <point x="545.013" y="439.5"/>
      <point x="545.013" y="493.5" type="curve"/>
      <point x="602.013" y="874.5" type="line"/>
      <point x="279.013" y="634.5" type="line"/>
      <point x="266.818" y="627.495"/>
      <point x="254.557" y="624.394"/>
    </contour>
  </outline>
</glyph>
<glyph name="comma" format="1">
  <advance width="480"/>
  <unicode hex="002C"/>
  <outline>
    <contour>
      <point x="155" y="-232" type="line"/>
      <point x="263" y="-232"/>
      <point x="401" y="-41"/>
      <point x="401" y="93" type="curve" smooth="yes"/>
      <point x="401" y="193"/>
      <point x="325" y="239"/>
      <point x="255" y="239" type="curve" smooth="yes"/>
      <point x="185" y="239"/>
      <point x="117" y="192"/>
      <point x="117" y="101" type="curve" smooth="yes"/>
      <point x="117" y="49"/>
      <point x="149" y="-1"/>
      <point x="220" y="-22" type="curve"/>
      <point x="220" y="-101"/>
      <point x="195" y="-153"/>
      <point x="131" y="-209" type="curve"/>
    </contour>
  </outline>
</glyph>
<glyph name="hyphen" format="1">
  <advance width="875"/>
  <unicode hex="002D"/>
  <outline>
    <contour>
      <point x="108" y="619" type="line"/>
      <point x="767" y="619" type="line"/>
      <point x="767" y="756" type="line"/>
      <point x="108" y="756" type="line"/>
    </contour>
  </outline>
</glyph>
<glyph name="zero" format="1">
  <advance width="1339"/>
  <unicode hex="0030"/>
  <outline>
    <contour>
      <point x="670" y="137" type="curve" smooth="yes"/>
      <point x="451" y="137"/>
      <point x="332" y="403"/>
      <point x="332" y="764" type="curve" smooth="yes"/>
      <point x="332" y="1121"/>
      <point x="451" y="1380"/>
      <point x="670" y="1380" type="curve" smooth="yes"/>
      <point x="889" y="1380"/>
      <point x="1009" y="1121"/>
      <point x="1009" y="764" type="curve" smooth="yes"/>
      <point x="1009" y="403"/>
      <point x="889" y="137"/>
    </contour>
    <contour>
      <point x="670" y="-19" type="curve" smooth="yes"/>
      <point x="1051" y="-19"/>
      <point x="1207" y="318"/>
      <point x="1207" y="758" type="curve" smooth="yes"/>
      <point x="1207" y="1220"/>
      <point x="1037" y="1536"/>
      <point x="670" y="1536" type="curve" smooth="yes"/>
      <point x="303" y="1536"/>
      <point x="132" y="1220"/>
      <point x="132" y="758" type="curve" smooth="yes"/>
      <point x="132" y="318"/>
      <point x="288" y="-19"/>
    </contour>
  </outline>
</glyph>
<glyph name="two" format="1">
  <advance width="1182"/>
  <unicode hex="0032"/>
  <outline>
    <contour>
      <point x="145" y="0" type="line"/>
      <point x="1076" y="0" type="line"/>
      <point x="1076" y="157" type="line"/>
      <point x="347" y="157" type="line"/>
      <point x="790" y="606" type="line"/>
      <point x="965" y="780"/>
      <point x="1071" y="926"/>
      <point x="1071" y="1116" type="curve" smooth="yes"/>
      <point x="1071" y="1371"/>
      <point x="894" y="1534"/>
      <point x="601" y="1534" type="curve" smooth="yes"/>
      <point x="398" y="1534"/>
      <point x="264" y="1483"/>
      <point x="176" y="1404" type="curve"/>
      <point x="238" y="1252" type="line"/>
      <point x="326" y="1338"/>
      <point x="457" y="1375"/>
      <point x="586" y="1375" type="curve" smooth="yes"/>
      <point x="772" y="1375"/>
      <point x="866" y="1277"/>
      <point x="866" y="1102" type="curve" smooth="yes"/>
      <point x="866" y="983"/>
      <point x="787" y="868"/>
      <point x="664" y="736" type="curve"/>
      <point x="145" y="164" type="line"/>
    </contour>
  </outline>
</glyph>
<glyph name="three" format="1">
  <advance width="1206"/>
  <unicode hex="0033"/>
  <outline>
    <contour>
      <point x="553" y="-19" type="curve"/>
      <point x="855" y="-19"/>
      <point x="1080" y="145"/>
      <point x="1080" y="411" type="curve" smooth="yes"/>
      <point x="1080" y="625"/>
      <point x="961" y="762"/>
      <point x="766" y="803" type="curve"/>
      <point x="938" y="853"/>
      <point x="1043" y="973"/>
      <point x="1043" y="1165" type="curve" smooth="yes"/>
      <point x="1043" y="1407"/>
      <point x="824" y="1536"/>
      <point x="593" y="1536" type="curve" smooth="yes"/>
      <point x="373" y="1536"/>
      <point x="238" y="1494"/>
      <point x="142" y="1423" type="curve"/>
      <point x="200" y="1274" type="line"/>
      <point x="284" y="1338"/>
      <point x="409" y="1380"/>
      <point x="553" y="1380" type="curve" smooth="yes"/>
      <point x="737" y="1380"/>
      <point x="840" y="1305"/>
      <point x="840" y="1138" type="curve" smooth="yes"/>
      <point x="840" y="916"/>
      <point x="637" y="879"/>
      <point x="412" y="879" type="curve" smooth="yes"/>
      <point x="371" y="879" type="line"/>
      <point x="371" y="727" type="line"/>
      <point x="412" y="727" type="line"/>
      <point x="659" y="727"/>
      <point x="896" y="674"/>
      <point x="896" y="414" type="curve" smooth="yes"/>
      <point x="896" y="234"/>
      <point x="759" y="137"/>
      <point x="553" y="137" type="curve" smooth="yes"/>
      <point x="393" y="137"/>
      <point x="280" y="187"/>
      <point x="199" y="247" type="curve"/>
      <point x="141" y="97" type="line"/>
      <point x="199" y="44"/>
      <point x="348" y="-19"/>
    </contour>
  </outline>
</glyph>
<glyph name="four" format="1">
  <advance width="1274"/>
  <unicode hex="0034"/>
  <outline>
    <contour>
      <point x="815" y="0" type="line"/>
      <point x="989" y="0" type="line"/>
      <point x="989" y="376" type="line"/>
      <point x="1169" y="376" type="line"/>
      <point x="1184" y="522" type="line"/>
      <point x="989" y="522" type="line"/>
      <point x="989" y="1522" type="line"/>
      <point x="795" y="1522" type="line"/>
      <point x="105" y="533" type="line"/>
      <point x="105" y="376" type="line"/>
      <point x="815" y="376" type="line"/>
    </contour>
    <contour>
      <point x="289" y="522" type="line"/>
      <point x="815" y="1292" type="line"/>
      <point x="815" y="522" type="line"/>
    </contour>
  </outline>
</glyph>
<glyph name="colon" format="1">
  <advance width="663"/>
  <unicode hex="003A"/>
  <outline>
    <contour>
      <point x="332" y="110" type="curve" smooth="yes"/>
      <point x="398" y="110"/>
      <point x="466" y="151"/>
      <point x="466" y="236" type="curve" smooth="yes"/>
      <point x="466" y="325"/>
      <point x="398" y="369"/>
      <point x="332" y="369" type="curve" smooth="yes"/>
      <point x="265" y="369"/>
      <point x="197" y="326"/>
      <point x="197" y="236" type="curve" smooth="yes"/>
      <point x="197" y="151"/>
      <point x="265" y="110"/>
    </contour>
    <contour>
      <point x="332" y="678" type="curve" smooth="yes"/>
      <point x="398" y="678"/>
      <point x="466" y="719"/>
      <point x="466" y="803" type="curve" smooth="yes"/>
      <point x="466" y="892"/>
      <point x="398" y="937"/>
      <point x="332" y="937" type="curve" smooth="yes"/>
      <point x="265" y="937"/>
      <point x="197" y="894"/>
      <point x="197" y="803" type="curve" smooth="yes"/>
      <point x="197" y="719"/>
      <point x="265" y="678"/>
    </contour>
  </outline>
</glyph>
<glyph name="semicolon" format="1">
  <advance width="664"/>
  <unicode hex="003B"/>
  <outline>
    <contour>
      <point x="234" y="-101" type="line"/>
      <point x="344" y="-101"/>
      <point x="481" y="90"/>
      <point x="481" y="225" type="curve" smooth="yes"/>
      <point x="481" y="324"/>
      <point x="405" y="371"/>
      <point x="333" y="371" type="curve" smooth="yes"/>
      <point x="263" y="371"/>
      <point x="197" y="323"/>
      <point x="197" y="234" type="curve" smooth="yes"/>
      <point x="197" y="183"/>
      <point x="229" y="130"/>
      <point x="301" y="112" type="curve"/>
      <point x="301" y="32"/>
      <point x="275" y="-19"/>
      <point x="210" y="-75" type="curve"/>
    </contour>
    <contour>
      <point x="322" y="678" type="curve" smooth="yes"/>
      <point x="390" y="678"/>
      <point x="457" y="720"/>
      <point x="457" y="805" type="curve" smooth="yes"/>
      <point x="457" y="893"/>
      <point x="390" y="938"/>
      <point x="322" y="938" type="curve" smooth="yes"/>
      <point x="256" y="938"/>
      <point x="188" y="894"/>
      <point x="188" y="805" type="curve" smooth="yes"/>
      <point x="188" y="720"/>
      <point x="256" y="678"/>
    </contour>
  </outline>
</glyph>
<glyph name="less" format="1">
  <advance width="1017"/>
  <unicode hex="003C"/>
  <outline>
    <contour>
      <point x="921" y="75" type="line"/>
      <point x="921" y="288" type="line"/>
      <point x="251" y="576" type="line"/>
      <point x="921" y="880" type="line"/>
      <point x="921" y="1086" type="line"/>
      <point x="91" y="669" type="line"/>
      <point x="91" y="496" type="line"/>
    </contour>
  </outline>
</glyph>
<glyph name="equal" format="1">
  <advance width="1301"/>
  <unicode hex="003D"/>
  <outline>
    <contour>
      <point x="206" y="410" type="line"/>
      <point x="1092" y="410" type="line"/>
      <point x="1092" y="567" type="line"/>
      <point x="206" y="567" type="line"/>
    </contour>
    <contour>
      <point x="206" y="706" type="line"/>
      <point x="1092" y="706" type="line"/>
      <point x="1092" y="863" type="line"/>
      <point x="206" y="863" type="line"/>
    </contour>
  </outline>
</glyph>
<glyph name="question" format="1">
  <advance width="1034"/>
  <unicode hex="003F"/>
  <outline>
    <contour>
      <point x="409" y="379" type="curve" smooth="yes"/>
      <point x="432" y="379"/>
      <point x="446" y="398"/>
      <point x="454" y="433" type="curve" smooth="yes"/>
      <point x="523" y="741"/>
      <point x="902" y="854"/>
      <point x="902" y="1164" type="curve" smooth="yes"/>
      <point x="902" y="1422"/>
      <point x="698" y="1542"/>
      <point x="484" y="1542" type="curve" smooth="yes"/>
      <point x="350" y="1542"/>
      <point x="218" y="1501"/>
      <point x="117" y="1424" type="curve"/>
      <point x="176" y="1274" type="line"/>
      <point x="250" y="1339"/>
      <point x="362" y="1379"/>
      <point x="468" y="1379" type="curve" smooth="yes"/>
      <point x="585" y="1379"/>
      <point x="700" y="1295"/>
      <point x="700" y="1162" type="curve" smooth="yes"/>
      <point x="700" y="900"/>
      <point x="370" y="797"/>
      <point x="370" y="435" type="curve" smooth="yes"/>
      <point x="370" y="400"/>
      <point x="389" y="379"/>
    </contour>
    <contour>
      <point x="431" y="-17" type="curve" smooth="yes"/>
      <point x="498" y="-17"/>
      <point x="565" y="24"/>
      <point x="565" y="110" type="curve" smooth="yes"/>
      <point x="565" y="197"/>
      <point x="498" y="243"/>
      <point x="431" y="243" type="curve" smooth="yes"/>
      <point x="363" y="243"/>
      <point x="296" y="198"/>
      <point x="296" y="110" type="curve" smooth="yes"/>
      <point x="296" y="24"/>
      <point x="363" y="-17"/>
    </contour>
  </outline>
</glyph>
<glyph name="A" format="1">
  <advance width="1592"/>
  <unicode hex="0041"/>
  <outline>
    <contour>
      <point x="69" y="0" type="line"/>
      <point x="274" y="0" type="line"/>
      <point x="483" y="487" type="line"/>
      <point x="1109" y="487" type="line"/>
      <point x="1330" y="0" type="line"/>
      <point x="1528" y="0" type="line"/>
      <point x="1528" y="0"/>
      <point x="853" y="1516"/>
      <point x="853" y="1516" type="curve"/>
      <point x="705" y="1516" type="line"/>
    </contour>
    <contour>
      <point x="559" y="662" type="line"/>
      <point x="785" y="1265" type="line"/>
      <point x="1031" y="662" type="line"/>
    </contour>
  </outline>
</glyph>
<glyph name="B" format="1">
  <advance width="1278"/>
  <unicode hex="0042"/>
  <outline>
    <contour>
      <point x="610" y="0" type="line" smooth="yes"/>
      <point x="984" y="0"/>
      <point x="1162" y="142"/>
      <point x="1162" y="428" type="curve" smooth="yes"/>
      <point x="1162" y="495"/>
      <point x="1132" y="738"/>
      <point x="866" y="815" type="curve"/>
      <point x="1015" y="858"/>
      <point x="1089" y="998"/>
      <point x="1089" y="1119" type="curve" smooth="yes"/>
      <point x="1089" y="1318"/>
      <point x="933" y="1516"/>
      <point x="619" y="1516" type="curve" smooth="yes"/>
      <point x="173" y="1516" type="line"/>
      <point x="173" y="0" type="line"/>
    </contour>
    <contour>
      <point x="370" y="860" type="line"/>
      <point x="370" y="1347" type="line"/>
      <point x="641" y="1347" type="line" smooth="yes"/>
      <point x="818" y="1347"/>
      <point x="902" y="1232"/>
      <point x="902" y="1114" type="curve" smooth="yes"/>
      <point x="902" y="990"/>
      <point x="817" y="860"/>
      <point x="663" y="860" type="curve" smooth="yes"/>
    </contour>
    <contour>
      <point x="370" y="173" type="line"/>
      <point x="370" y="705" type="line"/>
      <point x="695" y="705" type="line" smooth="yes"/>
      <point x="885" y="705"/>
      <point x="955" y="547"/>
      <point x="955" y="428" type="curve" smooth="yes"/>
      <point x="955" y="201"/>
      <point x="755" y="173"/>
      <point x="596" y="173" type="curve" smooth="yes"/>
    </contour>
  </outline>
</glyph>
<glyph name="D" format="1">
  <advance width="1679"/>
  <unicode hex="0044"/>
  <outline>
    <contour>
      <point x="385" y="177" type="line"/>
      <point x="385" y="1337" type="line"/>
      <point x="793" y="1337" type="line" smooth="yes"/>
      <point x="1098" y="1337"/>
      <point x="1352" y="1198"/>
      <point x="1352" y="760" type="curve" smooth="yes"/>
      <point x="1352" y="373"/>
      <point x="1098" y="177"/>
      <point x="743" y="177" type="curve" smooth="yes"/>
    </contour>
    <contour>
      <point x="187" y="0" type="line"/>
      <point x="786" y="0" type="line" smooth="yes"/>
      <point x="1281" y="0"/>
      <point x="1560" y="357"/>
      <point x="1560" y="763" type="curve" smooth="yes"/>
      <point x="1560" y="1207"/>
      <point x="1303" y="1516"/>
      <point x="821" y="1516" type="curve" smooth="yes"/>
      <point x="187" y="1516" type="line"/>
    </contour>
  </outline>
</glyph>
<glyph name="E" format="1">
  <advance width="1203"/>
  <unicode hex="0045"/>
  <outline>
    <contour>
      <point x="187" y="0" type="line"/>
      <point x="1063" y="0" type="line"/>
      <point x="1063" y="177" type="line"/>
      <point x="385" y="177" type="line"/>
      <point x="385" y="682" type="line"/>
      <point x="1035" y="682" type="line"/>
      <point x="1035" y="856" type="line"/>
      <point x="385" y="856" type="line"/>
      <point x="385" y="1339" type="line"/>
      <point x="1050" y="1339" type="line"/>
      <point x="1050" y="1516" type="line"/>
      <point x="187" y="1516" type="line"/>
    </contour>
  </outline>
</glyph>
<glyph name="G" format="1">
  <advance width="1623"/>
  <unicode hex="0047"/>
  <outline>
    <contour>
      <point x="903" y="-19" type="curve" smooth="yes"/>
      <point x="1066" y="-19"/>
      <point x="1255" y="17"/>
      <point x="1474" y="106" type="curve"/>
      <point x="1474" y="731" type="line"/>
      <point x="989" y="731" type="line"/>
      <point x="989" y="557" type="line"/>
      <point x="1274" y="557" type="line"/>
      <point x="1274" y="219" type="line"/>
      <point x="1148" y="168"/>
      <point x="1026" y="145"/>
      <point x="920" y="145" type="curve" smooth="yes"/>
      <point x="552" y="145"/>
      <point x="319" y="411"/>
      <point x="319" y="731" type="curve" smooth="yes"/>
      <point x="319" y="1134"/>
      <point x="615" y="1376"/>
      <point x="971" y="1376" type="curve" smooth="yes"/>
      <point x="1122" y="1376"/>
      <point x="1284" y="1333"/>
      <point x="1438" y="1242" type="curve"/>
      <point x="1438" y="1409" type="line"/>
      <point x="1281" y="1496"/>
      <point x="1118" y="1536"/>
      <point x="956" y="1536" type="curve" smooth="yes"/>
      <point x="486" y="1536"/>
      <point x="111" y="1206"/>
      <point x="111" y="733" type="curve" smooth="yes"/>
      <point x="111" y="391"/>
      <point x="361" y="-19"/>
    </contour>
  </outline>
</glyph>
<glyph name="O" format="1">
  <advance width="1843"/>
  <unicode hex="004F"/>
  <outline>
    <contour>
      <point x="921" y="159" type="curve" smooth="yes"/>
      <point x="594" y="159"/>
      <point x="328" y="430"/>
      <point x="328" y="759" type="curve" smooth="yes"/>
      <point x="328" y="1088"/>
      <point x="594" y="1358"/>
      <point x="921" y="1358" type="curve" smooth="yes"/>
      <point x="1247" y="1358"/>
      <point x="1514" y="1088"/>
      <point x="1514" y="759" type="curve" smooth="yes"/>
      <point x="1514" y="430"/>
      <point x="1247" y="159"/>
    </contour>
    <contour>
      <point x="921" y="-19" type="curve" smooth="yes"/>
      <point x="1360" y="-19"/>
      <point x="1722" y="331"/>
      <point x="1722" y="759" type="curve" smooth="yes"/>
      <point x="1722" y="1189"/>
      <point x="1360" y="1536"/>
      <point x="921" y="1536" type="curve" smooth="yes"/>
      <point x="480" y="1536"/>
      <point x="120" y="1189"/>
      <point x="120" y="759" type="curve" smooth="yes"/>
      <point x="120" y="331"/>
      <point x="480" y="-19"/>
    </contour>
  </outline>
</glyph>
<glyph name="R" format="1">
  <advance width="1235"/>
  <unicode hex="0052"/>
  <outline>
    <contour>
      <point x="187" y="0" type="line"/>
      <point x="385" y="0" type="line"/>
      <point x="385" y="695" type="line"/>
      <point x="490" y="695" type="line" smooth="yes"/>
      <point x="510" y="695"/>
      <point x="529" y="696"/>
      <point x="548" y="696" type="curve" smooth="yes"/>
      <point x="548" y="696"/>
      <point x="820" y="141"/>
      <point x="892" y="0" type="curve"/>
      <point x="1092" y="0" type="line"/>
      <point x="1093" y="51" type="line"/>
      <point x="967" y="278"/>
      <point x="848" y="509"/>
      <point x="740" y="723" type="curve"/>
      <point x="952" y="787"/>
      <point x="1045" y="931"/>
      <point x="1045" y="1118" type="curve" smooth="yes"/>
      <point x="1045" y="1401"/>
      <point x="822" y="1516"/>
      <point x="540" y="1516" type="curve" smooth="yes"/>
      <point x="187" y="1516" type="line"/>
    </contour>
    <contour>
      <point x="385" y="856" type="line"/>
      <point x="385" y="1352" type="line"/>
      <point x="518" y="1352" type="line" smooth="yes"/>
      <point x="787" y="1352"/>
      <point x="836" y="1231"/>
      <point x="836" y="1107" type="curve" smooth="yes"/>
      <point x="836" y="879"/>
      <point x="655" y="856"/>
      <point x="435" y="856" type="curve" smooth="yes"/>
    </contour>
  </outline>
</glyph>
<glyph name="S" format="1">
  <advance width="1123"/>
  <unicode hex="0053"/>
  <outline>
    <contour>
      <point x="534" y="-14" type="curve" smooth="yes"/>
      <point x="769" y="-14"/>
      <point x="999" y="124"/>
      <point x="999" y="390" type="curve" smooth="yes"/>
      <point x="999" y="534"/>
      <point x="946" y="643"/>
      <point x="762" y="771" type="curve"/>
      <point x="496" y="948" type="line" smooth="yes"/>
      <point x="400" y="1012"/>
      <point x="345" y="1092"/>
      <point x="345" y="1170" type="curve" smooth="yes"/>
      <point x="345" y="1273"/>
      <point x="433" y="1359"/>
      <point x="609" y="1359" type="curve" smooth="yes"/>
      <point x="756" y="1359"/>
      <point x="908" y="1248"/>
      <point x="939" y="1224" type="curve"/>
      <point x="939" y="1439" type="line"/>
      <point x="908" y="1466"/>
      <point x="737" y="1537"/>
      <point x="590" y="1537" type="curve" smooth="yes"/>
      <point x="294" y="1537"/>
      <point x="130" y="1346"/>
      <point x="130" y="1149" type="curve" smooth="yes"/>
      <point x="130" y="1035"/>
      <point x="187" y="916"/>
      <point x="309" y="831" type="curve" smooth="yes"/>
      <point x="635" y="605" type="line" smooth="yes"/>
      <point x="779" y="506"/>
      <point x="801" y="446"/>
      <point x="801" y="376" type="curve" smooth="yes"/>
      <point x="801" y="239"/>
      <point x="676" y="162"/>
      <point x="538" y="162" type="curve" smooth="yes"/>
      <point x="349" y="162"/>
      <point x="261" y="248"/>
      <point x="162" y="324" type="curve"/>
      <point x="162" y="123" type="line"/>
      <point x="262" y="32"/>
      <point x="398" y="-14"/>
    </contour>
  </outline>
</glyph>
<glyph name="V" format="1">
  <advance width="1460"/>
  <unicode hex="0056"/>
  <outline>
    <contour>
      <point x="710" y="-13" type="line"/>
      <point x="768" y="-13" type="line"/>
      <point x="1398" y="1515" type="line"/>
      <point x="1192" y="1515" type="line"/>
      <point x="740" y="366" type="line"/>
      <point x="266" y="1515" type="line"/>
      <point x="58" y="1515" type="line"/>
    </contour>
  </outline>
</glyph>
<glyph name="X" format="1">
  <advance width="1827"/>
  <unicode hex="0058"/>
  <outline>
    <contour>
      <point x="135" y="0" type="line"/>
      <point x="389" y="0" type="line"/>
      <point x="915" y="636" type="line"/>
      <point x="1439" y="0" type="line"/>
      <point x="1694" y="0" type="line"/>
      <point x="1040" y="785" type="line"/>
      <point x="1659" y="1516" type="line"/>
      <point x="1395" y="1516" type="line"/>
      <point x="913" y="920" type="line"/>
      <point x="435" y="1516" type="line"/>
      <point x="171" y="1516" type="line"/>
      <point x="776" y="787" type="line"/>
    </contour>
  </outline>
</glyph>
<glyph name="Z" format="1">
  <advance width="1474"/>
  <unicode hex="005A"/>
  <outline>
    <contour>
      <point x="104" y="0" type="line"/>
      <point x="1364" y="0" type="line"/>
      <point x="1364" y="168" type="line"/>
      <point x="460" y="168" type="line"/>
      <point x="1361" y="1507" type="line"/>
      <point x="1353" y="1516" type="line"/>
      <point x="153" y="1516" type="line"/>
      <point x="153" y="1352" type="line"/>
      <point x="1005" y="1352" type="line"/>
      <point x="102" y="10" type="line"/>
    </contour>
  </outline>
</glyph>
<glyph name="backslash" format="1">
  <advance width="1136"/>
  <unicode hex="005C"/>
  <outline>
    <contour>
      <point x="854" y="0" type="line"/>
      <point x="1053" y="0" type="line"/>
      <point x="285" y="1516" type="line"/>
      <point x="88" y="1516" type="line"/>
    </contour>
  </outline>
</glyph>
<glyph name="bracketright" format="1">
  <advance width="739"/>
  <unicode hex="005D"/>
  <outline>
    <contour>
      <point x="94" y="-18" type="line"/>
      <point x="692" y="-18" type="line"/>
      <point x="692" y="1567" type="line"/>
      <point x="94" y="1567" type="line"/>
      <point x="94" y="1382" type="line"/>
      <point x="469" y="1382" type="line"/>
      <point x="469" y="167" type="line"/>
      <point x="94" y="167" type="line"/>
    </contour>
  </outline>
</glyph>
<glyph name="asciicircum" format="1">
  <advance width="1352"/>
  <unicode hex="005E"/>
  <outline>
    <contour>
      <point x="182" y="932" type="line"/>
      <point x="382" y="932" type="line"/>
      <point x="672" y="1385" type="line"/>
      <point x="955" y="932" type="line"/>
      <point x="1170" y="932" type="line"/>
      <point x="749" y="1515" type="line"/>
      <point x="586" y="1515" type="line"/>
    </contour>
  </outline>
</glyph>
<glyph name="c" format="1">
  <advance width="1036"/>
  <unicode hex="0063"/>
  <outline>
    <contour>
    </contour>
    <contour>
      <point x="654.0" y="-19.0" type="curve" smooth="yes"/>
      <point x="680.0" y="-19.0"/>
      <point x="840.0" y="-13.0"/>
      <point x="935.0" y="44.0" type="curve"/>
      <point x="935.0" y="211.0" type="line"/>
      <point x="917.0" y="211.0" type="line"/>
      <point x="842.0" y="168.0"/>
      <point x="748.0" y="133.0"/>
      <point x="666.0" y="133.0" type="curve" smooth="yes"/>
      <point x="429.0" y="133.0"/>
      <point x="315.0" y="328.0"/>
      <point x="315.0" y="501.0" type="curve" smooth="yes"/>
      <point x="315.0" y="674.0"/>
      <point x="438" y="865"/>
      <point x="663" y="865" type="curve" smooth="yes"/>
      <point x="763" y="865"/>
      <point x="814" y="844"/>
      <point x="897" y="801" type="curve"/>
      <point x="911" y="801" type="line"/>
      <point x="911.0" y="961.0" type="line"/>
      <point x="854.0" y="997.0"/>
      <point x="736.0" y="1017.0"/>
      <point x="646.0" y="1017.0" type="curve" smooth="yes"/>
      <point x="370.0" y="1017.0"/>
      <point x="124.0" y="811.0"/>
      <point x="124.0" y="500.0" type="curve" smooth="yes"/>
      <point x="124.0" y="195.0"/>
      <point x="354.0" y="-19.0"/>
    </contour>
  </outline>
</glyph>
<glyph name="d" format="1">
  <advance width="1208"/>
  <unicode hex="0064"/>
  <outline>
    <contour>
      <point x="704" y="-18" type="curve" smooth="yes"/>
      <point x="885" y="-18"/>
      <point x="1031" y="49"/>
      <point x="1031" y="49" type="curve"/>
      <point x="1031" y="1490" type="line"/>
      <point x="846" y="1490" type="line"/>
      <point x="846" y="953" type="line"/>
      <point x="771" y="997"/>
      <point x="687" y="1017"/>
      <point x="603" y="1017" type="curve" smooth="yes"/>
      <point x="292" y="1017"/>
      <point x="125" y="768"/>
      <point x="125" y="515" type="curve" smooth="yes"/>
      <point x="125" y="250"/>
      <point x="307" y="-18"/>
    </contour>
    <contour>
      <point x="717" y="115" type="curve" smooth="yes"/>
      <point x="444" y="115"/>
      <point x="318" y="309"/>
      <point x="318" y="510" type="curve" smooth="yes"/>
      <point x="318" y="695"/>
      <point x="427" y="871"/>
      <point x="627" y="871" type="curve" smooth="yes"/>
      <point x="714" y="871"/>
      <point x="799" y="840"/>
      <point x="846" y="793" type="curve"/>
      <point x="846" y="136" type="line"/>
      <point x="803" y="117"/>
      <point x="759" y="115"/>
    </contour>
  </outline>
</glyph>
<glyph name="e" format="1">
  <advance width="1152"/>
  <unicode hex="0065"/>
  <outline>
    <contour>
      <point x="676" y="-19" type="curve" smooth="yes"/>
      <point x="798" y="-19"/>
      <point x="906" y="12"/>
      <point x="1001" y="72" type="curve"/>
      <point x="1001" y="229" type="line"/>
      <point x="898" y="163"/>
      <point x="788" y="130"/>
      <point x="675" y="130" type="curve" smooth="yes"/>
      <point x="454" y="130"/>
      <point x="322" y="283"/>
      <point x="320" y="498" type="curve"/>
      <point x="1019" y="498" type="line"/>
      <point x="1019" y="525" type="line" smooth="yes"/>
      <point x="1019" y="812"/>
      <point x="880" y="1016"/>
      <point x="590" y="1016" type="curve" smooth="yes"/>
      <point x="317" y="1016"/>
      <point x="121" y="788"/>
      <point x="121" y="515" type="curve" smooth="yes"/>
      <point x="121" y="198"/>
      <point x="341" y="-19"/>
    </contour>
    <contour>
      <point x="327" y="618" type="line"/>
      <point x="351" y="757"/>
      <point x="443" y="867"/>
      <point x="596" y="867" type="curve" smooth="yes"/>
      <point x="741" y="867"/>
      <point x="849" y="762"/>
      <point x="850" y="618" type="curve"/>
    </contour>
  </outline>
</glyph>
<glyph name="f" format="1">
  <advance width="736"/>
  <unicode hex="0066"/>
  <outline>
    <contour>
      <point x="205" y="0" type="line"/>
      <point x="391" y="0" type="line"/>
      <point x="391" y="854" type="line"/>
      <point x="575" y="854" type="line"/>
      <point x="575" y="998" type="line"/>
      <point x="391" y="998" type="line"/>
      <point x="391" y="1072" type="line" smooth="yes"/>
      <point x="391" y="1214"/>
      <point x="443" y="1275"/>
      <point x="557" y="1275" type="curve" smooth="yes"/>
      <point x="594" y="1275"/>
      <point x="636" y="1266"/>
      <point x="690" y="1244" type="curve"/>
      <point x="690" y="1404" type="line"/>
      <point x="626" y="1424"/>
      <point x="570" y="1433"/>
      <point x="518" y="1433" type="curve" smooth="yes"/>
      <point x="307" y="1433"/>
      <point x="201" y="1289"/>
      <point x="201" y="1072" type="curve" smooth="yes"/>
      <point x="201" y="998" type="line"/>
      <point x="66" y="998" type="line"/>
      <point x="66" y="860" type="line"/>
      <point x="205" y="860" type="line"/>
    </contour>
  </outline>
</glyph>
<glyph name="g" format="1">
  <advance width="1197"/>
  <unicode hex="0067"/>
  <outline>
    <contour>
      <point x="607" y="-437" type="curve" smooth="yes"/>
      <point x="820" y="-437"/>
      <point x="1029" y="-344"/>
      <point x="1029" y="-53" type="curve" smooth="yes"/>
      <point x="1029" y="998" type="line"/>
      <point x="847" y="998" type="line"/>
      <point x="847" y="884" type="line"/>
      <point x="755" y="976"/>
      <point x="661" y="1015"/>
      <point x="571" y="1015" type="curve" smooth="yes"/>
      <point x="345" y="1015"/>
      <point x="119" y="806"/>
      <point x="119" y="526" type="curve" smooth="yes"/>
      <point x="119" y="268"/>
      <point x="274" y="0"/>
      <point x="593" y="0" type="curve" smooth="yes"/>
      <point x="737" y="0"/>
      <point x="841" y="85"/>
      <point x="844" y="87" type="curve"/>
      <point x="860" y="33"/>
      <point x="868" y="-16"/>
      <point x="868" y="-59" type="curve" smooth="yes"/>
      <point x="868" y="-230"/>
      <point x="757" y="-291"/>
      <point x="615" y="-291" type="curve" smooth="yes"/>
      <point x="520" y="-291"/>
      <point x="410" y="-264"/>
      <point x="308" y="-223" type="curve"/>
      <point x="308" y="-379" type="line"/>
      <point x="392" y="-414"/>
      <point x="500" y="-437"/>
    </contour>
    <contour>
      <point x="628" y="152" type="curve" smooth="yes"/>
      <point x="436" y="152"/>
      <point x="309" y="287"/>
      <point x="309" y="517" type="curve" smooth="yes"/>
      <point x="309" y="734"/>
      <point x="459" y="862"/>
      <point x="613" y="862" type="curve" smooth="yes"/>
      <point x="685" y="862"/>
      <point x="765" y="835"/>
      <point x="844" y="773" type="curve"/>
      <point x="844" y="202" type="line"/>
      <point x="765" y="168"/>
      <point x="692" y="152"/>
    </contour>
  </outline>
</glyph>
<glyph name="h" format="1">
  <advance width="1201"/>
  <unicode hex="0068"/>
  <outline>
    <contour>
      <point x="179" y="0" type="line"/>
      <point x="365" y="0" type="line"/>
      <point x="365" y="730" type="line"/>
      <point x="424" y="803"/>
      <point x="594" y="862"/>
      <point x="666" y="862" type="curve" smooth="yes"/>
      <point x="797" y="862"/>
      <point x="849" y="787"/>
      <point x="849" y="600" type="curve" smooth="yes"/>
      <point x="849" y="0" type="line"/>
      <point x="1035" y="0" type="line"/>
      <point x="1035" y="661" type="line" smooth="yes"/>
      <point x="1035" y="906"/>
      <point x="882" y="1017"/>
      <point x="701" y="1017" type="curve" smooth="yes"/>
      <point x="587" y="1017"/>
      <point x="469" y="968"/>
      <point x="365" y="869" type="curve"/>
      <point x="365" y="1491" type="line"/>
      <point x="179" y="1491" type="line"/>
    </contour>
  </outline>
</glyph>
<glyph name="j" format="1">
  <advance width="613"/>
  <unicode hex="006A"/>
  <outline>
    <contour>
      <point x="64" y="-384" type="line"/>
      <point x="370" y="-365"/>
      <point x="406" y="-173"/>
      <point x="406" y="-79" type="curve" smooth="yes"/>
      <point x="406" y="998" type="line"/>
      <point x="219" y="998" type="line"/>
      <point x="219" y="14" type="line" smooth="yes"/>
      <point x="219" y="-103"/>
      <point x="240" y="-206"/>
      <point x="23" y="-243" type="curve"/>
    </contour>
    <contour>
      <point x="312" y="1155" type="curve" smooth="yes"/>
      <point x="397" y="1155"/>
      <point x="441" y="1213"/>
      <point x="441" y="1276" type="curve" smooth="yes"/>
      <point x="441" y="1337"/>
      <point x="397" y="1395"/>
      <point x="312" y="1395" type="curve" smooth="yes"/>
      <point x="229" y="1395"/>
      <point x="181" y="1337"/>
      <point x="181" y="1276" type="curve" smooth="yes"/>
      <point x="181" y="1213"/>
      <point x="229" y="1155"/>
    </contour>
  </outline>
</glyph>
<glyph name="k" format="1">
  <advance width="1123"/>
  <unicode hex="006B"/>
  <outline>
    <contour>
      <point x="179" y="0" type="line"/>
      <point x="364" y="0" type="line"/>
      <point x="364" y="503" type="line"/>
      <point x="860" y="0" type="line"/>
      <point x="1107" y="0" type="line"/>
      <point x="578" y="527" type="line"/>
      <point x="1049" y="998" type="line"/>
      <point x="811" y="998" type="line"/>
      <point x="364" y="538" type="line"/>
      <point x="364" y="1491" type="line"/>
      <point x="179" y="1491" type="line"/>
    </contour>
  </outline>
</glyph>
<glyph name="l" format="1">
  <advance width="565"/>
  <unicode hex="006C"/>
  <outline>
    <contour>
      <point x="376" y="0" type="curve" smooth="yes"/>
      <point x="376" y="1490" type="line"/>
      <point x="192" y="1490" type="line"/>
      <point x="192" y="0" type="line" smooth="yes"/>
      <point x="192" y="0"/>
      <point x="376" y="0"/>
    </contour>
  </outline>
</glyph>
<glyph name="m" format="1">
  <advance width="1850"/>
  <unicode hex="006D"/>
  <outline>
    <contour>
      <point x="172" y="0" type="line"/>
      <point x="358" y="0" type="line"/>
      <point x="358" y="709" type="line"/>
      <point x="409" y="777"/>
      <point x="539" y="859"/>
      <point x="655" y="859" type="curve" smooth="yes"/>
      <point x="744" y="859"/>
      <point x="829" y="794"/>
      <point x="829" y="675" type="curve" smooth="yes"/>
      <point x="829" y="0" type="line"/>
      <point x="1014" y="0" type="line"/>
      <point x="1014" y="697" type="line"/>
      <point x="1078" y="789"/>
      <point x="1200" y="859"/>
      <point x="1320" y="859" type="curve" smooth="yes"/>
      <point x="1447" y="859"/>
      <point x="1499" y="770"/>
      <point x="1499" y="661" type="curve" smooth="yes"/>
      <point x="1499" y="0" type="line"/>
      <point x="1685" y="0" type="line"/>
      <point x="1685" y="661" type="line" smooth="yes"/>
      <point x="1685" y="924"/>
      <point x="1505" y="1015"/>
      <point x="1342" y="1015" type="curve" smooth="yes"/>
      <point x="1303" y="1015"/>
      <point x="1134" y="1008"/>
      <point x="974" y="811" type="curve"/>
      <point x="928" y="940"/>
      <point x="824" y="1015"/>
      <point x="684" y="1015" type="curve" smooth="yes"/>
      <point x="626" y="1015"/>
      <point x="493" y="1002"/>
      <point x="352" y="835" type="curve"/>
      <point x="352" y="998" type="line"/>
      <point x="172" y="998" type="line"/>
    </contour>
  </outline>
</glyph>
<glyph name="n" format="1">
  <advance width="1188"/>
  <unicode hex="006E"/>
  <outline>
    <contour>
      <point x="179" y="0" type="line"/>
      <point x="365" y="0" type="line"/>
      <point x="365" y="709" type="line"/>
      <point x="420" y="787"/>
      <point x="558" y="867"/>
      <point x="672" y="867" type="curve" smooth="yes"/>
      <point x="764" y="867"/>
      <point x="838" y="814"/>
      <point x="838" y="675" type="curve" smooth="yes"/>
      <point x="838" y="0" type="line"/>
      <point x="1022" y="0" type="line"/>
      <point x="1022" y="679" type="line" smooth="yes"/>
      <point x="1022" y="879"/>
      <point x="892" y="1015"/>
      <point x="700" y="1015" type="curve" smooth="yes"/>
      <point x="642" y="1015"/>
      <point x="501" y="994"/>
      <point x="361" y="840" type="curve"/>
      <point x="361" y="998" type="line"/>
      <point x="179" y="998" type="line"/>
    </contour>
  </outline>
</glyph>
<glyph name="p" format="1">
  <advance width="1211"/>
  <unicode hex="0070"/>
  <outline>
    <contour>
      <point x="172" y="-405" type="line"/>
      <point x="359" y="-405" type="line"/>
      <point x="359" y="49" type="line"/>
      <point x="359" y="49"/>
      <point x="455" y="-21"/>
      <point x="606" y="-21" type="curve" smooth="yes"/>
      <point x="918" y="-21"/>
      <point x="1092" y="262"/>
      <point x="1092" y="527" type="curve" smooth="yes"/>
      <point x="1092" y="776"/>
      <point x="938" y="1016"/>
      <point x="621" y="1016" type="curve" smooth="yes"/>
      <point x="539" y="1016"/>
      <point x="448" y="974"/>
      <point x="359" y="882" type="curve"/>
      <point x="359" y="998" type="line"/>
      <point x="172" y="998" type="line"/>
    </contour>
    <contour>
      <point x="582" y="116" type="curve" smooth="yes"/>
      <point x="442" y="116"/>
      <point x="359" y="189"/>
      <point x="359" y="189" type="curve"/>
      <point x="359" y="767" type="line"/>
      <point x="359" y="767"/>
      <point x="457" y="854"/>
      <point x="604" y="854" type="curve" smooth="yes"/>
      <point x="799" y="854"/>
      <point x="890" y="694"/>
      <point x="890" y="526" type="curve" smooth="yes"/>
      <point x="890" y="338"/>
      <point x="797" y="116"/>
    </contour>
  </outline>
</glyph>
<glyph name="u" format="1">
  <advance width="1167"/>
  <unicode hex="0075"/>
  <outline>
    <contour>
      <point x="496" y="-18" type="curve" smooth="yes"/>
      <point x="605" y="-18"/>
      <point x="718" y="30"/>
      <point x="809" y="129" type="curve"/>
      <point x="809" y="0" type="line"/>
      <point x="990" y="0" type="line"/>
      <point x="990" y="998" type="line"/>
      <point x="807" y="998" type="line"/>
      <point x="807" y="272" type="line"/>
      <point x="748" y="186"/>
      <point x="633" y="127"/>
      <point x="531" y="127" type="curve" smooth="yes"/>
      <point x="433" y="127"/>
      <point x="351" y="183"/>
      <point x="351" y="325" type="curve" smooth="yes"/>
      <point x="351" y="998" type="line"/>
      <point x="166" y="998" type="line"/>
      <point x="166" y="334" type="line" smooth="yes"/>
      <point x="166" y="101"/>
      <point x="323" y="-18"/>
    </contour>
  </outline>
</glyph>
<glyph name="v" format="1">
  <advance width="1087"/>
  <unicode hex="0076"/>
  <outline>
    <contour>
      <point x="527" y="0" type="line"/>
      <point x="558" y="0" type="line"/>
      <point x="1028" y="998" type="line"/>
      <point x="818" y="998" type="line"/>
      <point x="544" y="341" type="line"/>
      <point x="268" y="998" type="line"/>
      <point x="60" y="998" type="line"/>
    </contour>
  </outline>
</glyph>
<glyph name="x" format="1">
  <advance width="1312"/>
  <unicode hex="0078"/>
  <outline>
    <contour>
      <point x="134" y="0" type="line"/>
      <point x="370" y="0" type="line"/>
      <point x="661" y="368" type="line"/>
      <point x="967" y="0" type="line"/>
      <point x="1179" y="0" type="line"/>
      <point x="767" y="499" type="line"/>
      <point x="1164" y="998" type="line"/>
      <point x="933" y="998" type="line"/>
      <point x="651" y="643" type="line"/>
      <point x="359" y="998" type="line"/>
      <point x="146" y="998" type="line"/>
      <point x="545" y="513" type="line"/>
    </contour>
  </outline>
</glyph>
<glyph name="z" format="1">
  <advance width="1061"/>
  <unicode hex="007A"/>
  <outline>
    <contour>
      <point x="140" y="0" type="line"/>
      <point x="908" y="0" type="line"/>
      <point x="908" y="140" type="line"/>
      <point x="403" y="140" type="line"/>
      <point x="923" y="951" type="line"/>
      <point x="904" y="998" type="line"/>
      <point x="170" y="998" type="line"/>
      <point x="170" y="857" type="line"/>
      <point x="650" y="857" type="line"/>
      <point x="130" y="35" type="line"/>
    </contour>
  </outline>
</glyph>
<glyph name="braceleft" format="1">
  <advance width="767"/>
  <unicode hex="007B"/>
  <outline>
    <contour>
      <point x="674" y="-266" type="curve"/>
      <point x="674" y="-99" type="line"/>
      <point x="563" y="-99"/>
      <point x="471" y="-43"/>
      <point x="471" y="115" type="curve" smooth="yes"/>
      <point x="471" y="508" type="line" smooth="yes"/>
      <point x="471" y="612"/>
      <point x="401" y="687"/>
      <point x="292" y="736" type="curve"/>
      <point x="401" y="787"/>
      <point x="471" y="860"/>
      <point x="471" y="964" type="curve" smooth="yes"/>
      <point x="471" y="1357" type="line" smooth="yes"/>
      <point x="471" y="1515"/>
      <point x="563" y="1570"/>
      <point x="674" y="1570" type="curve"/>
      <point x="674" y="1737" type="line"/>
      <point x="480" y="1737"/>
      <point x="287" y="1651"/>
      <point x="288" y="1425" type="curve"/>
      <point x="288" y="1031" type="line" smooth="yes"/>
      <point x="288" y="885"/>
      <point x="211" y="828"/>
      <point x="112" y="819" type="curve"/>
      <point x="102" y="819"/>
      <point x="95" y="818"/>
      <point x="85" y="818" type="curve"/>
      <point x="85" y="653" type="line"/>
      <point x="95" y="653"/>
      <point x="102" y="652"/>
      <point x="112" y="652" type="curve"/>
      <point x="211" y="643"/>
      <point x="288" y="587"/>
      <point x="288" y="442" type="curve" smooth="yes"/>
      <point x="288" y="47" type="line" smooth="yes"/>
      <point x="288" y="-177"/>
      <point x="480" y="-266"/>
    </contour>
  </outline>
</glyph>
<glyph name="asciitilde" format="1">
  <advance width="647"/>
  <unicode hex="007E"/>
  <outline>
    <contour>
      <point x="425" y="244" type="curve" smooth="yes"/>
      <point x="514" y="244"/>
      <point x="573" y="294"/>
      <point x="625" y="367" type="curve"/>
      <point x="627" y="373"/>
      <point x="629" y="376"/>
      <point x="629" y="380" type="curve" smooth="yes"/>
      <point x="629" y="387"/>
      <point x="625" y="391"/>
      <point x="620" y="391" type="curve" smooth="yes"/>
      <point x="605" y="391"/>
      <point x="574" y="351"/>
      <point x="525" y="351" type="curve" smooth="yes"/>
      <point x="451" y="351"/>
      <point x="312" y="427"/>
      <point x="202" y="427" type="curve" smooth="yes"/>
      <point x="120" y="427"/>
      <point x="69" y="377"/>
      <point x="23" y="304" type="curve" smooth="yes"/>
      <point x="20" y="298"/>
      <point x="18" y="295"/>
      <point x="18" y="291" type="curve" smooth="yes"/>
      <point x="18" y="284"/>
      <point x="23" y="280"/>
      <point x="29" y="280" type="curve" smooth="yes"/>
      <point x="42" y="280"/>
      <point x="74" y="319"/>
      <point x="121" y="319" type="curve" smooth="yes"/>
      <point x="223" y="319"/>
      <point x="345" y="244"/>
    </contour>
  </outline>
</glyph>
<glyph name="cent" format="1">
  <advance width="1028"/>
  <unicode hex="00A2"/>
  <outline>
    <contour>
      <point x="581.0" y="-215.0" type="line"/>
      <point x="671.0" y="-215.0" type="line"/>
      <point x="671.0" y="2.0" type="line"/>
      <point x="729.0" y="6.0"/>
      <point x="846.0" y="19.0"/>
      <point x="923.0" y="63.0" type="curve"/>
      <point x="923.0" y="231.0" type="line"/>
      <point x="905.0" y="231.0" type="line"/>
      <point x="835.0" y="190.0"/>
      <point x="751.0" y="158.0"/>
      <point x="671.0" y="152.0" type="curve"/>
      <point x="671.0" y="848.0" type="line"/>
      <point x="763.0" y="846.0"/>
      <point x="814.0" y="826.0"/>
      <point x="897.0" y="782.0" type="curve"/>
      <point x="897.0" y="946.0" type="line"/>
      <point x="847.0" y="977.0"/>
      <point x="754.0" y="995.0"/>
      <point x="671.0" y="1000.0" type="curve"/>
      <point x="671.0" y="1254.0" type="line"/>
      <point x="581.0" y="1255.0" type="line"/>
      <point x="581.0" y="997.0" type="line"/>
      <point x="328.0" y="975.0"/>
      <point x="112.0" y="779.0"/>
      <point x="112.0" y="496.0" type="curve" smooth="yes"/>
      <point x="112.0" y="222.0"/>
      <point x="312.0" y="27.0"/>
      <point x="581.0" y="1.0" type="curve"/>
    </contour>
    <contour>
      <point x="581.0" y="155.0" type="line"/>
      <point x="390.0" y="190.0"/>
      <point x="301.0" y="346.0"/>
      <point x="304.0" y="501.0" type="curve" smooth="yes"/>
      <point x="307.0" y="656.0"/>
      <point x="403.0" y="810.0"/>
      <point x="581.0" y="840.0" type="curve"/>
    </contour>
  </outline>
</glyph>
<glyph name="sterling" format="1">
  <advance width="1239"/>
  <unicode hex="00A3"/>
  <outline>
    <contour>
      <point x="240" y="0" type="line"/>
      <point x="1140" y="0" type="line"/>
      <point x="1140" y="164" type="line"/>
      <point x="440" y="164" type="line"/>
      <point x="440" y="648" type="line"/>
      <point x="777" y="648" type="line"/>
      <point x="777" y="776" type="line"/>
      <point x="441" y="776" type="line"/>
      <point x="454" y="1154"/>
      <point x="602" y="1376"/>
      <point x="828" y="1376" type="curve" smooth="yes"/>
      <point x="919" y="1376"/>
      <point x="1022" y="1340"/>
      <point x="1135" y="1263" type="curve"/>
      <point x="1135" y="1433" type="line"/>
      <point x="1017" y="1507"/>
      <point x="904" y="1541"/>
      <point x="803" y="1541" type="curve" smooth="yes"/>
      <point x="484" y="1541"/>
      <point x="258" y="1228"/>
      <point x="241" y="776" type="curve"/>
      <point x="89" y="776" type="line"/>
      <point x="89" y="648" type="line"/>
      <point x="240" y="648" type="line"/>
    </contour>
  </outline>
</glyph>
<glyph name="yen" format="1">
  <advance width="1312"/>
  <unicode hex="00A5"/>
  <outline>
    <contour>
      <point x="548" y="0" type="line"/>
      <point x="764" y="0" type="line"/>
      <point x="764" y="411" type="line"/>
      <point x="1266" y="411" type="line"/>
      <point x="1266" y="568" type="line"/>
      <point x="764" y="568" type="line"/>
      <point x="764" y="706" type="line"/>
      <point x="1266" y="706" type="line"/>
      <point x="1266" y="863" type="line"/>
      <point x="813" y="863" type="line"/>
      <point x="1305" y="1516" type="line"/>
      <point x="1076" y="1516" type="line"/>
      <point x="653" y="957" type="line"/>
      <point x="248" y="1516" type="line"/>
      <point x="3" y="1516" type="line"/>
      <point x="504" y="863" type="line"/>
      <point x="42" y="863" type="line"/>
      <point x="42" y="706" type="line"/>
      <point x="548" y="706" type="line"/>
      <point x="548" y="568" type="line"/>
      <point x="42" y="568" type="line"/>
      <point x="42" y="411" type="line"/>
      <point x="548" y="411" type="line"/>
    </contour>
  </outline>
</glyph>
<glyph name="dieresis" format="1">
  <advance width="831"/>
  <unicode hex="00A8"/>
  <outline>
    <contour>
      <point x="400" y="-13" type="move" name="_top"/>
    </contour>
    <contour>
      <point x="221" y="-3" type="curve" smooth="yes"/>
      <point x="281" y="-3"/>
      <point x="343" y="34"/>
      <point x="343" y="110" type="curve" smooth="yes"/>
      <point x="343" y="190"/>
      <point x="281" y="230"/>
      <point x="221" y="230" type="curve" smooth="yes"/>
      <point x="161" y="230"/>
      <point x="101" y="190"/>
      <point x="101" y="110" type="curve" smooth="yes"/>
      <point x="101" y="35"/>
      <point x="161" y="-3"/>
    </contour>
    <contour>
      <point x="612" y="-3" type="curve" smooth="yes"/>
      <point x="672" y="-3"/>
      <point x="732" y="34"/>
      <point x="732" y="110" type="curve" smooth="yes"/>
      <point x="732" y="190"/>
      <point x="672" y="230"/>
      <point x="612" y="230" type="curve" smooth="yes"/>
      <point x="552" y="230"/>
      <point x="489" y="190"/>
      <point x="489" y="110" type="curve" smooth="yes"/>
      <point x="489" y="35"/>
      <point x="552" y="-3"/>
    </contour>
  </outline>
</glyph>
<glyph name="copyright" format="1">
  <advance width="1880"/>
  <unicode hex="00A9"/>
  <outline>
    <contour>
      <point x="950" y="237" type="curve" smooth="yes"/>
      <point x="1028" y="237"/>
      <point x="1100" y="253"/>
      <point x="1186" y="292" type="curve"/>
      <point x="1186" y="405" type="line"/>
      <point x="1100" y="365"/>
      <point x="1026" y="346"/>
      <point x="954" y="346" type="curve" smooth="yes"/>
      <point x="738" y="346"/>
      <point x="612" y="507"/>
      <point x="612" y="720" type="curve" smooth="yes"/>
      <point x="612" y="931"/>
      <point x="759" y="1101"/>
      <point x="970" y="1101" type="curve" smooth="yes"/>
      <point x="1033" y="1101"/>
      <point x="1113" y="1085"/>
      <point x="1186" y="1053" type="curve"/>
      <point x="1186" y="1164" type="line"/>
      <point x="1115" y="1193"/>
      <point x="1028" y="1208"/>
      <point x="960" y="1208" type="curve" smooth="yes"/>
      <point x="690" y="1208"/>
      <point x="476" y="1001"/>
      <point x="476" y="719" type="curve" smooth="yes"/>
      <point x="476" y="437"/>
      <point x="682" y="237"/>
    </contour>
    <contour>
      <point x="940" y="116" type="curve" smooth="yes"/>
      <point x="638" y="116"/>
      <point x="333" y="320"/>
      <point x="333" y="724" type="curve" smooth="yes"/>
      <point x="333" y="1130"/>
      <point x="638" y="1331"/>
      <point x="939" y="1331" type="curve" smooth="yes"/>
      <point x="1241" y="1331"/>
      <point x="1548" y="1128"/>
      <point x="1548" y="724" type="curve" smooth="yes"/>
      <point x="1548" y="319"/>
      <point x="1242" y="116"/>
    </contour>
    <contour>
      <point x="938" y="0" type="curve" smooth="yes"/>
      <point x="1311" y="0"/>
      <point x="1690" y="243"/>
      <point x="1690" y="724" type="curve" smooth="yes"/>
      <point x="1690" y="1207"/>
      <point x="1313" y="1446"/>
      <point x="941" y="1446" type="curve" smooth="yes"/>
      <point x="569" y="1446"/>
      <point x="191" y="1207"/>
      <point x="191" y="724" type="curve" smooth="yes"/>
      <point x="191" y="242"/>
      <point x="566" y="0"/>
    </contour>
  </outline>
</glyph>
<glyph name="guillemotleft" format="1">
  <advance width="796"/>
  <unicode hex="00AB"/>
  <outline>
    <contour>
      <point x="699" y="25" type="line"/>
      <point x="699" y="233" type="line"/>
      <point x="229" y="506" type="line"/>
      <point x="699" y="786" type="line"/>
      <point x="699" y="979" type="line"/>
      <point x="94" y="589" type="line"/>
      <point x="94" y="432" type="line"/>
    </contour>
  </outline>
</glyph>
<glyph name="logicalnot" format="1">
  <advance width="1231"/>
  <unicode hex="00AC"/>
  <outline>
    <contour>
      <point x="1030" y="356" type="line"/>
      <point x="1030" y="861" type="line"/>
      <point x="199" y="861" type="line"/>
      <point x="199" y="706" type="line"/>
      <point x="869" y="706" type="line"/>
      <point x="869" y="356" type="line"/>
    </contour>
  </outline>
</glyph>
<glyph name="macron" format="1">
  <advance width="747"/>
  <unicode hex="00AF"/>
  <outline>
    <contour>
      <point x="108" y="1" type="line"/>
      <point x="639" y="1" type="line"/>
      <point x="639" y="153" type="line"/>
      <point x="108" y="153" type="line"/>
    </contour>
  </outline>
</glyph>
<glyph name="plusminus" format="1">
  <advance width="1231"/>
  <unicode hex="00B1"/>
  <outline>
    <contour>
      <point x="199" y="83" type="line"/>
      <point x="1030" y="83" type="line"/>
      <point x="1030" y="240" type="line"/>
      <point x="199" y="240" type="line"/>
    </contour>
    <contour>
      <point x="535.0" y="356.0" type="line"/>
      <point x="696.0" y="356.0" type="line"/>
      <point x="696.0" y="706.0" type="line"/>
      <point x="1031.0" y="706.0" type="line"/>
      <point x="1031.0" y="861.0" type="line"/>
      <point x="696.0" y="861.0" type="line"/>
      <point x="696.0" y="1211.0" type="line"/>
      <point x="535.0" y="1211.0" type="line"/>
      <point x="535.0" y="861.0" type="line"/>
      <point x="199.0" y="861.0" type="line"/>
      <point x="199.0" y="706.0" type="line"/>
      <point x="535.0" y="706.0" type="line"/>
    </contour>
  </outline>
</glyph>
<glyph name="acute" format="1">
  <advance width="384"/>
  <unicode hex="00B4"/>
  <outline>
    <contour>
      <point x="185" y="117" type="move" name="_top"/>
    </contour>
    <contour>
      <point x="52" y="127" type="curve" smooth="yes"/>
      <point x="56" y="127"/>
      <point x="68" y="134"/>
      <point x="77" y="148" type="curve"/>
      <point x="306" y="439" type="line" smooth="yes"/>
      <point x="330" y="470"/>
      <point x="341" y="500"/>
      <point x="341" y="524" type="curve" smooth="yes"/>
      <point x="341" y="577"/>
      <point x="294" y="611"/>
      <point x="247" y="611" type="curve" smooth="yes"/>
      <point x="205" y="611"/>
      <point x="164" y="587"/>
      <point x="145" y="524" type="curve"/>
      <point x="44" y="162" type="line" smooth="yes"/>
      <point x="42" y="155"/>
      <point x="41" y="146"/>
      <point x="41" y="142" type="curve" smooth="yes"/>
      <point x="41" y="134"/>
      <point x="44" y="127"/>
    </contour>
  </outline>
</glyph>
<glyph name="cedilla" format="1">
  <advance width="558"/>
  <unicode hex="00B8"/>
  <outline>
    <contour>
      <point x="486" y="349" type="curve" smooth="yes"/>
      <point x="486" y="441"/>
      <point x="406" y="509"/>
      <point x="285" y="509" type="curve"/>
      <point x="327" y="636" type="line"/>
      <point x="248" y="636" type="line"/>
      <point x="158" y="381" type="line"/>
      <point x="186" y="381"/>
      <point x="349" y="390"/>
      <point x="349" y="316" type="curve" smooth="yes"/>
      <point x="349" y="260"/>
      <point x="291" y="246"/>
      <point x="232" y="246" type="curve" smooth="yes"/>
      <point x="168" y="246"/>
      <point x="100" y="262"/>
      <point x="74" y="262" type="curve" smooth="yes"/>
      <point x="66" y="262"/>
      <point x="60" y="260"/>
      <point x="60" y="257" type="curve" smooth="yes"/>
      <point x="60" y="253"/>
      <point x="69" y="247"/>
      <point x="73" y="243" type="curve"/>
      <point x="118" y="217"/>
      <point x="195" y="198"/>
      <point x="272" y="198" type="curve" smooth="yes"/>
      <point x="381" y="198"/>
      <point x="486" y="236"/>
    </contour>
  </outline>
</glyph>
<glyph name="questiondown" format="1">
  <advance width="1034"/>
  <unicode hex="00BF"/>
  <outline>
    <contour>
      <point x="551" y="-17" type="curve" smooth="yes"/>
      <point x="685" y="-17"/>
      <point x="818" y="24"/>
      <point x="919" y="101" type="curve"/>
      <point x="859" y="251" type="line"/>
      <point x="786" y="186"/>
      <point x="674" y="146"/>
      <point x="567" y="146" type="curve" smooth="yes"/>
      <point x="450" y="146"/>
      <point x="336" y="230"/>
      <point x="336" y="363" type="curve" smooth="yes"/>
      <point x="336" y="625"/>
      <point x="665" y="728"/>
      <point x="665" y="1090" type="curve" smooth="yes"/>
      <point x="665" y="1125"/>
      <point x="647" y="1146"/>
      <point x="626" y="1146" type="curve" smooth="yes"/>
      <point x="603" y="1146"/>
      <point x="589" y="1127"/>
      <point x="581" y="1092" type="curve" smooth="yes"/>
      <point x="512" y="784"/>
      <point x="134" y="671"/>
      <point x="134" y="361" type="curve" smooth="yes"/>
      <point x="134" y="103"/>
      <point x="338" y="-17"/>
    </contour>
    <contour>
      <point x="604" y="1282" type="curve" smooth="yes"/>
      <point x="673" y="1282"/>
      <point x="739" y="1327"/>
      <point x="739" y="1415" type="curve" smooth="yes"/>
      <point x="739" y="1501"/>
      <point x="673" y="1542"/>
      <point x="604" y="1542" type="curve" smooth="yes"/>
      <point x="538" y="1542"/>
      <point x="471" y="1501"/>
      <point x="471" y="1415" type="curve" smooth="yes"/>
      <point x="471" y="1328"/>
      <point x="538" y="1282"/>
    </contour>
  </outline>
</glyph>
<glyph name="Aacute" format="1">
  <advance width="1583"/>
  <unicode hex="00C1"/>
  <outline>
    <contour>
      <point x="62" y="0" type="line"/>
      <point x="268" y="0" type="line"/>
      <point x="477" y="487" type="line"/>
      <point x="1103" y="487" type="line"/>
      <point x="1324" y="0" type="line"/>
      <point x="1516" y="0" type="line"/>
      <point x="1520" y="2" type="line"/>
      <point x="847" y="1515" type="line"/>
      <point x="699" y="1515" type="line"/>
    </contour>
    <contour>
      <point x="651" y="1668" type="curve" smooth="yes"/>
      <point x="655" y="1668"/>
      <point x="666" y="1674"/>
      <point x="676" y="1689" type="curve"/>
      <point x="905" y="1980" type="line" smooth="yes"/>
      <point x="929" y="2011"/>
      <point x="940" y="2041"/>
      <point x="940" y="2065" type="curve" smooth="yes"/>
      <point x="940" y="2118"/>
      <point x="892" y="2152"/>
      <point x="846" y="2152" type="curve" smooth="yes"/>
      <point x="805" y="2152"/>
      <point x="763" y="2128"/>
      <point x="744" y="2065" type="curve"/>
      <point x="644" y="1703" type="line" smooth="yes"/>
      <point x="642" y="1696"/>
      <point x="641" y="1688"/>
      <point x="641" y="1683" type="curve" smooth="yes"/>
      <point x="641" y="1674"/>
      <point x="644" y="1668"/>
    </contour>
    <contour>
      <point x="552" y="662" type="line"/>
      <point x="778" y="1266" type="line"/>
      <point x="1024" y="662" type="line"/>
    </contour>
  </outline>
</glyph>
<glyph name="Atilde" format="1">
  <advance width="1583"/>
  <unicode hex="00C3"/>
  <outline>
    <contour>
      <point x="912" y="1668" type="curve" smooth="yes"/>
      <point x="1016" y="1668"/>
      <point x="1087" y="1726"/>
      <point x="1148" y="1813" type="curve"/>
      <point x="1151" y="1821"/>
      <point x="1152" y="1824"/>
      <point x="1152" y="1828" type="curve" smooth="yes"/>
      <point x="1152" y="1837"/>
      <point x="1148" y="1841"/>
      <point x="1139" y="1841" type="curve" smooth="yes"/>
      <point x="1122" y="1841"/>
      <point x="1088" y="1796"/>
      <point x="1028" y="1796" type="curve" smooth="yes"/>
      <point x="941" y="1796"/>
      <point x="778" y="1884"/>
      <point x="649" y="1884" type="curve" smooth="yes"/>
      <point x="552" y="1884"/>
      <point x="490" y="1826"/>
      <point x="436" y="1739" type="curve"/>
      <point x="431" y="1733"/>
      <point x="430" y="1729"/>
      <point x="430" y="1724" type="curve" smooth="yes"/>
      <point x="430" y="1717"/>
      <point x="436" y="1711"/>
      <point x="445" y="1711" type="curve" smooth="yes"/>
      <point x="461" y="1711"/>
      <point x="497" y="1756"/>
      <point x="553" y="1756" type="curve" smooth="yes"/>
      <point x="671" y="1756"/>
      <point x="817" y="1668"/>
    </contour>
    <contour>
      <point x="62" y="0" type="line"/>
      <point x="268" y="0" type="line"/>
      <point x="477" y="488" type="line"/>
      <point x="1103" y="488" type="line"/>
      <point x="1324" y="0" type="line"/>
      <point x="1516" y="0" type="line"/>
      <point x="1520" y="3" type="line"/>
      <point x="847" y="1515" type="line"/>
      <point x="699" y="1515" type="line"/>
    </contour>
    <contour>
      <point x="552" y="662" type="line"/>
      <point x="778" y="1266" type="line"/>
      <point x="1024" y="662" type="line"/>
    </contour>
  </outline>
</glyph>
<glyph name="Adieresis" format="1">
  <advance width="1583"/>
  <unicode hex="00C4"/>
  <outline>
    <contour>
      <point x="62" y="0" type="line"/>
      <point x="268" y="0" type="line"/>
      <point x="477" y="487" type="line"/>
      <point x="1103" y="487" type="line"/>
      <point x="1324" y="0" type="line"/>
      <point x="1516" y="0" type="line"/>
      <point x="1520" y="2" type="line"/>
      <point x="847" y="1516" type="line"/>
      <point x="699" y="1516" type="line"/>
    </contour>
    <contour>
      <point x="595" y="1667" type="curve" smooth="yes"/>
      <point x="655" y="1667"/>
      <point x="717" y="1705"/>
      <point x="717" y="1781" type="curve" smooth="yes"/>
      <point x="717" y="1859"/>
      <point x="655" y="1901"/>
      <point x="595" y="1901" type="curve" smooth="yes"/>
      <point x="535" y="1901"/>
      <point x="475" y="1859"/>
      <point x="475" y="1781" type="curve" smooth="yes"/>
      <point x="475" y="1706"/>
      <point x="535" y="1667"/>
    </contour>
    <contour>
      <point x="985" y="1667" type="curve" smooth="yes"/>
      <point x="1046" y="1667"/>
      <point x="1106" y="1705"/>
      <point x="1106" y="1781" type="curve" smooth="yes"/>
      <point x="1106" y="1859"/>
      <point x="1046" y="1901"/>
      <point x="985" y="1901" type="curve" smooth="yes"/>
      <point x="926" y="1901"/>
      <point x="863" y="1859"/>
      <point x="863" y="1781" type="curve" smooth="yes"/>
      <point x="863" y="1706"/>
      <point x="926" y="1667"/>
    </contour>
    <contour>
      <point x="552" y="661" type="line"/>
      <point x="778" y="1265" type="line"/>
      <point x="1024" y="661" type="line"/>
    </contour>
  </outline>
</glyph>
<glyph name="Aring" format="1">
  <advance width="1583"/>
  <unicode hex="00C5"/>
  <outline>
    <contour>
      <point x="62" y="0" type="line"/>
      <point x="268" y="0" type="line"/>
      <point x="477" y="487" type="line"/>
      <point x="1103" y="487" type="line"/>
      <point x="1324" y="0" type="line"/>
      <point x="1516" y="0" type="line"/>
      <point x="1520" y="3" type="line"/>
      <point x="848" y="1513" type="line"/>
      <point x="943" y="1536"/>
      <point x="1021" y="1605"/>
      <point x="1021" y="1721" type="curve" smooth="yes"/>
      <point x="1021" y="1865"/>
      <point x="900" y="1938"/>
      <point x="776" y="1938" type="curve" smooth="yes"/>
      <point x="652" y="1938"/>
      <point x="529" y="1865"/>
      <point x="529" y="1723" type="curve" smooth="yes"/>
      <point x="529" y="1609"/>
      <point x="605" y="1539"/>
      <point x="698" y="1514" type="curve"/>
    </contour>
    <contour>
      <point x="776" y="1606" type="curve" smooth="yes"/>
      <point x="712" y="1606"/>
      <point x="645" y="1646"/>
      <point x="645" y="1721" type="curve" smooth="yes"/>
      <point x="645" y="1798"/>
      <point x="711" y="1836"/>
      <point x="775" y="1836" type="curve" smooth="yes"/>
      <point x="840" y="1836"/>
      <point x="902" y="1798"/>
      <point x="902" y="1721" type="curve" smooth="yes"/>
      <point x="902" y="1646"/>
      <point x="841" y="1606"/>
    </contour>
    <contour>
      <point x="552" y="662" type="line"/>
      <point x="778" y="1266" type="line"/>
      <point x="1024" y="662" type="line"/>
    </contour>
  </outline>
</glyph>
<glyph name="AE" format="1">
  <advance width="1702"/>
  <unicode hex="00C6"/>
  <outline>
    <contour>
      <point x="50" y="0" type="line"/>
      <point x="274" y="0" type="line"/>
      <point x="502" y="487" type="line"/>
      <point x="841" y="487" type="line"/>
      <point x="841" y="0" type="line"/>
      <point x="1612" y="0" type="line"/>
      <point x="1612" y="177" type="line"/>
      <point x="1039" y="177" type="line"/>
      <point x="1039" y="682" type="line"/>
      <point x="1585" y="682" type="line"/>
      <point x="1585" y="856" type="line"/>
      <point x="1039" y="856" type="line"/>
      <point x="1039" y="1339" type="line"/>
      <point x="1600" y="1339" type="line"/>
      <point x="1600" y="1516" type="line"/>
      <point x="758" y="1516" type="line"/>
    </contour>
    <contour>
      <point x="576" y="662" type="line"/>
      <point x="841" y="1265" type="line"/>
      <point x="841" y="662" type="line"/>
    </contour>
  </outline>
</glyph>
<glyph name="Eacute" format="1">
  <advance width="1099"/>
  <unicode hex="00C9"/>
  <outline>
    <contour>
      <point x="133" y="0" type="line"/>
      <point x="1009" y="0" type="line"/>
      <point x="1009" y="176" type="line"/>
      <point x="331" y="176" type="line"/>
      <point x="331" y="680" type="line"/>
      <point x="981" y="680" type="line"/>
      <point x="981" y="856" type="line"/>
      <point x="331" y="856" type="line"/>
      <point x="331" y="1339" type="line"/>
      <point x="995" y="1339" type="line"/>
      <point x="995" y="1515" type="line"/>
      <point x="133" y="1515" type="line"/>
    </contour>
    <contour>
      <point x="423" y="1668" type="curve" smooth="yes"/>
      <point x="430" y="1668"/>
      <point x="440" y="1674"/>
      <point x="449" y="1689" type="curve"/>
      <point x="679" y="1980" type="line" smooth="yes"/>
      <point x="704" y="2011"/>
      <point x="713" y="2041"/>
      <point x="713" y="2065" type="curve" smooth="yes"/>
      <point x="713" y="2118"/>
      <point x="667" y="2152"/>
      <point x="620" y="2152" type="curve" smooth="yes"/>
      <point x="576" y="2152"/>
      <point x="537" y="2128"/>
      <point x="517" y="2065" type="curve"/>
      <point x="419" y="1703" type="line" smooth="yes"/>
      <point x="417" y="1696"/>
      <point x="416" y="1688"/>
      <point x="416" y="1683" type="curve" smooth="yes"/>
      <point x="416" y="1674"/>
      <point x="419" y="1668"/>
    </contour>
  </outline>
</glyph>
<glyph name="Ecircumflex" format="1">
  <advance width="1099"/>
  <unicode hex="00CA"/>
  <outline>
    <contour>
      <point x="133" y="0" type="line"/>
      <point x="1009" y="0" type="line"/>
      <point x="1009" y="177" type="line"/>
      <point x="331" y="177" type="line"/>
      <point x="331" y="682" type="line"/>
      <point x="981" y="682" type="line"/>
      <point x="981" y="856" type="line"/>
      <point x="331" y="856" type="line"/>
      <point x="331" y="1339" type="line"/>
      <point x="995" y="1339" type="line"/>
      <point x="995" y="1516" type="line"/>
      <point x="133" y="1516" type="line"/>
    </contour>
    <contour>
      <point x="255" y="1669" type="curve"/>
      <point x="256" y="1669"/>
      <point x="256" y="1669"/>
      <point x="257" y="1670" type="curve" smooth="yes"/>
      <point x="565" y="1876" type="line"/>
      <point x="871" y="1670" type="line" smooth="yes"/>
      <point x="872" y="1669"/>
      <point x="873" y="1669"/>
      <point x="874" y="1669" type="curve" smooth="yes"/>
      <point x="875" y="1669"/>
      <point x="877" y="1670"/>
      <point x="877" y="1671" type="curve"/>
      <point x="877" y="1674" type="line"/>
      <point x="603" y="2081" type="line" smooth="yes"/>
      <point x="597" y="2089"/>
      <point x="576" y="2096"/>
      <point x="565" y="2096" type="curve" smooth="yes"/>
      <point x="548" y="2096"/>
      <point x="532" y="2089"/>
      <point x="526" y="2081" type="curve" smooth="yes"/>
      <point x="252" y="1674" type="line"/>
      <point x="248" y="1674"/>
      <point x="248" y="1672"/>
      <point x="248" y="1671" type="curve" smooth="yes"/>
      <point x="248" y="1670"/>
      <point x="253" y="1669"/>
    </contour>
  </outline>
</glyph>
<glyph name="Iacute" format="1">
  <advance width="445"/>
  <unicode hex="00CD"/>
  <outline>
    <contour>
      <point x="83" y="1668" type="curve" smooth="yes"/>
      <point x="87" y="1668"/>
      <point x="99" y="1674"/>
      <point x="108" y="1689" type="curve"/>
      <point x="337" y="1980" type="line" smooth="yes"/>
      <point x="361" y="2011"/>
      <point x="372" y="2041"/>
      <point x="372" y="2065" type="curve" smooth="yes"/>
      <point x="372" y="2118"/>
      <point x="324" y="2152"/>
      <point x="278" y="2152" type="curve" smooth="yes"/>
      <point x="236" y="2152"/>
      <point x="195" y="2128"/>
      <point x="176" y="2065" type="curve"/>
      <point x="76" y="1703" type="line" smooth="yes"/>
      <point x="74" y="1696"/>
      <point x="73" y="1688"/>
      <point x="73" y="1683" type="curve" smooth="yes"/>
      <point x="73" y="1674"/>
      <point x="76" y="1668"/>
    </contour>
    <contour>
      <point x="123" y="0" type="line"/>
      <point x="322" y="0" type="line"/>
      <point x="322" y="1515" type="line"/>
      <point x="123" y="1515" type="line"/>
    </contour>
  </outline>
</glyph>
<glyph name="Icircumflex" format="1">
  <advance width="445"/>
  <unicode hex="00CE"/>
  <outline>
    <contour>
      <point x="-87" y="1669" type="curve"/>
      <point x="-86" y="1669"/>
      <point x="-86" y="1669"/>
      <point x="-83" y="1670" type="curve"/>
      <point x="223" y="1876" type="line"/>
      <point x="530" y="1670" type="line"/>
      <point x="533" y="1669"/>
      <point x="534" y="1669"/>
      <point x="535" y="1669" type="curve" smooth="yes"/>
      <point x="536" y="1669"/>
      <point x="537" y="1670"/>
      <point x="537" y="1671" type="curve"/>
      <point x="537" y="1674" type="line"/>
      <point x="263" y="2081" type="line"/>
      <point x="256" y="2089"/>
      <point x="237" y="2096"/>
      <point x="223" y="2096" type="curve" smooth="yes"/>
      <point x="208" y="2096"/>
      <point x="193" y="2089"/>
      <point x="185" y="2081" type="curve"/>
      <point x="-90" y="1674" type="line"/>
      <point x="-91" y="1674"/>
      <point x="-91" y="1672"/>
      <point x="-91" y="1671" type="curve" smooth="yes"/>
      <point x="-91" y="1670"/>
      <point x="-89" y="1669"/>
    </contour>
    <contour>
      <point x="123" y="0" type="line"/>
      <point x="322" y="0" type="line"/>
      <point x="322" y="1516" type="line"/>
      <point x="123" y="1516" type="line"/>
    </contour>
  </outline>
</glyph>
<glyph name="Idieresis" format="1">
  <advance width="445"/>
  <unicode hex="00CF"/>
  <outline>
    <contour>
      <point x="27" y="1667" type="curve" smooth="yes"/>
      <point x="87" y="1667"/>
      <point x="149" y="1705"/>
      <point x="149" y="1781" type="curve" smooth="yes"/>
      <point x="149" y="1859"/>
      <point x="87" y="1901"/>
      <point x="27" y="1901" type="curve" smooth="yes"/>
      <point x="-33" y="1901"/>
      <point x="-93" y="1859"/>
      <point x="-93" y="1781" type="curve" smooth="yes"/>
      <point x="-93" y="1706"/>
      <point x="-33" y="1667"/>
    </contour>
    <contour>
      <point x="123" y="0" type="line"/>
      <point x="322" y="0" type="line"/>
      <point x="322" y="1516" type="line"/>
      <point x="123" y="1516" type="line"/>
    </contour>
    <contour>
      <point x="418" y="1667" type="curve" smooth="yes"/>
      <point x="478" y="1667"/>
      <point x="538" y="1705"/>
      <point x="538" y="1781" type="curve" smooth="yes"/>
      <point x="538" y="1859"/>
      <point x="478" y="1901"/>
      <point x="418" y="1901" type="curve" smooth="yes"/>
      <point x="357" y="1901"/>
      <point x="296" y="1859"/>
      <point x="296" y="1781" type="curve" smooth="yes"/>
      <point x="296" y="1706"/>
      <point x="357" y="1667"/>
    </contour>
  </outline>
</glyph>
<glyph name="Eth" format="1">
  <advance width="1621"/>
  <unicode hex="00D0"/>
  <outline>
    <contour>
      <point x="353" y="181" type="line"/>
      <point x="353" y="708" type="line"/>
      <point x="573" y="708" type="line"/>
      <point x="573" y="861" type="line"/>
      <point x="353" y="861" type="line"/>
      <point x="353" y="1337" type="line"/>
      <point x="742" y="1337" type="line" smooth="yes"/>
      <point x="1050" y="1337"/>
      <point x="1294" y="1199"/>
      <point x="1294" y="763" type="curve" smooth="yes"/>
      <point x="1294" y="377"/>
      <point x="1049" y="181"/>
      <point x="692" y="181" type="curve" smooth="yes"/>
    </contour>
    <contour>
      <point x="133" y="0" type="line"/>
      <point x="736" y="0" type="line" smooth="yes"/>
      <point x="1238" y="0"/>
      <point x="1514" y="358"/>
      <point x="1514" y="767" type="curve" smooth="yes"/>
      <point x="1514" y="1211"/>
      <point x="1256" y="1520"/>
      <point x="772" y="1520" type="curve" smooth="yes"/>
      <point x="133" y="1520" type="line"/>
      <point x="133" y="861" type="line"/>
      <point x="40" y="861" type="line"/>
      <point x="40" y="708" type="line"/>
      <point x="133" y="708" type="line"/>
    </contour>
  </outline>
</glyph>
<glyph name="Ntilde" format="1">
  <advance width="1654"/>
  <unicode hex="00D1"/>
  <outline>
    <contour>
      <point x="131" y="0" type="line"/>
      <point x="319" y="0" type="line"/>
      <point x="319" y="1193" type="line"/>
      <point x="1353" y="0" type="line"/>
      <point x="1523" y="0" type="line"/>
      <point x="1523" y="1515" type="line"/>
      <point x="1331" y="1515" type="line"/>
      <point x="1331" y="311" type="line"/>
      <point x="290" y="1515" type="line"/>
      <point x="131" y="1515" type="line"/>
    </contour>
    <contour>
      <point x="948" y="1668" type="curve" smooth="yes"/>
      <point x="1051" y="1668"/>
      <point x="1123" y="1726"/>
      <point x="1183" y="1813" type="curve"/>
      <point x="1186" y="1821"/>
      <point x="1187" y="1824"/>
      <point x="1187" y="1828" type="curve" smooth="yes"/>
      <point x="1187" y="1837"/>
      <point x="1183" y="1841"/>
      <point x="1175" y="1841" type="curve" smooth="yes"/>
      <point x="1157" y="1841"/>
      <point x="1124" y="1796"/>
      <point x="1064" y="1796" type="curve" smooth="yes"/>
      <point x="977" y="1796"/>
      <point x="814" y="1884"/>
      <point x="684" y="1884" type="curve" smooth="yes"/>
      <point x="587" y="1884"/>
      <point x="526" y="1826"/>
      <point x="472" y="1739" type="curve"/>
      <point x="466" y="1733"/>
      <point x="465" y="1729"/>
      <point x="465" y="1724" type="curve" smooth="yes"/>
      <point x="465" y="1717"/>
      <point x="472" y="1711"/>
      <point x="480" y="1711" type="curve" smooth="yes"/>
      <point x="497" y="1711"/>
      <point x="531" y="1756"/>
      <point x="589" y="1756" type="curve" smooth="yes"/>
      <point x="706" y="1756"/>
      <point x="852" y="1668"/>
    </contour>
  </outline>
</glyph>
<glyph name="Ograve" format="1">
  <advance width="1822"/>
  <unicode hex="00D2"/>
  <outline>
    <contour>
      <point x="1041" y="1667" type="curve" smooth="yes"/>
      <point x="1046" y="1667"/>
      <point x="1049" y="1672"/>
      <point x="1049" y="1681" type="curve" smooth="yes"/>
      <point x="1049" y="1685"/>
      <point x="1049" y="1693"/>
      <point x="1047" y="1701" type="curve" smooth="yes"/>
      <point x="959" y="2078" type="line"/>
      <point x="938" y="2140"/>
      <point x="898" y="2164"/>
      <point x="859" y="2164" type="curve" smooth="yes"/>
      <point x="811" y="2164"/>
      <point x="763" y="2127"/>
      <point x="763" y="2074" type="curve" smooth="yes"/>
      <point x="763" y="2049"/>
      <point x="773" y="2022"/>
      <point x="796" y="1994" type="curve"/>
      <point x="1014" y="1685" type="line" smooth="yes"/>
      <point x="1023" y="1672"/>
      <point x="1034" y="1667"/>
    </contour>
    <contour>
      <point x="909" y="162" type="curve" smooth="yes"/>
      <point x="583" y="162"/>
      <point x="316" y="429"/>
      <point x="316" y="758" type="curve" smooth="yes"/>
      <point x="316" y="1087"/>
      <point x="583" y="1355"/>
      <point x="909" y="1355" type="curve" smooth="yes"/>
      <point x="1236" y="1355"/>
      <point x="1504" y="1087"/>
      <point x="1504" y="758" type="curve" smooth="yes"/>
      <point x="1504" y="429"/>
      <point x="1236" y="162"/>
    </contour>
    <contour>
      <point x="909" y="-21" type="curve" smooth="yes"/>
      <point x="1349" y="-21"/>
      <point x="1711" y="330"/>
      <point x="1711" y="758" type="curve" smooth="yes"/>
      <point x="1711" y="1187"/>
      <point x="1349" y="1535"/>
      <point x="909" y="1535" type="curve" smooth="yes"/>
      <point x="469" y="1535"/>
      <point x="109" y="1187"/>
      <point x="109" y="758" type="curve" smooth="yes"/>
      <point x="109" y="330"/>
      <point x="469" y="-21"/>
    </contour>
  </outline>
</glyph>
<glyph name="Ocircumflex" format="1">
  <advance width="1822"/>
  <unicode hex="00D4"/>
  <outline>
    <contour>
      <point x="598" y="1667" type="curve"/>
      <point x="599" y="1667"/>
      <point x="599" y="1667"/>
      <point x="600" y="1669" type="curve"/>
      <point x="908" y="1874" type="line"/>
      <point x="1214" y="1669" type="line" smooth="yes"/>
      <point x="1216" y="1667"/>
      <point x="1218" y="1667"/>
      <point x="1220" y="1667" type="curve" smooth="yes"/>
      <point x="1221" y="1667"/>
      <point x="1222" y="1669"/>
      <point x="1222" y="1671" type="curve" smooth="yes"/>
      <point x="1222" y="1673" type="line"/>
      <point x="949" y="2080" type="line"/>
      <point x="940" y="2088"/>
      <point x="923" y="2096"/>
      <point x="908" y="2096" type="curve" smooth="yes"/>
      <point x="894" y="2096"/>
      <point x="877" y="2088"/>
      <point x="870" y="2080" type="curve"/>
      <point x="595" y="1673" type="line"/>
      <point x="594" y="1673"/>
      <point x="594" y="1672"/>
      <point x="594" y="1671" type="curve" smooth="yes"/>
      <point x="594" y="1669"/>
      <point x="596" y="1667"/>
    </contour>
    <contour>
      <point x="909" y="161" type="curve" smooth="yes"/>
      <point x="583" y="161"/>
      <point x="316" y="430"/>
      <point x="316" y="759" type="curve" smooth="yes"/>
      <point x="316" y="1088"/>
      <point x="583" y="1356"/>
      <point x="909" y="1356" type="curve" smooth="yes"/>
      <point x="1236" y="1356"/>
      <point x="1504" y="1088"/>
      <point x="1504" y="759" type="curve" smooth="yes"/>
      <point x="1504" y="430"/>
      <point x="1236" y="161"/>
    </contour>
    <contour>
      <point x="909" y="-19" type="curve" smooth="yes"/>
      <point x="1349" y="-19"/>
      <point x="1711" y="330"/>
      <point x="1711" y="759" type="curve" smooth="yes"/>
      <point x="1711" y="1187"/>
      <point x="1349" y="1536"/>
      <point x="909" y="1536" type="curve" smooth="yes"/>
      <point x="469" y="1536"/>
      <point x="109" y="1187"/>
      <point x="109" y="759" type="curve" smooth="yes"/>
      <point x="109" y="330"/>
      <point x="469" y="-19"/>
    </contour>
  </outline>
</glyph>
<glyph name="Odieresis" format="1">
  <advance width="1822"/>
  <unicode hex="00D6"/>
  <outline>
    <contour>
      <point x="712" y="1667" type="curve" smooth="yes"/>
      <point x="772" y="1667"/>
      <point x="834" y="1703"/>
      <point x="834" y="1781" type="curve" smooth="yes"/>
      <point x="834" y="1858"/>
      <point x="772" y="1901"/>
      <point x="712" y="1901" type="curve" smooth="yes"/>
      <point x="651" y="1901"/>
      <point x="592" y="1858"/>
      <point x="592" y="1781" type="curve" smooth="yes"/>
      <point x="592" y="1704"/>
      <point x="651" y="1667"/>
    </contour>
    <contour>
      <point x="909" y="161" type="curve" smooth="yes"/>
      <point x="583" y="161"/>
      <point x="316" y="429"/>
      <point x="316" y="758" type="curve" smooth="yes"/>
      <point x="316" y="1087"/>
      <point x="583" y="1355"/>
      <point x="909" y="1355" type="curve" smooth="yes"/>
      <point x="1236" y="1355"/>
      <point x="1504" y="1087"/>
      <point x="1504" y="758" type="curve" smooth="yes"/>
      <point x="1504" y="429"/>
      <point x="1236" y="161"/>
    </contour>
    <contour>
      <point x="909" y="-20" type="curve" smooth="yes"/>
      <point x="1349" y="-20"/>
      <point x="1711" y="330"/>
      <point x="1711" y="758" type="curve" smooth="yes"/>
      <point x="1711" y="1187"/>
      <point x="1349" y="1535"/>
      <point x="909" y="1535" type="curve" smooth="yes"/>
      <point x="469" y="1535"/>
      <point x="109" y="1187"/>
      <point x="109" y="758" type="curve" smooth="yes"/>
      <point x="109" y="330"/>
      <point x="469" y="-20"/>
    </contour>
    <contour>
      <point x="1102" y="1667" type="curve" smooth="yes"/>
      <point x="1162" y="1667"/>
      <point x="1224" y="1703"/>
      <point x="1224" y="1781" type="curve" smooth="yes"/>
      <point x="1224" y="1858"/>
      <point x="1162" y="1901"/>
      <point x="1102" y="1901" type="curve" smooth="yes"/>
      <point x="1043" y="1901"/>
      <point x="981" y="1858"/>
      <point x="981" y="1781" type="curve" smooth="yes"/>
      <point x="981" y="1704"/>
      <point x="1043" y="1667"/>
    </contour>
  </outline>
</glyph>
<glyph name="Oslash" format="1">
  <advance width="1815"/>
  <unicode hex="00D8"/>
  <outline>
    <contour>
      <point x="405" y="-175" type="line"/>
      <point x="554" y="62" type="line"/>
      <point x="661" y="10"/>
      <point x="783" y="-19"/>
      <point x="910" y="-19" type="curve" smooth="yes"/>
      <point x="1350" y="-19"/>
      <point x="1712" y="329"/>
      <point x="1712" y="759" type="curve" smooth="yes"/>
      <point x="1712" y="1014"/>
      <point x="1582" y="1242"/>
      <point x="1384" y="1384" type="curve"/>
      <point x="1525" y="1609" type="line"/>
      <point x="1427" y="1672" type="line"/>
      <point x="1283" y="1445" type="line"/>
      <point x="1172" y="1503"/>
      <point x="1044" y="1536"/>
      <point x="909" y="1536" type="curve" smooth="yes"/>
      <point x="469" y="1536"/>
      <point x="109" y="1186"/>
      <point x="109" y="759" type="curve" smooth="yes"/>
      <point x="109" y="495"/>
      <point x="244" y="262"/>
      <point x="450" y="121" type="curve"/>
      <point x="303" y="-113" type="line"/>
    </contour>
    <contour>
      <point x="552" y="281" type="line"/>
      <point x="409" y="391"/>
      <point x="317" y="564"/>
      <point x="317" y="758" type="curve" smooth="yes"/>
      <point x="317" y="1087"/>
      <point x="583" y="1354"/>
      <point x="909" y="1354" type="curve" smooth="yes"/>
      <point x="1008" y="1354"/>
      <point x="1101" y="1329"/>
      <point x="1184" y="1286" type="curve"/>
    </contour>
    <contour>
      <point x="909" y="159" type="curve" smooth="yes"/>
      <point x="817" y="159"/>
      <point x="730" y="180"/>
      <point x="652" y="218" type="curve"/>
      <point x="1282" y="1221" type="line"/>
      <point x="1417" y="1112"/>
      <point x="1503" y="945"/>
      <point x="1503" y="758" type="curve" smooth="yes"/>
      <point x="1503" y="429"/>
      <point x="1236" y="159"/>
    </contour>
  </outline>
</glyph>
<glyph name="Ugrave" format="1">
  <advance width="1541"/>
  <unicode hex="00D9"/>
  <outline>
    <contour>
      <point x="771" y="-21" type="curve" smooth="yes"/>
      <point x="1087" y="-21"/>
      <point x="1406" y="180"/>
      <point x="1406" y="586" type="curve" smooth="yes"/>
      <point x="1406" y="1514" type="line"/>
      <point x="1207" y="1514" type="line"/>
      <point x="1207" y="592" type="line" smooth="yes"/>
      <point x="1207" y="299"/>
      <point x="988" y="153"/>
      <point x="768" y="153" type="curve" smooth="yes"/>
      <point x="548" y="153"/>
      <point x="333" y="299"/>
      <point x="333" y="592" type="curve" smooth="yes"/>
      <point x="333" y="1514" type="line"/>
      <point x="134" y="1514" type="line"/>
      <point x="134" y="584" type="line" smooth="yes"/>
      <point x="134" y="180"/>
      <point x="454" y="-21"/>
    </contour>
    <contour>
      <point x="904" y="1667" type="curve" smooth="yes"/>
      <point x="908" y="1667"/>
      <point x="912" y="1672"/>
      <point x="912" y="1681" type="curve" smooth="yes"/>
      <point x="912" y="1685"/>
      <point x="912" y="1693"/>
      <point x="909" y="1701" type="curve"/>
      <point x="821" y="2078" type="line"/>
      <point x="800" y="2140"/>
      <point x="760" y="2164"/>
      <point x="723" y="2164" type="curve" smooth="yes"/>
      <point x="674" y="2164"/>
      <point x="627" y="2127"/>
      <point x="627" y="2074" type="curve" smooth="yes"/>
      <point x="627" y="2049"/>
      <point x="635" y="2022"/>
      <point x="659" y="1994" type="curve"/>
      <point x="877" y="1685" type="line" smooth="yes"/>
      <point x="886" y="1672"/>
      <point x="897" y="1667"/>
    </contour>
  </outline>
</glyph>
<glyph name="Udieresis" format="1">
  <advance width="1541"/>
  <unicode hex="00DC"/>
  <outline>
    <contour>
      <point x="771" y="-20" type="curve" smooth="yes"/>
      <point x="1087" y="-20"/>
      <point x="1406" y="181"/>
      <point x="1406" y="586" type="curve" smooth="yes"/>
      <point x="1406" y="1514" type="line"/>
      <point x="1207" y="1514" type="line"/>
      <point x="1207" y="590" type="line" smooth="yes"/>
      <point x="1207" y="299"/>
      <point x="988" y="153"/>
      <point x="768" y="153" type="curve" smooth="yes"/>
      <point x="548" y="153"/>
      <point x="333" y="299"/>
      <point x="333" y="590" type="curve" smooth="yes"/>
      <point x="333" y="1514" type="line"/>
      <point x="134" y="1514" type="line"/>
      <point x="134" y="585" type="line" smooth="yes"/>
      <point x="134" y="181"/>
      <point x="454" y="-20"/>
    </contour>
    <contour>
      <point x="574" y="1667" type="curve" smooth="yes"/>
      <point x="634" y="1667"/>
      <point x="697" y="1703"/>
      <point x="697" y="1781" type="curve" smooth="yes"/>
      <point x="697" y="1858"/>
      <point x="634" y="1901"/>
      <point x="574" y="1901" type="curve" smooth="yes"/>
      <point x="514" y="1901"/>
      <point x="454" y="1858"/>
      <point x="454" y="1781" type="curve" smooth="yes"/>
      <point x="454" y="1704"/>
      <point x="514" y="1667"/>
    </contour>
    <contour>
      <point x="965" y="1667" type="curve" smooth="yes"/>
      <point x="1025" y="1667"/>
      <point x="1085" y="1703"/>
      <point x="1085" y="1781" type="curve" smooth="yes"/>
      <point x="1085" y="1858"/>
      <point x="1025" y="1901"/>
      <point x="965" y="1901" type="curve" smooth="yes"/>
      <point x="905" y="1901"/>
      <point x="843" y="1858"/>
      <point x="843" y="1781" type="curve" smooth="yes"/>
      <point x="843" y="1704"/>
      <point x="905" y="1667"/>
    </contour>
  </outline>
</glyph>
<glyph name="Yacute" format="1">
  <advance width="1312"/>
  <unicode hex="00DD"/>
  <outline>
    <contour>
      <point x="548" y="0" type="line"/>
      <point x="764" y="0" type="line"/>
      <point x="764" y="798" type="line"/>
      <point x="1305" y="1515" type="line"/>
      <point x="1076" y="1515" type="line"/>
      <point x="653" y="956" type="line"/>
      <point x="248" y="1515" type="line"/>
      <point x="3" y="1515" type="line"/>
      <point x="548" y="805" type="line"/>
    </contour>
    <contour>
      <point x="514" y="1668" type="curve" smooth="yes"/>
      <point x="518" y="1668"/>
      <point x="530" y="1674"/>
      <point x="539" y="1689" type="curve"/>
      <point x="768" y="1980" type="line" smooth="yes"/>
      <point x="792" y="2011"/>
      <point x="803" y="2041"/>
      <point x="803" y="2065" type="curve" smooth="yes"/>
      <point x="803" y="2118"/>
      <point x="756" y="2152"/>
      <point x="709" y="2152" type="curve" smooth="yes"/>
      <point x="667" y="2152"/>
      <point x="626" y="2128"/>
      <point x="607" y="2065" type="curve"/>
      <point x="507" y="1703" type="line" smooth="yes"/>
      <point x="505" y="1696"/>
      <point x="504" y="1688"/>
      <point x="504" y="1683" type="curve" smooth="yes"/>
      <point x="504" y="1674"/>
      <point x="507" y="1668"/>
    </contour>
  </outline>
</glyph>
<glyph name="Thorn" format="1">
  <advance width="1077"/>
  <unicode hex="00DE"/>
  <outline>
    <contour>
      <point x="318" y="1257" type="line"/>
      <point x="467" y="1257" type="line" smooth="yes"/>
      <point x="761" y="1257"/>
      <point x="990" y="1138"/>
      <point x="990" y="850" type="curve" smooth="yes"/>
      <point x="990" y="593"/>
      <point x="825" y="409"/>
      <point x="416" y="409" type="curve" smooth="yes"/>
      <point x="317" y="409" type="line"/>
      <point x="317" y="0" type="line"/>
      <point x="104" y="0" type="line"/>
      <point x="104" y="1553" type="line"/>
      <point x="318" y="1553" type="line"/>
    </contour>
    <contour>
      <point x="771" y="838" type="curve" smooth="yes"/>
      <point x="771" y="962"/>
      <point x="723" y="1084"/>
      <point x="446" y="1084" type="curve" smooth="yes"/>
      <point x="319" y="1084" type="line"/>
      <point x="319" y="586" type="line"/>
      <point x="569" y="586"/>
      <point x="771" y="607"/>
    </contour>
  </outline>
</glyph>
<glyph name="germandbls" format="1">
  <advance width="1234"/>
  <unicode hex="00DF"/>
  <outline>
    <contour>
      <point x="132" y="-3" type="line"/>
      <point x="328" y="-3" type="line"/>
      <point x="328" y="1079" type="line" smooth="yes"/>
      <point x="328" y="1278"/>
      <point x="446" y="1358"/>
      <point x="568" y="1358" type="curve" smooth="yes"/>
      <point x="763" y="1358"/>
      <point x="851" y="1229"/>
      <point x="851" y="1101" type="curve" smooth="yes"/>
      <point x="851" y="978"/>
      <point x="771" y="858"/>
      <point x="621" y="858" type="curve"/>
      <point x="559" y="861" type="line"/>
      <point x="559" y="705" type="line"/>
      <point x="653" y="705" type="line" smooth="yes"/>
      <point x="844" y="705"/>
      <point x="913" y="547"/>
      <point x="913" y="428" type="curve" smooth="yes"/>
      <point x="913" y="174"/>
      <point x="681" y="173"/>
      <point x="487" y="173" type="curve"/>
      <point x="487" y="0" type="line"/>
      <point x="901" y="0"/>
      <point x="1121" y="105"/>
      <point x="1121" y="428" type="curve" smooth="yes"/>
      <point x="1121" y="495"/>
      <point x="1091" y="736"/>
      <point x="824" y="813" type="curve"/>
      <point x="824" y="818" type="line"/>
      <point x="967" y="886"/>
      <point x="1032" y="1001"/>
      <point x="1032" y="1119" type="curve" smooth="yes"/>
      <point x="1032" y="1315"/>
      <point x="854" y="1518"/>
      <point x="563" y="1518" type="curve" smooth="yes"/>
      <point x="342" y="1518"/>
      <point x="132" y="1387"/>
      <point x="132" y="1080" type="curve" smooth="yes"/>
    </contour>
  </outline>
</glyph>
<glyph name="ae" format="1">
  <advance width="1584"/>
  <unicode hex="00E6"/>
  <outline>
    <contour>
      <point x="368" y="-19" type="curve" smooth="yes"/>
      <point x="518" y="-19"/>
      <point x="691" y="101"/>
      <point x="737" y="186" type="curve"/>
      <point x="820" y="58"/>
      <point x="974" y="-17"/>
      <point x="1134" y="-17" type="curve" smooth="yes"/>
      <point x="1234" y="-17"/>
      <point x="1334" y="12"/>
      <point x="1421" y="73" type="curve"/>
      <point x="1421" y="230" type="line"/>
      <point x="1333" y="167"/>
      <point x="1234" y="134"/>
      <point x="1144" y="134" type="curve" smooth="yes"/>
      <point x="965" y="134"/>
      <point x="813" y="253"/>
      <point x="810" y="498" type="curve"/>
      <point x="1464" y="498" type="line"/>
      <point x="1464" y="525" type="line" smooth="yes"/>
      <point x="1464" y="805"/>
      <point x="1315" y="1017"/>
      <point x="1086" y="1017" type="curve" smooth="yes"/>
      <point x="941" y="1017"/>
      <point x="811" y="950"/>
      <point x="741" y="818" type="curve"/>
      <point x="705" y="951"/>
      <point x="557" y="1008"/>
      <point x="447" y="1008" type="curve" smooth="yes"/>
      <point x="300" y="1008"/>
      <point x="149" y="921"/>
      <point x="109" y="879" type="curve"/>
      <point x="162" y="727" type="line"/>
      <point x="234" y="792"/>
      <point x="334" y="843"/>
      <point x="450" y="843" type="curve" smooth="yes"/>
      <point x="566" y="843"/>
      <point x="626" y="757"/>
      <point x="626" y="628" type="curve" smooth="yes"/>
      <point x="626" y="615"/>
      <point x="625" y="574"/>
      <point x="625" y="570" type="curve"/>
      <point x="454" y="527" type="line" smooth="yes"/>
      <point x="191" y="461"/>
      <point x="90" y="342"/>
      <point x="90" y="232" type="curve" smooth="yes"/>
      <point x="90" y="48"/>
      <point x="215" y="-19"/>
    </contour>
    <contour>
      <point x="399" y="116" type="curve" smooth="yes"/>
      <point x="336" y="116"/>
      <point x="286" y="151"/>
      <point x="286" y="245" type="curve" smooth="yes"/>
      <point x="286" y="385"/>
      <point x="503" y="425"/>
      <point x="637" y="467" type="curve"/>
      <point x="648" y="401"/>
      <point x="660" y="337"/>
      <point x="682" y="277" type="curve"/>
      <point x="628" y="198"/>
      <point x="502" y="116"/>
    </contour>
    <contour>
      <point x="816" y="618" type="line"/>
      <point x="840" y="757"/>
      <point x="931" y="867"/>
      <point x="1086" y="867" type="curve" smooth="yes"/>
      <point x="1204" y="867"/>
      <point x="1294" y="762"/>
      <point x="1295" y="618" type="curve"/>
      <point x="1294" y="618" type="line"/>
    </contour>
  </outline>
</glyph>
<glyph name="igrave" format="1">
  <advance width="473"/>
  <unicode hex="00EC"/>
  <outline>
    <contour>
      <point x="394" y="1149" type="curve" smooth="yes"/>
      <point x="399" y="1149"/>
      <point x="404" y="1153"/>
      <point x="404" y="1163" type="curve" smooth="yes"/>
      <point x="404" y="1166"/>
      <point x="404" y="1175"/>
      <point x="400" y="1180" type="curve"/>
      <point x="312" y="1558" type="line"/>
      <point x="291" y="1621"/>
      <point x="252" y="1644"/>
      <point x="212" y="1644" type="curve" smooth="yes"/>
      <point x="163" y="1644"/>
      <point x="118" y="1608"/>
      <point x="118" y="1554" type="curve" smooth="yes"/>
      <point x="118" y="1530"/>
      <point x="125" y="1502"/>
      <point x="149" y="1473" type="curve"/>
      <point x="367" y="1166" type="line" smooth="yes"/>
      <point x="376" y="1153"/>
      <point x="387" y="1149"/>
    </contour>
    <contour>
      <point x="167" y="0" type="line"/>
      <point x="355" y="0" type="line"/>
      <point x="355" y="996" type="line"/>
      <point x="167" y="996" type="line"/>
    </contour>
  </outline>
</glyph>
<glyph name="iacute" format="1">
  <advance width="473"/>
  <unicode hex="00ED"/>
  <outline>
    <contour>
      <point x="119" y="1149" type="curve" smooth="yes"/>
      <point x="126" y="1149"/>
      <point x="135" y="1154"/>
      <point x="145" y="1168" type="curve" smooth="yes"/>
      <point x="376" y="1459" type="line"/>
      <point x="399" y="1492"/>
      <point x="409" y="1521"/>
      <point x="409" y="1545" type="curve" smooth="yes"/>
      <point x="409" y="1599"/>
      <point x="363" y="1631"/>
      <point x="315" y="1631" type="curve" smooth="yes"/>
      <point x="273" y="1631"/>
      <point x="232" y="1607"/>
      <point x="214" y="1545" type="curve"/>
      <point x="115" y="1182" type="line"/>
      <point x="113" y="1177"/>
      <point x="109" y="1167"/>
      <point x="109" y="1164" type="curve" smooth="yes"/>
      <point x="109" y="1154"/>
      <point x="115" y="1149"/>
    </contour>
    <contour>
      <point x="167" y="0" type="line"/>
      <point x="355" y="0" type="line"/>
      <point x="355" y="996" type="line"/>
      <point x="167" y="996" type="line"/>
    </contour>
  </outline>
</glyph>
<glyph name="icircumflex" format="1">
  <advance width="472"/>
  <unicode hex="00EE"/>
  <outline>
    <contour>
      <point x="-50" y="1149" type="curve"/>
      <point x="-48" y="1149"/>
      <point x="-48" y="1149"/>
      <point x="-45" y="1150" type="curve"/>
      <point x="260" y="1357" type="line"/>
      <point x="567" y="1150" type="line"/>
      <point x="570" y="1149"/>
      <point x="571" y="1149"/>
      <point x="572" y="1149" type="curve" smooth="yes"/>
      <point x="573" y="1149"/>
      <point x="574" y="1150"/>
      <point x="574" y="1151" type="curve"/>
      <point x="574" y="1156" type="line"/>
      <point x="301" y="1561" type="line"/>
      <point x="294" y="1570"/>
      <point x="275" y="1576"/>
      <point x="260" y="1576" type="curve" smooth="yes"/>
      <point x="246" y="1576"/>
      <point x="230" y="1570"/>
      <point x="222" y="1561" type="curve"/>
      <point x="-53" y="1156" type="line"/>
      <point x="-54" y="1156"/>
      <point x="-54" y="1152"/>
      <point x="-54" y="1151" type="curve" smooth="yes"/>
      <point x="-54" y="1150"/>
      <point x="-52" y="1149"/>
    </contour>
    <contour>
      <point x="167" y="0" type="line"/>
      <point x="353" y="0" type="line"/>
      <point x="353" y="999" type="line"/>
      <point x="167" y="999" type="line"/>
    </contour>
  </outline>
</glyph>
<glyph name="idieresis" format="1">
  <advance width="473"/>
  <unicode hex="00EF"/>
  <outline>
    <contour>
      <point x="65" y="1149" type="curve" smooth="yes"/>
      <point x="124" y="1149"/>
      <point x="187" y="1185"/>
      <point x="187" y="1261" type="curve" smooth="yes"/>
      <point x="187" y="1340"/>
      <point x="124" y="1381"/>
      <point x="65" y="1381" type="curve" smooth="yes"/>
      <point x="4" y="1381"/>
      <point x="-56" y="1340"/>
      <point x="-56" y="1261" type="curve" smooth="yes"/>
      <point x="-56" y="1186"/>
      <point x="4" y="1149"/>
    </contour>
    <contour>
      <point x="167" y="0" type="line"/>
      <point x="355" y="0" type="line"/>
      <point x="355" y="998" type="line"/>
      <point x="167" y="998" type="line"/>
    </contour>
    <contour>
      <point x="455" y="1149" type="curve" smooth="yes"/>
      <point x="515" y="1149"/>
      <point x="575" y="1185"/>
      <point x="575" y="1261" type="curve" smooth="yes"/>
      <point x="575" y="1340"/>
      <point x="515" y="1381"/>
      <point x="455" y="1381" type="curve" smooth="yes"/>
      <point x="395" y="1381"/>
      <point x="333" y="1340"/>
      <point x="333" y="1261" type="curve" smooth="yes"/>
      <point x="333" y="1186"/>
      <point x="395" y="1149"/>
    </contour>
  </outline>
</glyph>
<glyph name="eth" format="1">
  <advance width="1243"/>
  <unicode hex="00F0"/>
  <outline>
    <contour>
      <point x="607" y="-21" type="curve" smooth="yes"/>
      <point x="941" y="-21"/>
      <point x="1136" y="212"/>
      <point x="1136" y="491" type="curve" smooth="yes"/>
      <point x="1136" y="716"/>
      <point x="1034" y="842"/>
      <point x="808" y="1106" type="curve" smooth="yes"/>
      <point x="605" y="1342" type="line"/>
      <point x="763" y="1469" type="line"/>
      <point x="691" y="1552" type="line"/>
      <point x="534" y="1423" type="line"/>
      <point x="451" y="1519" type="line"/>
      <point x="252" y="1519" type="line"/>
      <point x="418" y="1325" type="line"/>
      <point x="210" y="1164" type="line"/>
      <point x="281" y="1082" type="line"/>
      <point x="487" y="1243" type="line"/>
      <point x="804" y="896" type="line"/>
      <point x="730" y="947"/>
      <point x="654" y="968"/>
      <point x="580" y="968" type="curve" smooth="yes"/>
      <point x="324" y="968"/>
      <point x="87" y="756"/>
      <point x="87" y="462" type="curve"/>
      <point x="86" y="462" type="line"/>
      <point x="86" y="219"/>
      <point x="261" y="-21"/>
    </contour>
    <contour>
      <point x="612" y="131" type="curve" smooth="yes"/>
      <point x="384" y="131"/>
      <point x="271" y="301"/>
      <point x="271" y="473" type="curve" smooth="yes"/>
      <point x="271" y="645"/>
      <point x="387" y="817"/>
      <point x="612" y="817" type="curve" smooth="yes"/>
      <point x="865" y="817"/>
      <point x="959" y="662"/>
      <point x="959" y="473" type="curve"/>
      <point x="958" y="473" type="line"/>
      <point x="958" y="288"/>
      <point x="834" y="131"/>
    </contour>
  </outline>
</glyph>
<glyph name="ntilde" format="1">
  <advance width="1052"/>
  <unicode hex="00F1"/>
  <outline>
    <contour>
      <point x="107" y="0" type="line"/>
      <point x="292" y="0" type="line"/>
      <point x="292" y="710" type="line"/>
      <point x="347" y="789"/>
      <point x="485" y="868"/>
      <point x="599" y="868" type="curve" smooth="yes"/>
      <point x="691" y="868"/>
      <point x="765" y="816"/>
      <point x="765" y="674" type="curve" smooth="yes"/>
      <point x="765" y="0" type="line"/>
      <point x="949" y="0" type="line"/>
      <point x="949" y="681" type="line" smooth="yes"/>
      <point x="949" y="879"/>
      <point x="820" y="1017"/>
      <point x="627" y="1017" type="curve" smooth="yes"/>
      <point x="569" y="1017"/>
      <point x="428" y="1007"/>
      <point x="288" y="854" type="curve"/>
      <point x="288" y="998" type="line"/>
      <point x="107" y="998" type="line"/>
    </contour>
    <contour>
      <point x="649" y="1149" type="curve" smooth="yes"/>
      <point x="752" y="1149"/>
      <point x="824" y="1207"/>
      <point x="884" y="1294" type="curve"/>
      <point x="887" y="1301"/>
      <point x="888" y="1304"/>
      <point x="888" y="1310" type="curve" smooth="yes"/>
      <point x="888" y="1318"/>
      <point x="884" y="1322"/>
      <point x="876" y="1322" type="curve" smooth="yes"/>
      <point x="858" y="1322"/>
      <point x="825" y="1276"/>
      <point x="765" y="1276" type="curve" smooth="yes"/>
      <point x="678" y="1276"/>
      <point x="515" y="1366"/>
      <point x="386" y="1366" type="curve" smooth="yes"/>
      <point x="288" y="1366"/>
      <point x="228" y="1307"/>
      <point x="173" y="1221" type="curve" smooth="yes"/>
      <point x="168" y="1214"/>
      <point x="167" y="1210"/>
      <point x="167" y="1205" type="curve" smooth="yes"/>
      <point x="167" y="1198"/>
      <point x="173" y="1192"/>
      <point x="181" y="1192" type="curve" smooth="yes"/>
      <point x="198" y="1192"/>
      <point x="232" y="1237"/>
      <point x="290" y="1237" type="curve" smooth="yes"/>
      <point x="407" y="1237"/>
      <point x="553" y="1149"/>
    </contour>
  </outline>
</glyph>
<glyph name="ocircumflex" format="1">
  <advance width="1242"/>
  <unicode hex="00F4"/>
  <outline>
    <contour>
      <point x="312" y="1149" type="curve"/>
      <point x="313" y="1149"/>
      <point x="313" y="1149"/>
      <point x="316" y="1150" type="curve"/>
      <point x="622" y="1355" type="line"/>
      <point x="929" y="1150" type="line"/>
      <point x="932" y="1149"/>
      <point x="933" y="1149"/>
      <point x="934" y="1149" type="curve" smooth="yes"/>
      <point x="935" y="1149"/>
      <point x="936" y="1150"/>
      <point x="936" y="1151" type="curve"/>
      <point x="936" y="1153" type="line"/>
      <point x="662" y="1560" type="line" smooth="yes"/>
      <point x="655" y="1570"/>
      <point x="636" y="1576"/>
      <point x="622" y="1576" type="curve" smooth="yes"/>
      <point x="608" y="1576"/>
      <point x="592" y="1570"/>
      <point x="583" y="1560" type="curve"/>
      <point x="309" y="1153" type="line"/>
      <point x="308" y="1153"/>
      <point x="308" y="1152"/>
      <point x="308" y="1151" type="curve" smooth="yes"/>
      <point x="308" y="1150"/>
      <point x="310" y="1149"/>
    </contour>
    <contour>
      <point x="621" y="132" type="curve" smooth="yes"/>
      <point x="412" y="132"/>
      <point x="270" y="298"/>
      <point x="270" y="498" type="curve" smooth="yes"/>
      <point x="270" y="701"/>
      <point x="412" y="862"/>
      <point x="621" y="862" type="curve" smooth="yes"/>
      <point x="830" y="862"/>
      <point x="974" y="701"/>
      <point x="974" y="498" type="curve" smooth="yes"/>
      <point x="974" y="298"/>
      <point x="830" y="132"/>
    </contour>
    <contour>
      <point x="621" y="-20" type="curve" smooth="yes"/>
      <point x="914" y="-20"/>
      <point x="1160" y="186"/>
      <point x="1160" y="500" type="curve" smooth="yes"/>
      <point x="1160" y="810"/>
      <point x="914" y="1017"/>
      <point x="621" y="1017" type="curve" smooth="yes"/>
      <point x="328" y="1017"/>
      <point x="84" y="810"/>
      <point x="84" y="500" type="curve" smooth="yes"/>
      <point x="84" y="186"/>
      <point x="328" y="-20"/>
    </contour>
  </outline>
</glyph>
<glyph name="otilde" format="1">
  <advance width="1242"/>
  <unicode hex="00F5"/>
  <outline>
    <contour>
      <point x="743" y="1148" type="curve" smooth="yes"/>
      <point x="847" y="1148"/>
      <point x="918" y="1207"/>
      <point x="978" y="1293" type="curve"/>
      <point x="982" y="1300"/>
      <point x="983" y="1304"/>
      <point x="983" y="1309" type="curve" smooth="yes"/>
      <point x="983" y="1317"/>
      <point x="978" y="1322"/>
      <point x="970" y="1322" type="curve" smooth="yes"/>
      <point x="953" y="1322"/>
      <point x="920" y="1276"/>
      <point x="859" y="1276" type="curve" smooth="yes"/>
      <point x="772" y="1276"/>
      <point x="610" y="1364"/>
      <point x="480" y="1364" type="curve" smooth="yes"/>
      <point x="384" y="1364"/>
      <point x="322" y="1307"/>
      <point x="267" y="1220" type="curve" smooth="yes"/>
      <point x="263" y="1213"/>
      <point x="261" y="1210"/>
      <point x="261" y="1204" type="curve" smooth="yes"/>
      <point x="261" y="1196"/>
      <point x="268" y="1191"/>
      <point x="276" y="1191" type="curve" smooth="yes"/>
      <point x="292" y="1191"/>
      <point x="328" y="1237"/>
      <point x="385" y="1237" type="curve" smooth="yes"/>
      <point x="502" y="1237"/>
      <point x="648" y="1148"/>
    </contour>
    <contour>
      <point x="621" y="131" type="curve" smooth="yes"/>
      <point x="412" y="131"/>
      <point x="270" y="298"/>
      <point x="270" y="498" type="curve" smooth="yes"/>
      <point x="270" y="700"/>
      <point x="412" y="862"/>
      <point x="621" y="862" type="curve" smooth="yes"/>
      <point x="830" y="862"/>
      <point x="974" y="700"/>
      <point x="974" y="498" type="curve" smooth="yes"/>
      <point x="974" y="298"/>
      <point x="830" y="131"/>
    </contour>
    <contour>
      <point x="621" y="-19" type="curve" smooth="yes"/>
      <point x="914" y="-19"/>
      <point x="1160" y="186"/>
      <point x="1160" y="500" type="curve" smooth="yes"/>
      <point x="1160" y="809"/>
      <point x="914" y="1017"/>
      <point x="621" y="1017" type="curve" smooth="yes"/>
      <point x="328" y="1017"/>
      <point x="84" y="809"/>
      <point x="84" y="500" type="curve" smooth="yes"/>
      <point x="84" y="186"/>
      <point x="328" y="-19"/>
    </contour>
  </outline>
</glyph>
<glyph name="odieresis" format="1">
  <advance width="1242"/>
  <unicode hex="00F6"/>
  <outline>
    <contour>
      <point x="621" y="132" type="curve" smooth="yes"/>
      <point x="830" y="132"/>
      <point x="974" y="299"/>
      <point x="974" y="498" type="curve" smooth="yes"/>
      <point x="974" y="701"/>
      <point x="830" y="863"/>
      <point x="621" y="863" type="curve" smooth="yes"/>
      <point x="412" y="863"/>
      <point x="270" y="701"/>
      <point x="270" y="498" type="curve" smooth="yes"/>
      <point x="270" y="299"/>
      <point x="412" y="132"/>
    </contour>
    <contour>
      <point x="426" y="1149" type="curve" smooth="yes"/>
      <point x="366" y="1149"/>
      <point x="306" y="1186"/>
      <point x="306" y="1262" type="curve" smooth="yes"/>
      <point x="306" y="1341"/>
      <point x="366" y="1382"/>
      <point x="426" y="1382" type="curve" smooth="yes"/>
      <point x="486" y="1382"/>
      <point x="548" y="1341"/>
      <point x="548" y="1262" type="curve" smooth="yes"/>
      <point x="548" y="1185"/>
      <point x="486" y="1149"/>
    </contour>
    <contour>
      <point x="621" y="-19" type="curve" smooth="yes"/>
      <point x="914" y="-19"/>
      <point x="1160" y="186"/>
      <point x="1160" y="500" type="curve" smooth="yes"/>
      <point x="1160" y="811"/>
      <point x="914" y="1017"/>
      <point x="621" y="1017" type="curve" smooth="yes"/>
      <point x="328" y="1017"/>
      <point x="84" y="811"/>
      <point x="84" y="500" type="curve" smooth="yes"/>
      <point x="84" y="186"/>
      <point x="328" y="-19"/>
    </contour>
    <contour>
      <point x="816" y="1149" type="curve" smooth="yes"/>
      <point x="877" y="1149"/>
      <point x="937" y="1185"/>
      <point x="937" y="1262" type="curve" smooth="yes"/>
      <point x="937" y="1341"/>
      <point x="877" y="1382"/>
      <point x="816" y="1382" type="curve" smooth="yes"/>
      <point x="757" y="1382"/>
      <point x="695" y="1341"/>
      <point x="695" y="1262" type="curve" smooth="yes"/>
      <point x="695" y="1186"/>
      <point x="757" y="1149"/>
    </contour>
  </outline>
</glyph>
<glyph name="amacron" format="1">
  <advance width="994"/>
  <unicode hex="0101"/>
  <outline>
    <contour>
      <point x="367" y="-20" type="curve" smooth="yes"/>
      <point x="451" y="-20"/>
      <point x="587" y="24"/>
      <point x="654" y="139" type="curve"/>
      <point x="688" y="71"/>
      <point x="779" y="15"/>
      <point x="843" y="-15" type="curve"/>
      <point x="944" y="128" type="line"/>
      <point x="859" y="170"/>
      <point x="809" y="178"/>
      <point x="809" y="285" type="curve" smooth="yes"/>
      <point x="809" y="692" type="line" smooth="yes"/>
      <point x="809" y="922"/>
      <point x="617" y="1006"/>
      <point x="445" y="1006" type="curve" smooth="yes"/>
      <point x="299" y="1006"/>
      <point x="148" y="919"/>
      <point x="108" y="878" type="curve"/>
      <point x="161" y="726" type="line"/>
      <point x="232" y="791"/>
      <point x="333" y="842"/>
      <point x="449" y="842" type="curve" smooth="yes"/>
      <point x="564" y="842"/>
      <point x="625" y="756"/>
      <point x="625" y="626" type="curve" smooth="yes"/>
      <point x="625" y="613"/>
      <point x="624" y="573"/>
      <point x="624" y="569" type="curve"/>
      <point x="454" y="526" type="line" smooth="yes"/>
      <point x="190" y="459"/>
      <point x="89" y="340"/>
      <point x="89" y="230" type="curve" smooth="yes"/>
      <point x="89" y="45"/>
      <point x="215" y="-20"/>
    </contour>
    <contour>
      <point x="251" y="1149" type="line"/>
      <point x="783" y="1149" type="line"/>
      <point x="783" y="1301" type="line"/>
      <point x="251" y="1301" type="line"/>
    </contour>
    <contour>
      <point x="624" y="225" type="line"/>
      <point x="546" y="129"/>
      <point x="285" y="26"/>
      <point x="285" y="244" type="curve" smooth="yes"/>
      <point x="285" y="381"/>
      <point x="495" y="419"/>
      <point x="624" y="459" type="curve"/>
    </contour>
  </outline>
</glyph>
<glyph name="Abreve" format="1">
  <advance width="1583"/>
  <unicode hex="0102"/>
  <outline>
    <contour>
      <point x="62" y="0" type="line"/>
      <point x="268" y="0" type="line"/>
      <point x="477" y="486" type="line"/>
      <point x="1103" y="486" type="line"/>
      <point x="1324" y="0" type="line"/>
      <point x="1516" y="0" type="line"/>
      <point x="1520" y="3" type="line"/>
      <point x="847" y="1515" type="line"/>
      <point x="699" y="1515" type="line"/>
    </contour>
    <contour>
      <point x="791" y="1668" type="curve" smooth="yes"/>
      <point x="906" y="1668"/>
      <point x="1024" y="1747"/>
      <point x="1029" y="1907" type="curve"/>
      <point x="922" y="1907" type="line"/>
      <point x="912" y="1825"/>
      <point x="850" y="1783"/>
      <point x="790" y="1783" type="curve" smooth="yes"/>
      <point x="729" y="1783"/>
      <point x="668" y="1825"/>
      <point x="658" y="1907" type="curve"/>
      <point x="550" y="1907" type="line"/>
      <point x="557" y="1747"/>
      <point x="674" y="1668"/>
    </contour>
    <contour>
      <point x="552" y="662" type="line"/>
      <point x="778" y="1265" type="line"/>
      <point x="1024" y="662" type="line"/>
    </contour>
  </outline>
</glyph>
<glyph name="abreve" format="1">
  <advance width="994"/>
  <unicode hex="0103"/>
  <outline>
    <contour>
      <point x="367" y="-19" type="curve" smooth="yes"/>
      <point x="451" y="-19"/>
      <point x="587" y="25"/>
      <point x="654" y="140" type="curve"/>
      <point x="688" y="71"/>
      <point x="779" y="15"/>
      <point x="843" y="-14" type="curve"/>
      <point x="944" y="129" type="line"/>
      <point x="859" y="172"/>
      <point x="809" y="179"/>
      <point x="809" y="286" type="curve" smooth="yes"/>
      <point x="809" y="694" type="line" smooth="yes"/>
      <point x="809" y="924"/>
      <point x="617" y="1006"/>
      <point x="445" y="1006" type="curve" smooth="yes"/>
      <point x="299" y="1006"/>
      <point x="148" y="920"/>
      <point x="108" y="879" type="curve"/>
      <point x="161" y="726" type="line"/>
      <point x="232" y="792"/>
      <point x="333" y="843"/>
      <point x="449" y="843" type="curve" smooth="yes"/>
      <point x="564" y="843"/>
      <point x="625" y="756"/>
      <point x="625" y="626" type="curve" smooth="yes"/>
      <point x="625" y="614"/>
      <point x="624" y="573"/>
      <point x="624" y="569" type="curve"/>
      <point x="454" y="527" type="line"/>
      <point x="190" y="459"/>
      <point x="89" y="342"/>
      <point x="89" y="231" type="curve" smooth="yes"/>
      <point x="89" y="45"/>
      <point x="215" y="-19"/>
    </contour>
    <contour>
      <point x="517" y="1149" type="curve" smooth="yes"/>
      <point x="634" y="1149"/>
      <point x="751" y="1229"/>
      <point x="757" y="1388" type="curve"/>
      <point x="648" y="1388" type="line"/>
      <point x="639" y="1306"/>
      <point x="576" y="1265"/>
      <point x="516" y="1265" type="curve" smooth="yes"/>
      <point x="456" y="1265"/>
      <point x="395" y="1306"/>
      <point x="386" y="1388" type="curve"/>
      <point x="277" y="1388" type="line"/>
      <point x="283" y="1229"/>
      <point x="400" y="1149"/>
    </contour>
    <contour>
      <point x="624" y="225" type="line"/>
      <point x="546" y="130"/>
      <point x="285" y="27"/>
      <point x="285" y="246" type="curve" smooth="yes"/>
      <point x="285" y="382"/>
      <point x="495" y="420"/>
      <point x="624" y="460" type="curve"/>
    </contour>
  </outline>
</glyph>
<glyph name="Aogonek" format="1">
  <advance width="1583"/>
  <unicode hex="0104"/>
  <outline>
    <contour>
      <point x="1353" y="-378" type="line"/>
      <point x="1366" y="-378"/>
      <point x="1382" y="-377"/>
      <point x="1396" y="-374" type="curve"/>
      <point x="1429" y="-249" type="line"/>
      <point x="1427" y="-249" type="line" smooth="yes"/>
      <point x="1298" y="-249"/>
      <point x="1233" y="-187"/>
      <point x="1233" y="-123" type="curve" smooth="yes"/>
      <point x="1233" y="-76"/>
      <point x="1271" y="-26"/>
      <point x="1348" y="1" type="curve"/>
      <point x="1516" y="1" type="line"/>
      <point x="1520" y="4" type="line"/>
      <point x="847" y="1517" type="line"/>
      <point x="699" y="1517" type="line"/>
      <point x="62" y="1" type="line"/>
      <point x="268" y="1" type="line"/>
      <point x="477" y="488" type="line"/>
      <point x="1103" y="488" type="line"/>
      <point x="1302" y="49" type="line"/>
      <point x="1172" y="40"/>
      <point x="1108" y="-57"/>
      <point x="1108" y="-158" type="curve" smooth="yes"/>
      <point x="1108" y="-269"/>
      <point x="1205" y="-377"/>
      <point x="1353" y="-377" type="curve"/>
    </contour>
    <contour>
      <point x="552" y="663" type="line"/>
      <point x="778" y="1267" type="line"/>
      <point x="1024" y="663" type="line"/>
    </contour>
  </outline>
</glyph>
<glyph name="Cacute" format="1">
  <advance width="1567"/>
  <unicode hex="0106"/>
  <outline>
    <contour>
      <point x="938" y="-20" type="curve" smooth="yes"/>
      <point x="1099" y="-20"/>
      <point x="1259" y="21"/>
      <point x="1442" y="114" type="curve"/>
      <point x="1442" y="325" type="line"/>
      <point x="1300" y="218"/>
      <point x="1117" y="161"/>
      <point x="950" y="161" type="curve" smooth="yes"/>
      <point x="630" y="161"/>
      <point x="337" y="353"/>
      <point x="337" y="755" type="curve" smooth="yes"/>
      <point x="337" y="1127"/>
      <point x="626" y="1351"/>
      <point x="956" y="1351" type="curve" smooth="yes"/>
      <point x="1103" y="1351"/>
      <point x="1270" y="1303"/>
      <point x="1442" y="1216" type="curve"/>
      <point x="1442" y="1432" type="line"/>
      <point x="1283" y="1499"/>
      <point x="1106" y="1536"/>
      <point x="954" y="1536" type="curve" smooth="yes"/>
      <point x="499" y="1536"/>
      <point x="110" y="1240"/>
      <point x="110" y="759" type="curve" smooth="yes"/>
      <point x="110" y="327"/>
      <point x="447" y="-20"/>
    </contour>
    <contour>
      <point x="629" y="1668" type="curve" smooth="yes"/>
      <point x="637" y="1668"/>
      <point x="647" y="1674"/>
      <point x="655" y="1690" type="curve"/>
      <point x="885" y="1981" type="line"/>
      <point x="910" y="2011"/>
      <point x="922" y="2040"/>
      <point x="922" y="2066" type="curve" smooth="yes"/>
      <point x="922" y="2119"/>
      <point x="874" y="2153"/>
      <point x="826" y="2153" type="curve" smooth="yes"/>
      <point x="786" y="2153"/>
      <point x="743" y="2128"/>
      <point x="725" y="2066" type="curve"/>
      <point x="625" y="1704" type="line" smooth="yes"/>
      <point x="623" y="1696"/>
      <point x="622" y="1687"/>
      <point x="622" y="1683" type="curve" smooth="yes"/>
      <point x="622" y="1674"/>
      <point x="625" y="1668"/>
    </contour>
  </outline>
</glyph>
<glyph name="cacute" format="1">
  <advance width="999"/>
  <unicode hex="0107"/>
  <outline>
    <contour>
      <point x="614" y="-19" type="curve" smooth="yes"/>
      <point x="640" y="-19"/>
      <point x="800" y="-13"/>
      <point x="894" y="45" type="curve"/>
      <point x="894" y="211" type="line"/>
      <point x="877" y="211" type="line"/>
      <point x="802" y="167"/>
      <point x="708" y="132"/>
      <point x="626" y="132" type="curve" smooth="yes"/>
      <point x="389" y="132"/>
      <point x="275" y="327"/>
      <point x="275" y="501" type="curve" smooth="yes"/>
      <point x="275" y="674"/>
      <point x="398" y="863"/>
      <point x="623" y="863" type="curve" smooth="yes"/>
      <point x="728" y="863"/>
      <point x="778" y="845"/>
      <point x="871" y="797" type="curve"/>
      <point x="871" y="961" type="line"/>
      <point x="814" y="997"/>
      <point x="696" y="1016"/>
      <point x="606" y="1016" type="curve" smooth="yes"/>
      <point x="330" y="1016"/>
      <point x="84" y="810"/>
      <point x="84" y="500" type="curve" smooth="yes"/>
      <point x="84" y="194"/>
      <point x="314" y="-19"/>
    </contour>
    <contour>
      <point x="349" y="1148" type="curve" smooth="yes"/>
      <point x="353" y="1148"/>
      <point x="365" y="1156"/>
      <point x="374" y="1170" type="curve"/>
      <point x="603" y="1461" type="line" smooth="yes"/>
      <point x="627" y="1492"/>
      <point x="638" y="1522"/>
      <point x="638" y="1546" type="curve" smooth="yes"/>
      <point x="638" y="1599"/>
      <point x="591" y="1633"/>
      <point x="544" y="1633" type="curve" smooth="yes"/>
      <point x="503" y="1633"/>
      <point x="461" y="1608"/>
      <point x="443" y="1546" type="curve"/>
      <point x="342" y="1184" type="line" smooth="yes"/>
      <point x="340" y="1177"/>
      <point x="339" y="1169"/>
      <point x="339" y="1163" type="curve" smooth="yes"/>
      <point x="339" y="1156"/>
      <point x="342" y="1148"/>
    </contour>
  </outline>
</glyph>
<glyph name="Ccircumflex" format="1">
  <advance width="1567"/>
  <unicode hex="0108"/>
  <outline>
    <contour>
      <point x="461" y="1667" type="curve"/>
      <point x="462" y="1667"/>
      <point x="462" y="1667"/>
      <point x="463" y="1669" type="curve"/>
      <point x="771" y="1874" type="line"/>
      <point x="1077" y="1669" type="line"/>
      <point x="1078" y="1667"/>
      <point x="1079" y="1667"/>
      <point x="1080" y="1667" type="curve" smooth="yes"/>
      <point x="1082" y="1667"/>
      <point x="1085" y="1669"/>
      <point x="1085" y="1671" type="curve" smooth="yes"/>
      <point x="1085" y="1673" type="line"/>
      <point x="810" y="2080" type="line" smooth="yes"/>
      <point x="804" y="2088"/>
      <point x="786" y="2096"/>
      <point x="771" y="2096" type="curve" smooth="yes"/>
      <point x="756" y="2096"/>
      <point x="739" y="2088"/>
      <point x="733" y="2080" type="curve" smooth="yes"/>
      <point x="458" y="1673" type="line"/>
      <point x="457" y="1673"/>
      <point x="457" y="1672"/>
      <point x="457" y="1671" type="curve" smooth="yes"/>
      <point x="457" y="1669"/>
      <point x="459" y="1667"/>
    </contour>
    <contour>
      <point x="938" y="-19" type="curve" smooth="yes"/>
      <point x="1099" y="-19"/>
      <point x="1259" y="20"/>
      <point x="1442" y="115" type="curve"/>
      <point x="1442" y="325" type="line"/>
      <point x="1300" y="218"/>
      <point x="1117" y="160"/>
      <point x="950" y="160" type="curve" smooth="yes"/>
      <point x="630" y="160"/>
      <point x="337" y="354"/>
      <point x="337" y="754" type="curve" smooth="yes"/>
      <point x="337" y="1126"/>
      <point x="626" y="1350"/>
      <point x="956" y="1350" type="curve" smooth="yes"/>
      <point x="1103" y="1350"/>
      <point x="1270" y="1303"/>
      <point x="1442" y="1215" type="curve"/>
      <point x="1442" y="1433" type="line"/>
      <point x="1283" y="1498"/>
      <point x="1106" y="1536"/>
      <point x="954" y="1536" type="curve" smooth="yes"/>
      <point x="499" y="1536"/>
      <point x="110" y="1239"/>
      <point x="110" y="759" type="curve" smooth="yes"/>
      <point x="110" y="328"/>
      <point x="447" y="-19"/>
    </contour>
  </outline>
</glyph>
<glyph name="ccircumflex" format="1">
  <advance width="999"/>
  <unicode hex="0109"/>
  <outline>
    <contour>
      <point x="179" y="1149" type="curve"/>
      <point x="180" y="1149"/>
      <point x="180" y="1149"/>
      <point x="184" y="1150" type="curve"/>
      <point x="489" y="1355" type="line"/>
      <point x="796" y="1150" type="line"/>
      <point x="799" y="1149"/>
      <point x="800" y="1149"/>
      <point x="801" y="1149" type="curve" smooth="yes"/>
      <point x="802" y="1149"/>
      <point x="803" y="1150"/>
      <point x="803" y="1151" type="curve"/>
      <point x="803" y="1153" type="line"/>
      <point x="530" y="1560" type="line" smooth="yes"/>
      <point x="522" y="1570"/>
      <point x="504" y="1576"/>
      <point x="489" y="1576" type="curve" smooth="yes"/>
      <point x="475" y="1576"/>
      <point x="459" y="1570"/>
      <point x="451" y="1560" type="curve"/>
      <point x="176" y="1153" type="line"/>
      <point x="175" y="1153"/>
      <point x="175" y="1152"/>
      <point x="175" y="1151" type="curve" smooth="yes"/>
      <point x="175" y="1150"/>
      <point x="177" y="1149"/>
    </contour>
    <contour>
      <point x="614" y="-20" type="curve" smooth="yes"/>
      <point x="640" y="-20"/>
      <point x="800" y="-13"/>
      <point x="894" y="44" type="curve"/>
      <point x="894" y="212" type="line"/>
      <point x="877" y="212" type="line"/>
      <point x="802" y="167"/>
      <point x="708" y="132"/>
      <point x="626" y="132" type="curve" smooth="yes"/>
      <point x="389" y="132"/>
      <point x="275" y="328"/>
      <point x="275" y="501" type="curve" smooth="yes"/>
      <point x="275" y="675"/>
      <point x="398" y="862"/>
      <point x="623" y="862" type="curve" smooth="yes"/>
      <point x="728" y="862"/>
      <point x="778" y="846"/>
      <point x="871" y="796" type="curve"/>
      <point x="871" y="961" type="line"/>
      <point x="814" y="995"/>
      <point x="696" y="1017"/>
      <point x="606" y="1017" type="curve" smooth="yes"/>
      <point x="330" y="1017"/>
      <point x="84" y="809"/>
      <point x="84" y="500" type="curve" smooth="yes"/>
      <point x="84" y="195"/>
      <point x="314" y="-20"/>
    </contour>
  </outline>
</glyph>
<glyph name="Cdotaccent" format="1">
  <advance width="1567"/>
  <unicode hex="010A"/>
  <outline>
    <contour>
      <point x="938" y="-20" type="curve" smooth="yes"/>
      <point x="1099" y="-20"/>
      <point x="1259" y="20"/>
      <point x="1442" y="115" type="curve"/>
      <point x="1442" y="324" type="line"/>
      <point x="1300" y="217"/>
      <point x="1117" y="160"/>
      <point x="950" y="160" type="curve" smooth="yes"/>
      <point x="630" y="160"/>
      <point x="337" y="352"/>
      <point x="337" y="755" type="curve" smooth="yes"/>
      <point x="337" y="1126"/>
      <point x="626" y="1351"/>
      <point x="956" y="1351" type="curve" smooth="yes"/>
      <point x="1103" y="1351"/>
      <point x="1270" y="1302"/>
      <point x="1442" y="1216" type="curve"/>
      <point x="1442" y="1431" type="line"/>
      <point x="1283" y="1498"/>
      <point x="1106" y="1535"/>
      <point x="954" y="1535" type="curve" smooth="yes"/>
      <point x="499" y="1535"/>
      <point x="110" y="1240"/>
      <point x="110" y="758" type="curve" smooth="yes"/>
      <point x="110" y="326"/>
      <point x="447" y="-20"/>
    </contour>
    <contour>
      <point x="771" y="1668" type="curve" smooth="yes"/>
      <point x="837" y="1668"/>
      <point x="904" y="1708"/>
      <point x="904" y="1794" type="curve" smooth="yes"/>
      <point x="904" y="1883"/>
      <point x="837" y="1928"/>
      <point x="771" y="1928" type="curve" smooth="yes"/>
      <point x="703" y="1928"/>
      <point x="637" y="1884"/>
      <point x="637" y="1794" type="curve" smooth="yes"/>
      <point x="637" y="1708"/>
      <point x="703" y="1668"/>
    </contour>
  </outline>
</glyph>
<glyph name="Ccaron" format="1">
  <advance width="1567"/>
  <unicode hex="010C"/>
  <outline>
    <contour>
      <point x="770" y="1667" type="curve" smooth="yes"/>
      <point x="782" y="1667"/>
      <point x="802" y="1674"/>
      <point x="807" y="1684" type="curve"/>
      <point x="1082" y="2089" type="line"/>
      <point x="1085" y="2089"/>
      <point x="1085" y="2091"/>
      <point x="1085" y="2092" type="curve" smooth="yes"/>
      <point x="1085" y="2093"/>
      <point x="1082" y="2096"/>
      <point x="1079" y="2096" type="curve" smooth="yes"/>
      <point x="1078" y="2096"/>
      <point x="1078" y="2096"/>
      <point x="1077" y="2093" type="curve"/>
      <point x="770" y="1887" type="line"/>
      <point x="463" y="2093" type="line"/>
      <point x="462" y="2096"/>
      <point x="460" y="2096"/>
      <point x="459" y="2096" type="curve" smooth="yes"/>
      <point x="458" y="2096"/>
      <point x="457" y="2093"/>
      <point x="457" y="2092" type="curve"/>
      <point x="457" y="2089" type="line"/>
      <point x="731" y="1684" type="line" smooth="yes"/>
      <point x="737" y="1674"/>
      <point x="754" y="1667"/>
    </contour>
    <contour>
      <point x="938" y="-19" type="curve" smooth="yes"/>
      <point x="1099" y="-19"/>
      <point x="1259" y="20"/>
      <point x="1442" y="115" type="curve"/>
      <point x="1442" y="325" type="line"/>
      <point x="1300" y="218"/>
      <point x="1117" y="160"/>
      <point x="950" y="160" type="curve" smooth="yes"/>
      <point x="630" y="160"/>
      <point x="337" y="354"/>
      <point x="337" y="754" type="curve" smooth="yes"/>
      <point x="337" y="1126"/>
      <point x="626" y="1350"/>
      <point x="956" y="1350" type="curve" smooth="yes"/>
      <point x="1103" y="1350"/>
      <point x="1270" y="1303"/>
      <point x="1442" y="1215" type="curve"/>
      <point x="1442" y="1433" type="line"/>
      <point x="1283" y="1498"/>
      <point x="1106" y="1536"/>
      <point x="954" y="1536" type="curve" smooth="yes"/>
      <point x="499" y="1536"/>
      <point x="110" y="1239"/>
      <point x="110" y="759" type="curve" smooth="yes"/>
      <point x="110" y="328"/>
      <point x="447" y="-19"/>
    </contour>
  </outline>
</glyph>
<glyph name="ccaron" format="1">
  <advance width="999"/>
  <unicode hex="010D"/>
  <outline>
    <contour>
      <point x="488" y="1149" type="curve" smooth="yes"/>
      <point x="503" y="1149"/>
      <point x="519" y="1154"/>
      <point x="528" y="1164" type="curve"/>
      <point x="802" y="1571" type="line"/>
      <point x="803" y="1571"/>
      <point x="803" y="1572"/>
      <point x="803" y="1573" type="curve" smooth="yes"/>
      <point x="803" y="1574"/>
      <point x="802" y="1576"/>
      <point x="800" y="1576" type="curve" smooth="yes"/>
      <point x="799" y="1576"/>
      <point x="799" y="1576"/>
      <point x="796" y="1574" type="curve" smooth="yes"/>
      <point x="488" y="1368" type="line"/>
      <point x="184" y="1574" type="line" smooth="yes"/>
      <point x="181" y="1576"/>
      <point x="178" y="1576"/>
      <point x="177" y="1576" type="curve" smooth="yes"/>
      <point x="176" y="1576"/>
      <point x="175" y="1574"/>
      <point x="175" y="1573" type="curve"/>
      <point x="175" y="1571" type="line"/>
      <point x="450" y="1164" type="line" smooth="yes"/>
      <point x="457" y="1154"/>
      <point x="474" y="1149"/>
    </contour>
    <contour>
      <point x="614" y="-20" type="curve" smooth="yes"/>
      <point x="640" y="-20"/>
      <point x="800" y="-13"/>
      <point x="894" y="44" type="curve"/>
      <point x="894" y="212" type="line"/>
      <point x="877" y="212" type="line"/>
      <point x="802" y="167"/>
      <point x="708" y="132"/>
      <point x="626" y="132" type="curve" smooth="yes"/>
      <point x="389" y="132"/>
      <point x="275" y="328"/>
      <point x="275" y="501" type="curve" smooth="yes"/>
      <point x="275" y="675"/>
      <point x="398" y="862"/>
      <point x="623" y="862" type="curve" smooth="yes"/>
      <point x="728" y="862"/>
      <point x="778" y="846"/>
      <point x="871" y="796" type="curve"/>
      <point x="871" y="961" type="line"/>
      <point x="814" y="995"/>
      <point x="696" y="1017"/>
      <point x="606" y="1017" type="curve" smooth="yes"/>
      <point x="330" y="1017"/>
      <point x="84" y="809"/>
      <point x="84" y="500" type="curve" smooth="yes"/>
      <point x="84" y="195"/>
      <point x="314" y="-20"/>
    </contour>
  </outline>
</glyph>
<glyph name="Dcaron" format="1">
  <advance width="1614"/>
  <unicode hex="010E"/>
  <outline>
    <contour>
      <point x="817" y="1669" type="curve" smooth="yes"/>
      <point x="831" y="1669"/>
      <point x="848" y="1675"/>
      <point x="855" y="1684" type="curve"/>
      <point x="1131" y="2091" type="line"/>
      <point x="1132" y="2091"/>
      <point x="1132" y="2093"/>
      <point x="1132" y="2094" type="curve" smooth="yes"/>
      <point x="1132" y="2095"/>
      <point x="1131" y="2096"/>
      <point x="1129" y="2096" type="curve" smooth="yes"/>
      <point x="1126" y="2096"/>
      <point x="1126" y="2096"/>
      <point x="1125" y="2095" type="curve" smooth="yes"/>
      <point x="817" y="1889" type="line"/>
      <point x="510" y="2095" type="line" smooth="yes"/>
      <point x="509" y="2096"/>
      <point x="507" y="2096"/>
      <point x="506" y="2096" type="curve" smooth="yes"/>
      <point x="505" y="2096"/>
      <point x="504" y="2095"/>
      <point x="504" y="2094" type="curve"/>
      <point x="504" y="2091" type="line"/>
      <point x="778" y="1684" type="line"/>
      <point x="786" y="1675"/>
      <point x="803" y="1669"/>
    </contour>
    <contour>
      <point x="331" y="177" type="line"/>
      <point x="331" y="1337" type="line"/>
      <point x="739" y="1337" type="line" smooth="yes"/>
      <point x="1044" y="1337"/>
      <point x="1287" y="1199"/>
      <point x="1287" y="761" type="curve" smooth="yes"/>
      <point x="1287" y="374"/>
      <point x="1044" y="177"/>
      <point x="689" y="177" type="curve" smooth="yes"/>
    </contour>
    <contour>
      <point x="133" y="0" type="line"/>
      <point x="732" y="0" type="line" smooth="yes"/>
      <point x="1227" y="0"/>
      <point x="1505" y="356"/>
      <point x="1505" y="764" type="curve" smooth="yes"/>
      <point x="1505" y="1207"/>
      <point x="1248" y="1516"/>
      <point x="766" y="1516" type="curve" smooth="yes"/>
      <point x="133" y="1516" type="line"/>
    </contour>
  </outline>
</glyph>
<glyph name="Edotaccent" format="1">
  <advance width="1099"/>
  <unicode hex="0116"/>
  <outline>
    <contour>
      <point x="133" y="0" type="line"/>
      <point x="1009" y="0" type="line"/>
      <point x="1009" y="176" type="line"/>
      <point x="331" y="176" type="line"/>
      <point x="331" y="682" type="line"/>
      <point x="981" y="682" type="line"/>
      <point x="981" y="856" type="line"/>
      <point x="331" y="856" type="line"/>
      <point x="331" y="1339" type="line"/>
      <point x="995" y="1339" type="line"/>
      <point x="995" y="1515" type="line"/>
      <point x="133" y="1515" type="line"/>
    </contour>
    <contour>
      <point x="565" y="1668" type="curve" smooth="yes"/>
      <point x="630" y="1668"/>
      <point x="698" y="1710"/>
      <point x="698" y="1796" type="curve" smooth="yes"/>
      <point x="698" y="1884"/>
      <point x="630" y="1929"/>
      <point x="565" y="1929" type="curve" smooth="yes"/>
      <point x="497" y="1929"/>
      <point x="430" y="1885"/>
      <point x="430" y="1796" type="curve" smooth="yes"/>
      <point x="430" y="1710"/>
      <point x="497" y="1668"/>
    </contour>
  </outline>
</glyph>
<glyph name="Eogonek" format="1">
  <advance width="1099"/>
  <unicode hex="0118"/>
  <outline>
    <contour>
      <point x="593" y="-412" type="curve" smooth="yes"/>
      <point x="607" y="-412"/>
      <point x="622" y="-410"/>
      <point x="637" y="-408" type="curve"/>
      <point x="669" y="-282" type="line"/>
      <point x="667" y="-282" type="line" smooth="yes"/>
      <point x="540" y="-282"/>
      <point x="473" y="-222"/>
      <point x="473" y="-158" type="curve" smooth="yes"/>
      <point x="473" y="-109"/>
      <point x="515" y="-57"/>
      <point x="595" y="-32" type="curve"/>
      <point x="574" y="0" type="line"/>
      <point x="1009" y="0" type="line"/>
      <point x="1009" y="177" type="line"/>
      <point x="331" y="177" type="line"/>
      <point x="331" y="682" type="line"/>
      <point x="981" y="682" type="line"/>
      <point x="981" y="856" type="line"/>
      <point x="331" y="856" type="line"/>
      <point x="331" y="1340" type="line"/>
      <point x="995" y="1340" type="line"/>
      <point x="995" y="1516" type="line"/>
      <point x="133" y="1516" type="line"/>
      <point x="133" y="0" type="line"/>
      <point x="477" y="0" type="line"/>
      <point x="392" y="-32"/>
      <point x="349" y="-111"/>
      <point x="349" y="-192" type="curve" smooth="yes"/>
      <point x="349" y="-304"/>
      <point x="447" y="-412"/>
    </contour>
  </outline>
</glyph>
<glyph name="eogonek" format="1">
  <advance width="1090"/>
  <unicode hex="0119"/>
  <outline>
    <contour>
      <point x="562" y="-432" type="curve" smooth="yes"/>
      <point x="574" y="-432"/>
      <point x="591" y="-431"/>
      <point x="604" y="-427" type="curve"/>
      <point x="636" y="-302" type="line"/>
      <point x="634" y="-302" type="line" smooth="yes"/>
      <point x="508" y="-302"/>
      <point x="442" y="-241"/>
      <point x="442" y="-179" type="curve" smooth="yes"/>
      <point x="442" y="-129"/>
      <point x="483" y="-79"/>
      <point x="563" y="-52" type="curve"/>
      <point x="538" y="-14" type="line"/>
      <point x="570" y="-19"/>
      <point x="603" y="-21"/>
      <point x="638" y="-21" type="curve" smooth="yes"/>
      <point x="760" y="-21"/>
      <point x="868" y="12"/>
      <point x="962" y="71" type="curve"/>
      <point x="962" y="228" type="line"/>
      <point x="859" y="161"/>
      <point x="749" y="130"/>
      <point x="636" y="130" type="curve" smooth="yes"/>
      <point x="416" y="130"/>
      <point x="284" y="281"/>
      <point x="282" y="497" type="curve"/>
      <point x="981" y="497" type="line"/>
      <point x="981" y="524" type="line" smooth="yes"/>
      <point x="981" y="810"/>
      <point x="842" y="1015"/>
      <point x="551" y="1015" type="curve" smooth="yes"/>
      <point x="279" y="1015"/>
      <point x="83" y="786"/>
      <point x="83" y="515" type="curve" smooth="yes"/>
      <point x="83" y="242"/>
      <point x="246" y="43"/>
      <point x="504" y="-8" type="curve"/>
      <point x="380" y="-21"/>
      <point x="317" y="-115"/>
      <point x="317" y="-213" type="curve" smooth="yes"/>
      <point x="317" y="-325"/>
      <point x="415" y="-432"/>
    </contour>
    <contour>
      <point x="288" y="618" type="line"/>
      <point x="313" y="755"/>
      <point x="404" y="866"/>
      <point x="558" y="866" type="curve" smooth="yes"/>
      <point x="703" y="866"/>
      <point x="811" y="762"/>
      <point x="812" y="618" type="curve"/>
    </contour>
  </outline>
</glyph>
<glyph name="Ecaron" format="1">
  <advance width="1099"/>
  <unicode hex="011A"/>
  <outline>
    <contour>
      <point x="133" y="0" type="line"/>
      <point x="1009" y="0" type="line"/>
      <point x="1009" y="177" type="line"/>
      <point x="331" y="177" type="line"/>
      <point x="331" y="682" type="line"/>
      <point x="981" y="682" type="line"/>
      <point x="981" y="856" type="line"/>
      <point x="331" y="856" type="line"/>
      <point x="331" y="1339" type="line"/>
      <point x="995" y="1339" type="line"/>
      <point x="995" y="1516" type="line"/>
      <point x="133" y="1516" type="line"/>
    </contour>
    <contour>
      <point x="561" y="1669" type="curve" smooth="yes"/>
      <point x="575" y="1669"/>
      <point x="595" y="1675"/>
      <point x="600" y="1684" type="curve"/>
      <point x="875" y="2091" type="line"/>
      <point x="877" y="2091"/>
      <point x="877" y="2093"/>
      <point x="877" y="2094" type="curve" smooth="yes"/>
      <point x="877" y="2095"/>
      <point x="875" y="2096"/>
      <point x="873" y="2096" type="curve" smooth="yes"/>
      <point x="872" y="2096"/>
      <point x="872" y="2096"/>
      <point x="871" y="2095" type="curve" smooth="yes"/>
      <point x="561" y="1889" type="line"/>
      <point x="257" y="2095" type="line" smooth="yes"/>
      <point x="256" y="2096"/>
      <point x="254" y="2096"/>
      <point x="253" y="2096" type="curve" smooth="yes"/>
      <point x="252" y="2096"/>
      <point x="248" y="2095"/>
      <point x="248" y="2094" type="curve"/>
      <point x="248" y="2091" type="line"/>
      <point x="525" y="1684" type="line" smooth="yes"/>
      <point x="531" y="1675"/>
      <point x="546" y="1669"/>
    </contour>
  </outline>
</glyph>
<glyph name="ecaron" format="1">
  <advance width="1090"/>
  <unicode hex="011B"/>
  <outline>
    <contour>
      <point x="529" y="1149" type="curve" smooth="yes"/>
      <point x="543" y="1149"/>
      <point x="563" y="1154"/>
      <point x="568" y="1164" type="curve"/>
      <point x="844" y="1571" type="line"/>
      <point x="845" y="1571"/>
      <point x="845" y="1572"/>
      <point x="845" y="1573" type="curve" smooth="yes"/>
      <point x="845" y="1574"/>
      <point x="844" y="1576"/>
      <point x="841" y="1576" type="curve" smooth="yes"/>
      <point x="840" y="1576"/>
      <point x="840" y="1576"/>
      <point x="839" y="1574" type="curve"/>
      <point x="529" y="1368" type="line"/>
      <point x="225" y="1574" type="line"/>
      <point x="224" y="1576"/>
      <point x="222" y="1576"/>
      <point x="221" y="1576" type="curve" smooth="yes"/>
      <point x="220" y="1576"/>
      <point x="217" y="1574"/>
      <point x="217" y="1573" type="curve"/>
      <point x="217" y="1571" type="line"/>
      <point x="492" y="1164" type="line" smooth="yes"/>
      <point x="499" y="1154"/>
      <point x="514" y="1149"/>
    </contour>
    <contour>
      <point x="638" y="-20" type="curve" smooth="yes"/>
      <point x="760" y="-20"/>
      <point x="868" y="12"/>
      <point x="962" y="71" type="curve"/>
      <point x="962" y="228" type="line"/>
      <point x="859" y="161"/>
      <point x="749" y="130"/>
      <point x="636" y="130" type="curve" smooth="yes"/>
      <point x="416" y="130"/>
      <point x="284" y="282"/>
      <point x="282" y="498" type="curve"/>
      <point x="981" y="498" type="line"/>
      <point x="981" y="523" type="line" smooth="yes"/>
      <point x="981" y="810"/>
      <point x="842" y="1016"/>
      <point x="551" y="1016" type="curve" smooth="yes"/>
      <point x="279" y="1016"/>
      <point x="83" y="787"/>
      <point x="83" y="516" type="curve" smooth="yes"/>
      <point x="83" y="198"/>
      <point x="303" y="-20"/>
    </contour>
    <contour>
      <point x="288" y="618" type="line"/>
      <point x="313" y="757"/>
      <point x="404" y="866"/>
      <point x="558" y="866" type="curve" smooth="yes"/>
      <point x="703" y="866"/>
      <point x="811" y="761"/>
      <point x="812" y="618" type="curve"/>
    </contour>
  </outline>
</glyph>
<glyph name="Gcircumflex" format="1">
  <advance width="1600"/>
  <unicode hex="011C"/>
  <outline>
    <contour>
      <point x="902" y="-19" type="curve" smooth="yes"/>
      <point x="1065" y="-19"/>
      <point x="1254" y="16"/>
      <point x="1473" y="104" type="curve"/>
      <point x="1473" y="730" type="line"/>
      <point x="988" y="730" type="line"/>
      <point x="988" y="557" type="line"/>
      <point x="1273" y="557" type="line"/>
      <point x="1273" y="219" type="line"/>
      <point x="1272" y="219" type="line"/>
      <point x="1146" y="169"/>
      <point x="1025" y="145"/>
      <point x="919" y="145" type="curve" smooth="yes"/>
      <point x="551" y="145"/>
      <point x="314" y="409"/>
      <point x="314" y="730" type="curve" smooth="yes"/>
      <point x="314" y="1134"/>
      <point x="614" y="1375"/>
      <point x="970" y="1375" type="curve" smooth="yes"/>
      <point x="1121" y="1375"/>
      <point x="1283" y="1333"/>
      <point x="1437" y="1240" type="curve"/>
      <point x="1437" y="1409" type="line"/>
      <point x="1280" y="1495"/>
      <point x="1117" y="1536"/>
      <point x="955" y="1536" type="curve" smooth="yes"/>
      <point x="485" y="1536"/>
      <point x="110" y="1205"/>
      <point x="110" y="733" type="curve" smooth="yes"/>
      <point x="110" y="391"/>
      <point x="360" y="-19"/>
    </contour>
    <contour>
      <point x="477" y="1667" type="curve"/>
      <point x="478" y="1667"/>
      <point x="478" y="1667"/>
      <point x="479" y="1669" type="curve"/>
      <point x="787" y="1874" type="line"/>
      <point x="1093" y="1669" type="line"/>
      <point x="1094" y="1667"/>
      <point x="1095" y="1667"/>
      <point x="1096" y="1667" type="curve" smooth="yes"/>
      <point x="1098" y="1667"/>
      <point x="1101" y="1669"/>
      <point x="1101" y="1671" type="curve" smooth="yes"/>
      <point x="1101" y="1673" type="line"/>
      <point x="825" y="2080" type="line" smooth="yes"/>
      <point x="819" y="2088"/>
      <point x="802" y="2096"/>
      <point x="787" y="2096" type="curve" smooth="yes"/>
      <point x="771" y="2096"/>
      <point x="755" y="2088"/>
      <point x="749" y="2080" type="curve" smooth="yes"/>
      <point x="474" y="1673" type="line"/>
      <point x="473" y="1673"/>
      <point x="473" y="1672"/>
      <point x="473" y="1671" type="curve" smooth="yes"/>
      <point x="473" y="1669"/>
      <point x="475" y="1667"/>
    </contour>
  </outline>
</glyph>
<glyph name="gcircumflex" format="1">
  <advance width="1108"/>
  <unicode hex="011D"/>
  <outline>
    <contour>
      <point x="571" y="-439" type="curve" smooth="yes"/>
      <point x="784" y="-439"/>
      <point x="993" y="-344"/>
      <point x="993" y="-53" type="curve" smooth="yes"/>
      <point x="993" y="997" type="line"/>
      <point x="812" y="997" type="line"/>
      <point x="812" y="884" type="line"/>
      <point x="719" y="974"/>
      <point x="625" y="1015"/>
      <point x="535" y="1015" type="curve" smooth="yes"/>
      <point x="309" y="1015"/>
      <point x="83" y="806"/>
      <point x="83" y="525" type="curve" smooth="yes"/>
      <point x="83" y="267"/>
      <point x="238" y="0"/>
      <point x="558" y="0" type="curve" smooth="yes"/>
      <point x="701" y="0"/>
      <point x="806" y="83"/>
      <point x="809" y="86" type="curve"/>
      <point x="824" y="32"/>
      <point x="832" y="-18"/>
      <point x="832" y="-61" type="curve" smooth="yes"/>
      <point x="832" y="-231"/>
      <point x="722" y="-292"/>
      <point x="579" y="-292" type="curve" smooth="yes"/>
      <point x="484" y="-292"/>
      <point x="374" y="-264"/>
      <point x="273" y="-223" type="curve"/>
      <point x="273" y="-380" type="line"/>
      <point x="356" y="-415"/>
      <point x="464" y="-439"/>
    </contour>
    <contour>
      <point x="228" y="1148" type="curve"/>
      <point x="229" y="1148"/>
      <point x="229" y="1148"/>
      <point x="232" y="1149" type="curve"/>
      <point x="538" y="1355" type="line"/>
      <point x="845" y="1149" type="line"/>
      <point x="848" y="1148"/>
      <point x="849" y="1148"/>
      <point x="850" y="1148" type="curve" smooth="yes"/>
      <point x="851" y="1148"/>
      <point x="852" y="1149"/>
      <point x="852" y="1151" type="curve" smooth="yes"/>
      <point x="852" y="1154" type="line"/>
      <point x="578" y="1560" type="line" smooth="yes"/>
      <point x="571" y="1570"/>
      <point x="552" y="1575"/>
      <point x="538" y="1575" type="curve" smooth="yes"/>
      <point x="524" y="1575"/>
      <point x="508" y="1570"/>
      <point x="500" y="1560" type="curve"/>
      <point x="225" y="1154" type="line"/>
      <point x="224" y="1154"/>
      <point x="224" y="1153"/>
      <point x="224" y="1151" type="curve" smooth="yes"/>
      <point x="224" y="1149"/>
      <point x="226" y="1148"/>
    </contour>
    <contour>
      <point x="592" y="151" type="curve" smooth="yes"/>
      <point x="400" y="151"/>
      <point x="274" y="285"/>
      <point x="274" y="516" type="curve" smooth="yes"/>
      <point x="274" y="732"/>
      <point x="423" y="861"/>
      <point x="577" y="861" type="curve" smooth="yes"/>
      <point x="649" y="861"/>
      <point x="730" y="835"/>
      <point x="809" y="771" type="curve"/>
      <point x="809" y="202" type="line"/>
      <point x="730" y="166"/>
      <point x="656" y="151"/>
    </contour>
  </outline>
</glyph>
<glyph name="Gbreve" format="1">
  <advance width="1600"/>
  <unicode hex="011E"/>
  <outline>
    <contour>
      <point x="902" y="-19" type="curve" smooth="yes"/>
      <point x="1065" y="-19"/>
      <point x="1254" y="17"/>
      <point x="1473" y="105" type="curve"/>
      <point x="1473" y="731" type="line"/>
      <point x="988" y="731" type="line"/>
      <point x="988" y="558" type="line"/>
      <point x="1273" y="558" type="line"/>
      <point x="1273" y="219" type="line"/>
      <point x="1272" y="219" type="line"/>
      <point x="1146" y="169"/>
      <point x="1025" y="145"/>
      <point x="919" y="145" type="curve" smooth="yes"/>
      <point x="551" y="145"/>
      <point x="314" y="411"/>
      <point x="314" y="731" type="curve" smooth="yes"/>
      <point x="314" y="1135"/>
      <point x="614" y="1377"/>
      <point x="970" y="1377" type="curve" smooth="yes"/>
      <point x="1121" y="1377"/>
      <point x="1283" y="1333"/>
      <point x="1437" y="1240" type="curve"/>
      <point x="1437" y="1409" type="line"/>
      <point x="1280" y="1496"/>
      <point x="1117" y="1537"/>
      <point x="955" y="1537" type="curve" smooth="yes"/>
      <point x="485" y="1537"/>
      <point x="110" y="1207"/>
      <point x="110" y="733" type="curve" smooth="yes"/>
      <point x="110" y="391"/>
      <point x="360" y="-19"/>
    </contour>
    <contour>
      <point x="788" y="1669" type="curve" smooth="yes"/>
      <point x="902" y="1669"/>
      <point x="1019" y="1748"/>
      <point x="1026" y="1907" type="curve"/>
      <point x="917" y="1907" type="line"/>
      <point x="908" y="1826"/>
      <point x="846" y="1783"/>
      <point x="787" y="1783" type="curve" smooth="yes"/>
      <point x="726" y="1783"/>
      <point x="664" y="1826"/>
      <point x="655" y="1907" type="curve"/>
      <point x="547" y="1907" type="line"/>
      <point x="554" y="1748"/>
      <point x="670" y="1669"/>
    </contour>
  </outline>
</glyph>
<glyph name="gbreve" format="1">
  <advance width="1108"/>
  <unicode hex="011F"/>
  <outline>
    <contour>
      <point x="571" y="-438" type="curve" smooth="yes"/>
      <point x="784" y="-438"/>
      <point x="993" y="-345"/>
      <point x="993" y="-54" type="curve" smooth="yes"/>
      <point x="993" y="996" type="line"/>
      <point x="812" y="996" type="line"/>
      <point x="812" y="884" type="line"/>
      <point x="719" y="974"/>
      <point x="625" y="1014"/>
      <point x="535" y="1014" type="curve" smooth="yes"/>
      <point x="309" y="1014"/>
      <point x="83" y="805"/>
      <point x="83" y="525" type="curve" smooth="yes"/>
      <point x="83" y="267"/>
      <point x="238" y="0"/>
      <point x="558" y="0" type="curve" smooth="yes"/>
      <point x="701" y="0"/>
      <point x="806" y="84"/>
      <point x="809" y="86" type="curve"/>
      <point x="824" y="31"/>
      <point x="832" y="-17"/>
      <point x="832" y="-60" type="curve" smooth="yes"/>
      <point x="832" y="-231"/>
      <point x="722" y="-292"/>
      <point x="579" y="-292" type="curve" smooth="yes"/>
      <point x="484" y="-292"/>
      <point x="374" y="-265"/>
      <point x="273" y="-224" type="curve"/>
      <point x="273" y="-381" type="line"/>
      <point x="356" y="-416"/>
      <point x="464" y="-438"/>
    </contour>
    <contour>
      <point x="538" y="1149" type="curve" smooth="yes"/>
      <point x="653" y="1149"/>
      <point x="771" y="1227"/>
      <point x="776" y="1386" type="curve"/>
      <point x="668" y="1386" type="line"/>
      <point x="659" y="1304"/>
      <point x="597" y="1264"/>
      <point x="537" y="1264" type="curve" smooth="yes"/>
      <point x="476" y="1264"/>
      <point x="416" y="1304"/>
      <point x="405" y="1386" type="curve"/>
      <point x="298" y="1386" type="line"/>
      <point x="304" y="1227"/>
      <point x="421" y="1149"/>
    </contour>
    <contour>
      <point x="592" y="150" type="curve" smooth="yes"/>
      <point x="400" y="150"/>
      <point x="274" y="286"/>
      <point x="274" y="516" type="curve" smooth="yes"/>
      <point x="274" y="732"/>
      <point x="423" y="862"/>
      <point x="577" y="862" type="curve" smooth="yes"/>
      <point x="649" y="862"/>
      <point x="730" y="835"/>
      <point x="809" y="770" type="curve"/>
      <point x="809" y="201" type="line"/>
      <point x="730" y="166"/>
      <point x="656" y="150"/>
    </contour>
  </outline>
</glyph>
<glyph name="gdotaccent" format="1">
  <advance width="1108"/>
  <unicode hex="0121"/>
  <outline>
    <contour>
      <point x="571" y="-437" type="curve" smooth="yes"/>
      <point x="784" y="-437"/>
      <point x="993" y="-345"/>
      <point x="993" y="-52" type="curve" smooth="yes"/>
      <point x="993" y="998" type="line"/>
      <point x="812" y="998" type="line"/>
      <point x="812" y="885" type="line"/>
      <point x="719" y="975"/>
      <point x="625" y="1016"/>
      <point x="535" y="1016" type="curve" smooth="yes"/>
      <point x="309" y="1016"/>
      <point x="83" y="805"/>
      <point x="83" y="526" type="curve" smooth="yes"/>
      <point x="83" y="269"/>
      <point x="238" y="0"/>
      <point x="558" y="0" type="curve" smooth="yes"/>
      <point x="701" y="0"/>
      <point x="806" y="85"/>
      <point x="809" y="87" type="curve"/>
      <point x="824" y="33"/>
      <point x="832" y="-16"/>
      <point x="832" y="-59" type="curve" smooth="yes"/>
      <point x="832" y="-230"/>
      <point x="722" y="-291"/>
      <point x="579" y="-291" type="curve" smooth="yes"/>
      <point x="484" y="-291"/>
      <point x="374" y="-264"/>
      <point x="273" y="-223" type="curve"/>
      <point x="273" y="-379" type="line"/>
      <point x="356" y="-414"/>
      <point x="464" y="-437"/>
    </contour>
    <contour>
      <point x="592" y="152" type="curve" smooth="yes"/>
      <point x="400" y="152"/>
      <point x="274" y="287"/>
      <point x="274" y="517" type="curve" smooth="yes"/>
      <point x="274" y="733"/>
      <point x="423" y="863"/>
      <point x="577" y="863" type="curve" smooth="yes"/>
      <point x="649" y="863"/>
      <point x="730" y="835"/>
      <point x="809" y="773" type="curve"/>
      <point x="809" y="202" type="line"/>
      <point x="730" y="168"/>
      <point x="656" y="152"/>
    </contour>
    <contour>
      <point x="538" y="1149" type="curve" smooth="yes"/>
      <point x="604" y="1149"/>
      <point x="673" y="1190"/>
      <point x="673" y="1276" type="curve" smooth="yes"/>
      <point x="673" y="1365"/>
      <point x="604" y="1409"/>
      <point x="538" y="1409" type="curve" smooth="yes"/>
      <point x="470" y="1409"/>
      <point x="403" y="1366"/>
      <point x="403" y="1276" type="curve" smooth="yes"/>
      <point x="403" y="1190"/>
      <point x="470" y="1149"/>
    </contour>
  </outline>
</glyph>
<glyph name="Gcommaaccent" format="1">
  <advance width="1600"/>
  <unicode hex="0122"/>
  <outline>
    <contour>
      <point x="902" y="-18" type="curve" smooth="yes"/>
      <point x="1065" y="-18"/>
      <point x="1254" y="18"/>
      <point x="1473" y="106" type="curve"/>
      <point x="1473" y="732" type="line"/>
      <point x="988" y="732" type="line"/>
      <point x="988" y="558" type="line"/>
      <point x="1273" y="558" type="line"/>
      <point x="1273" y="220" type="line"/>
      <point x="1272" y="220" type="line"/>
      <point x="1146" y="169"/>
      <point x="1025" y="145"/>
      <point x="919" y="145" type="curve" smooth="yes"/>
      <point x="551" y="145"/>
      <point x="314" y="412"/>
      <point x="314" y="732" type="curve" smooth="yes"/>
      <point x="314" y="1135"/>
      <point x="614" y="1377"/>
      <point x="970" y="1377" type="curve" smooth="yes"/>
      <point x="1121" y="1377"/>
      <point x="1283" y="1333"/>
      <point x="1437" y="1242" type="curve"/>
      <point x="1437" y="1410" type="line"/>
      <point x="1280" y="1497"/>
      <point x="1117" y="1537"/>
      <point x="955" y="1537" type="curve" smooth="yes"/>
      <point x="485" y="1537"/>
      <point x="110" y="1207"/>
      <point x="110" y="734" type="curve" smooth="yes"/>
      <point x="110" y="392"/>
      <point x="360" y="-18"/>
    </contour>
    <contour>
      <point x="682" y="-623" type="line"/>
      <point x="791" y="-623"/>
      <point x="928" y="-431"/>
      <point x="928" y="-296" type="curve" smooth="yes"/>
      <point x="928" y="-197"/>
      <point x="852" y="-150"/>
      <point x="780" y="-150" type="curve" smooth="yes"/>
      <point x="711" y="-150"/>
      <point x="643" y="-199"/>
      <point x="643" y="-290" type="curve" smooth="yes"/>
      <point x="643" y="-340"/>
      <point x="675" y="-392"/>
      <point x="746" y="-412" type="curve"/>
      <point x="746" y="-491"/>
      <point x="721" y="-543"/>
      <point x="657" y="-598" type="curve"/>
    </contour>
  </outline>
</glyph>
<glyph name="gcedilla" format="1">
  <advance width="1108"/>
  <unicode hex="0123"/>
  <outline>
    <contour>
      <point x="571" y="-437" type="curve" smooth="yes"/>
      <point x="784" y="-437"/>
      <point x="993" y="-345"/>
      <point x="993" y="-53" type="curve" smooth="yes"/>
      <point x="993" y="997" type="line"/>
      <point x="812" y="997" type="line"/>
      <point x="812" y="885" type="line"/>
      <point x="719" y="975"/>
      <point x="625" y="1016"/>
      <point x="535" y="1016" type="curve" smooth="yes"/>
      <point x="309" y="1016"/>
      <point x="83" y="805"/>
      <point x="83" y="525" type="curve" smooth="yes"/>
      <point x="83" y="268"/>
      <point x="238" y="0"/>
      <point x="558" y="0" type="curve" smooth="yes"/>
      <point x="701" y="0"/>
      <point x="806" y="84"/>
      <point x="809" y="86" type="curve"/>
      <point x="824" y="32"/>
      <point x="832" y="-18"/>
      <point x="832" y="-60" type="curve" smooth="yes"/>
      <point x="832" y="-231"/>
      <point x="722" y="-291"/>
      <point x="579" y="-291" type="curve" smooth="yes"/>
      <point x="484" y="-291"/>
      <point x="374" y="-264"/>
      <point x="273" y="-223" type="curve"/>
      <point x="273" y="-380" type="line"/>
      <point x="356" y="-415"/>
      <point x="464" y="-437"/>
    </contour>
    <contour>
      <point x="576" y="1135" type="curve" smooth="yes"/>
      <point x="646" y="1135"/>
      <point x="713" y="1183"/>
      <point x="713" y="1274" type="curve" smooth="yes"/>
      <point x="713" y="1325"/>
      <point x="680" y="1377"/>
      <point x="610" y="1396" type="curve"/>
      <point x="610" y="1476"/>
      <point x="634" y="1528"/>
      <point x="699" y="1583" type="curve"/>
      <point x="674" y="1607" type="line"/>
      <point x="565" y="1607"/>
      <point x="428" y="1417"/>
      <point x="428" y="1282" type="curve" smooth="yes"/>
      <point x="428" y="1181"/>
      <point x="503" y="1135"/>
    </contour>
    <contour>
      <point x="592" y="151" type="curve" smooth="yes"/>
      <point x="400" y="151"/>
      <point x="274" y="285"/>
      <point x="274" y="516" type="curve" smooth="yes"/>
      <point x="274" y="732"/>
      <point x="423" y="862"/>
      <point x="577" y="862" type="curve" smooth="yes"/>
      <point x="649" y="862"/>
      <point x="730" y="835"/>
      <point x="809" y="771" type="curve"/>
      <point x="809" y="201" type="line"/>
      <point x="730" y="166"/>
      <point x="656" y="151"/>
    </contour>
  </outline>
</glyph>
<glyph name="Hcircumflex" format="1">
  <advance width="1541"/>
  <unicode hex="0124"/>
  <outline>
    <contour>
      <point x="132" y="0" type="line"/>
      <point x="332" y="0" type="line"/>
      <point x="332" y="686" type="line"/>
      <point x="1209" y="686" type="line"/>
      <point x="1209" y="0" type="line"/>
      <point x="1409" y="0" type="line"/>
      <point x="1409" y="1516" type="line"/>
      <point x="1209" y="1516" type="line"/>
      <point x="1209" y="854" type="line"/>
      <point x="332" y="854" type="line"/>
      <point x="332" y="1516" type="line"/>
      <point x="132" y="1516" type="line"/>
    </contour>
    <contour>
      <point x="458" y="1669" type="curve"/>
      <point x="459" y="1669"/>
      <point x="459" y="1669"/>
      <point x="460" y="1670" type="curve" smooth="yes"/>
      <point x="768" y="1876" type="line"/>
      <point x="1074" y="1670" type="line" smooth="yes"/>
      <point x="1076" y="1669"/>
      <point x="1077" y="1669"/>
      <point x="1080" y="1669" type="curve" smooth="yes"/>
      <point x="1081" y="1669"/>
      <point x="1082" y="1670"/>
      <point x="1082" y="1671" type="curve"/>
      <point x="1082" y="1674" type="line"/>
      <point x="809" y="2081" type="line"/>
      <point x="801" y="2089"/>
      <point x="783" y="2096"/>
      <point x="768" y="2096" type="curve" smooth="yes"/>
      <point x="754" y="2096"/>
      <point x="737" y="2089"/>
      <point x="730" y="2081" type="curve"/>
      <point x="455" y="1674" type="line"/>
      <point x="454" y="1674"/>
      <point x="454" y="1672"/>
      <point x="454" y="1671" type="curve" smooth="yes"/>
      <point x="454" y="1670"/>
      <point x="456" y="1669"/>
    </contour>
  </outline>
</glyph>
<glyph name="Hbar" format="1">
  <advance width="1534"/>
  <unicode hex="0126"/>
  <outline>
    <contour>
      <point x="128" y="0" type="line"/>
      <point x="329" y="0" type="line"/>
      <point x="329" y="687" type="line"/>
      <point x="1205" y="687" type="line"/>
      <point x="1205" y="0" type="line"/>
      <point x="1406" y="0" type="line"/>
      <point x="1406" y="1119" type="line"/>
      <point x="1534" y="1119" type="line"/>
      <point x="1534" y="1262" type="line"/>
      <point x="1406" y="1262" type="line"/>
      <point x="1406" y="1516" type="line"/>
      <point x="1205" y="1516" type="line"/>
      <point x="1205" y="1262" type="line"/>
      <point x="329" y="1262" type="line"/>
      <point x="329" y="1516" type="line"/>
      <point x="128" y="1516" type="line"/>
      <point x="128" y="1262" type="line"/>
      <point x="0" y="1262" type="line"/>
      <point x="0" y="1119" type="line"/>
      <point x="128" y="1119" type="line"/>
    </contour>
    <contour>
      <point x="329" y="854" type="line"/>
      <point x="329" y="1119" type="line"/>
      <point x="1205" y="1119" type="line"/>
      <point x="1205" y="854" type="line"/>
    </contour>
  </outline>
</glyph>
<glyph name="itilde" format="1">
  <advance width="472"/>
  <unicode hex="0129"/>
  <outline>
    <contour>
      <point x="381" y="1149" type="curve" smooth="yes"/>
      <point x="485" y="1149"/>
      <point x="556" y="1207"/>
      <point x="617" y="1294" type="curve"/>
      <point x="620" y="1301"/>
      <point x="621" y="1304"/>
      <point x="621" y="1310" type="curve" smooth="yes"/>
      <point x="621" y="1318"/>
      <point x="617" y="1322"/>
      <point x="608" y="1322" type="curve" smooth="yes"/>
      <point x="591" y="1322"/>
      <point x="558" y="1276"/>
      <point x="498" y="1276" type="curve" smooth="yes"/>
      <point x="410" y="1276"/>
      <point x="248" y="1366"/>
      <point x="118" y="1366" type="curve" smooth="yes"/>
      <point x="22" y="1366"/>
      <point x="-40" y="1307"/>
      <point x="-95" y="1221" type="curve" smooth="yes"/>
      <point x="-99" y="1214"/>
      <point x="-101" y="1210"/>
      <point x="-101" y="1205" type="curve" smooth="yes"/>
      <point x="-101" y="1198"/>
      <point x="-94" y="1192"/>
      <point x="-86" y="1192" type="curve" smooth="yes"/>
      <point x="-70" y="1192"/>
      <point x="-34" y="1237"/>
      <point x="23" y="1237" type="curve" smooth="yes"/>
      <point x="140" y="1237"/>
      <point x="286" y="1149"/>
    </contour>
    <contour>
      <point x="167" y="0" type="line"/>
      <point x="353" y="0" type="line"/>
      <point x="353" y="998" type="line"/>
      <point x="167" y="998" type="line"/>
    </contour>
  </outline>
</glyph>
<glyph name="Imacron" format="1">
  <advance width="445"/>
  <unicode hex="012A"/>
  <outline>
    <contour>
      <point x="123" y="0" type="line"/>
      <point x="322" y="0" type="line"/>
      <point x="322" y="1516" type="line"/>
      <point x="123" y="1516" type="line"/>
    </contour>
    <contour>
      <point x="-43" y="1668" type="line"/>
      <point x="488" y="1668" type="line"/>
      <point x="488" y="1820" type="line"/>
      <point x="-43" y="1820" type="line"/>
    </contour>
  </outline>
</glyph>
<glyph name="imacron" format="1">
  <advance width="472"/>
  <unicode hex="012B"/>
  <outline>
    <contour>
      <point x="167" y="0" type="line"/>
      <point x="354" y="0" type="line"/>
      <point x="354" y="998" type="line"/>
      <point x="167" y="998" type="line"/>
    </contour>
    <contour>
      <point x="-6" y="1149" type="line"/>
      <point x="525" y="1149" type="line"/>
      <point x="525" y="1301" type="line"/>
      <point x="-6" y="1301" type="line"/>
    </contour>
  </outline>
</glyph>
<glyph name="ibreve" format="1">
  <advance width="472"/>
  <unicode hex="012D"/>
  <outline>
    <contour>
      <point x="260" y="1148" type="curve" smooth="yes"/>
      <point x="376" y="1148"/>
      <point x="494" y="1228"/>
      <point x="500" y="1387" type="curve"/>
      <point x="391" y="1387" type="line"/>
      <point x="382" y="1305"/>
      <point x="319" y="1264"/>
      <point x="259" y="1264" type="curve" smooth="yes"/>
      <point x="199" y="1264"/>
      <point x="138" y="1305"/>
      <point x="129" y="1387" type="curve"/>
      <point x="20" y="1387" type="line"/>
      <point x="26" y="1228"/>
      <point x="143" y="1148"/>
    </contour>
    <contour>
      <point x="167" y="0" type="line"/>
      <point x="354" y="0" type="line"/>
      <point x="354" y="998" type="line"/>
      <point x="167" y="998" type="line"/>
    </contour>
  </outline>
</glyph>
<glyph name="Iogonek" format="1">
  <advance width="445"/>
  <unicode hex="012E"/>
  <outline>
    <contour>
      <point x="252" y="-412" type="curve" smooth="yes"/>
      <point x="266" y="-412"/>
      <point x="282" y="-410"/>
      <point x="297" y="-408" type="curve"/>
      <point x="328" y="-282" type="line"/>
      <point x="327" y="-282" type="line"/>
      <point x="200" y="-282"/>
      <point x="133" y="-222"/>
      <point x="133" y="-158" type="curve" smooth="yes"/>
      <point x="133" y="-109"/>
      <point x="175" y="-57"/>
      <point x="254" y="-32" type="curve"/>
      <point x="232" y="0" type="line"/>
      <point x="322" y="0" type="line"/>
      <point x="322" y="1516" type="line"/>
      <point x="124" y="1516" type="line"/>
      <point x="124" y="0" type="line"/>
      <point x="136" y="0" type="line"/>
      <point x="52" y="-32"/>
      <point x="9" y="-111"/>
      <point x="9" y="-192" type="curve" smooth="yes"/>
      <point x="9" y="-304"/>
      <point x="106" y="-412"/>
    </contour>
  </outline>
</glyph>
<glyph name="iogonek" format="1">
  <advance width="482"/>
  <unicode hex="012F"/>
  <outline>
    <contour>
      <point x="270" y="-412" type="line"/>
      <point x="283" y="-412"/>
      <point x="299" y="-411"/>
      <point x="313" y="-408" type="curve"/>
      <point x="345" y="-283" type="line"/>
      <point x="344" y="-283" type="line"/>
      <point x="214" y="-283"/>
      <point x="149" y="-222"/>
      <point x="149" y="-158" type="curve" smooth="yes"/>
      <point x="149" y="-110"/>
      <point x="193" y="-58"/>
      <point x="271" y="-32" type="curve"/>
      <point x="250" y="0" type="line"/>
      <point x="333" y="0" type="line"/>
      <point x="333" y="997" type="line"/>
      <point x="148" y="997" type="line"/>
      <point x="148" y="0" type="line"/>
      <point x="152" y="0" type="line"/>
      <point x="67" y="-32"/>
      <point x="24" y="-112"/>
      <point x="24" y="-194" type="curve" smooth="yes"/>
      <point x="24" y="-304"/>
      <point x="122" y="-412"/>
      <point x="269" y="-412" type="curve"/>
    </contour>
    <contour>
      <point x="239" y="1155" type="curve" smooth="yes"/>
      <point x="324" y="1155"/>
      <point x="370" y="1214"/>
      <point x="370" y="1275" type="curve" smooth="yes"/>
      <point x="370" y="1337"/>
      <point x="324" y="1396"/>
      <point x="239" y="1396" type="curve" smooth="yes"/>
      <point x="155" y="1396"/>
      <point x="110" y="1337"/>
      <point x="110" y="1275" type="curve" smooth="yes"/>
      <point x="110" y="1214"/>
      <point x="155" y="1155"/>
    </contour>
  </outline>
</glyph>
<glyph name="Idotaccent" format="1">
  <advance width="444"/>
  <unicode hex="0130"/>
  <outline>
    <contour>
      <point x="122" y="0" type="line"/>
      <point x="321" y="0" type="line"/>
      <point x="321" y="1515" type="line"/>
      <point x="122" y="1515" type="line"/>
    </contour>
    <contour>
      <point x="222" y="1668" type="curve" smooth="yes"/>
      <point x="289" y="1668"/>
      <point x="357" y="1710"/>
      <point x="357" y="1796" type="curve" smooth="yes"/>
      <point x="357" y="1884"/>
      <point x="289" y="1929"/>
      <point x="222" y="1929" type="curve" smooth="yes"/>
      <point x="155" y="1929"/>
      <point x="89" y="1885"/>
      <point x="89" y="1796" type="curve" smooth="yes"/>
      <point x="89" y="1710"/>
      <point x="155" y="1668"/>
    </contour>
  </outline>
</glyph>
<glyph name="ij" format="1">
  <advance width="975"/>
  <unicode hex="0133"/>
  <outline>
    <contour>
      <point x="20" y="-384" type="line"/>
      <point x="332" y="-384"/>
      <point x="372" y="-173"/>
      <point x="372" y="-79" type="curve" smooth="yes"/>
      <point x="372" y="1017" type="line"/>
      <point x="186" y="1017" type="line"/>
      <point x="186" y="4" type="line" smooth="yes"/>
      <point x="186" y="-113"/>
      <point x="187" y="-243"/>
      <point x="-10" y="-243" type="curve"/>
    </contour>
    <contour>
      <point x="279" y="1155" type="curve" smooth="yes"/>
      <point x="364" y="1155"/>
      <point x="410" y="1213"/>
      <point x="410" y="1276" type="curve" smooth="yes"/>
      <point x="410" y="1337"/>
      <point x="364" y="1395"/>
      <point x="279" y="1395" type="curve" smooth="yes"/>
      <point x="195" y="1395"/>
      <point x="148" y="1337"/>
      <point x="148" y="1276" type="curve" smooth="yes"/>
      <point x="148" y="1213"/>
      <point x="195" y="1155"/>
    </contour>
    <contour>
      <point x="642" y="0" type="line"/>
      <point x="826" y="0" type="line"/>
      <point x="826" y="997" type="line"/>
      <point x="642" y="997" type="line"/>
    </contour>
    <contour>
      <point x="736" y="1155" type="curve" smooth="yes"/>
      <point x="819" y="1155"/>
      <point x="863" y="1213"/>
      <point x="863" y="1276" type="curve" smooth="yes"/>
      <point x="863" y="1337"/>
      <point x="819" y="1395"/>
      <point x="736" y="1395" type="curve" smooth="yes"/>
      <point x="650" y="1395"/>
      <point x="604" y="1337"/>
      <point x="604" y="1276" type="curve" smooth="yes"/>
      <point x="604" y="1213"/>
      <point x="650" y="1155"/>
    </contour>
  </outline>
</glyph>
<glyph name="Jcircumflex" format="1">
  <advance width="629"/>
  <unicode hex="0134"/>
  <outline>
    <contour>
      <point x="-67" y="1669" type="curve"/>
      <point x="-65" y="1669"/>
      <point x="-65" y="1669"/>
      <point x="-62" y="1670" type="curve"/>
      <point x="243" y="1875" type="line"/>
      <point x="550" y="1670" type="line"/>
      <point x="553" y="1669"/>
      <point x="554" y="1669"/>
      <point x="555" y="1669" type="curve" smooth="yes"/>
      <point x="557" y="1669"/>
      <point x="558" y="1670"/>
      <point x="558" y="1671" type="curve"/>
      <point x="558" y="1673" type="line"/>
      <point x="284" y="2081" type="line"/>
      <point x="277" y="2090"/>
      <point x="258" y="2096"/>
      <point x="243" y="2096" type="curve" smooth="yes"/>
      <point x="229" y="2096"/>
      <point x="213" y="2090"/>
      <point x="205" y="2081" type="curve"/>
      <point x="-70" y="1673" type="line"/>
      <point x="-71" y="1673"/>
      <point x="-71" y="1672"/>
      <point x="-71" y="1671" type="curve" smooth="yes"/>
      <point x="-71" y="1670"/>
      <point x="-69" y="1669"/>
    </contour>
    <contour>
      <point x="7" y="-392" type="line"/>
      <point x="339" y="-391"/>
      <point x="480" y="-289"/>
      <point x="480" y="-42" type="curve" smooth="yes"/>
      <point x="480" y="1515" type="line"/>
      <point x="282" y="1515" type="line"/>
      <point x="282" y="24" type="line" smooth="yes"/>
      <point x="282" y="-175"/>
      <point x="248" y="-239"/>
      <point x="7" y="-239" type="curve"/>
    </contour>
  </outline>
</glyph>
<glyph name="jcircumflex" format="1">
  <advance width="527"/>
  <unicode hex="0135"/>
  <outline>
    <contour>
      <point x="-89" y="1149" type="curve"/>
      <point x="-88" y="1149"/>
      <point x="-88" y="1149"/>
      <point x="-85" y="1150" type="curve"/>
      <point x="221" y="1355" type="line"/>
      <point x="528" y="1150" type="line"/>
      <point x="531" y="1149"/>
      <point x="532" y="1149"/>
      <point x="533" y="1149" type="curve" smooth="yes"/>
      <point x="534" y="1149"/>
      <point x="535" y="1150"/>
      <point x="535" y="1151" type="curve"/>
      <point x="535" y="1153" type="line"/>
      <point x="261" y="1560" type="line" smooth="yes"/>
      <point x="254" y="1570"/>
      <point x="235" y="1575"/>
      <point x="221" y="1575" type="curve" smooth="yes"/>
      <point x="206" y="1575"/>
      <point x="191" y="1570"/>
      <point x="183" y="1560" type="curve"/>
      <point x="-92" y="1153" type="line"/>
      <point x="-93" y="1153"/>
      <point x="-93" y="1152"/>
      <point x="-93" y="1151" type="curve" smooth="yes"/>
      <point x="-93" y="1150"/>
      <point x="-91" y="1149"/>
    </contour>
    <contour>
      <point x="56" y="-385" type="line"/>
      <point x="374" y="-385"/>
      <point x="415" y="-173"/>
      <point x="415" y="-79" type="curve" smooth="yes"/>
      <point x="415" y="1016" type="line"/>
      <point x="222" y="1016" type="line"/>
      <point x="222" y="3" type="line" smooth="yes"/>
      <point x="222" y="-113"/>
      <point x="223" y="-243"/>
      <point x="27" y="-243" type="curve"/>
    </contour>
  </outline>
</glyph>
<glyph name="Kcommaaccent" format="1">
  <advance width="1375"/>
  <unicode hex="0136"/>
  <outline>
    <contour>
      <point x="133" y="0" type="line"/>
      <point x="332" y="0" type="line"/>
      <point x="332" y="743" type="line"/>
      <point x="1038" y="0" type="line"/>
      <point x="1306" y="0" type="line"/>
      <point x="1306" y="9" type="line"/>
      <point x="566" y="789" type="line"/>
      <point x="1211" y="1507" type="line"/>
      <point x="1211" y="1517" type="line"/>
      <point x="967" y="1517" type="line"/>
      <point x="332" y="825" type="line"/>
      <point x="332" y="1517" type="line"/>
      <point x="133" y="1517" type="line"/>
    </contour>
    <contour>
      <point x="614" y="-604" type="line"/>
      <point x="722" y="-604"/>
      <point x="858" y="-412"/>
      <point x="858" y="-278" type="curve" smooth="yes"/>
      <point x="858" y="-177"/>
      <point x="784" y="-132"/>
      <point x="710" y="-132" type="curve" smooth="yes"/>
      <point x="642" y="-132"/>
      <point x="573" y="-178"/>
      <point x="573" y="-269" type="curve" smooth="yes"/>
      <point x="573" y="-321"/>
      <point x="607" y="-374"/>
      <point x="678" y="-392" type="curve"/>
      <point x="678" y="-471"/>
      <point x="652" y="-523"/>
      <point x="589" y="-578" type="curve"/>
    </contour>
  </outline>
</glyph>
<glyph name="kcommaaccent" format="1">
  <advance width="1038"/>
  <unicode hex="0137"/>
  <outline>
    <contour>
      <point x="112" y="0" type="line"/>
      <point x="297" y="0" type="line"/>
      <point x="297" y="503" type="line"/>
      <point x="793" y="0" type="line"/>
      <point x="1040" y="0" type="line"/>
      <point x="511" y="528" type="line"/>
      <point x="982" y="999" type="line"/>
      <point x="743" y="999" type="line"/>
      <point x="297" y="539" type="line"/>
      <point x="297" y="1491" type="line"/>
      <point x="112" y="1491" type="line"/>
    </contour>
    <contour>
      <point x="472" y="-603" type="line"/>
      <point x="579" y="-603"/>
      <point x="716" y="-412"/>
      <point x="716" y="-278" type="curve" smooth="yes"/>
      <point x="716" y="-177"/>
      <point x="642" y="-132"/>
      <point x="571" y="-132" type="curve" smooth="yes"/>
      <point x="500" y="-132"/>
      <point x="433" y="-178"/>
      <point x="433" y="-270" type="curve" smooth="yes"/>
      <point x="433" y="-321"/>
      <point x="465" y="-374"/>
      <point x="536" y="-392" type="curve"/>
      <point x="536" y="-472"/>
      <point x="511" y="-523"/>
      <point x="448" y="-578" type="curve"/>
    </contour>
  </outline>
</glyph>
<glyph name="kgreenlandic" format="1">
  <advance width="1043"/>
  <unicode hex="0138"/>
  <outline>
    <contour>
      <point x="112" y="0" type="line"/>
      <point x="297" y="0" type="line"/>
      <point x="297" y="503" type="line"/>
      <point x="793" y="0" type="line"/>
      <point x="1040" y="0" type="line"/>
      <point x="511" y="527" type="line"/>
      <point x="982" y="998" type="line"/>
      <point x="743" y="998" type="line"/>
      <point x="297" y="538" type="line"/>
      <point x="297" y="1491" type="line"/>
      <point x="112" y="1491" type="line"/>
    </contour>
  </outline>
</glyph>
<glyph name="Lacute" format="1">
  <advance width="1065"/>
  <unicode hex="0139"/>
  <outline>
    <contour>
      <point x="408" y="1668" type="curve" smooth="yes"/>
      <point x="412" y="1668"/>
      <point x="423" y="1674"/>
      <point x="433" y="1689" type="curve"/>
      <point x="662" y="1980" type="line" smooth="yes"/>
      <point x="687" y="2011"/>
      <point x="697" y="2041"/>
      <point x="697" y="2065" type="curve" smooth="yes"/>
      <point x="697" y="2118"/>
      <point x="650" y="2152"/>
      <point x="603" y="2152" type="curve" smooth="yes"/>
      <point x="561" y="2152"/>
      <point x="520" y="2128"/>
      <point x="502" y="2065" type="curve"/>
      <point x="403" y="1703" type="line"/>
      <point x="398" y="1696"/>
      <point x="397" y="1688"/>
      <point x="397" y="1683" type="curve" smooth="yes"/>
      <point x="397" y="1674"/>
      <point x="403" y="1668"/>
    </contour>
    <contour>
      <point x="133" y="0" type="line"/>
      <point x="981" y="0" type="line"/>
      <point x="981" y="178" type="line"/>
      <point x="332" y="178" type="line"/>
      <point x="332" y="1515" type="line"/>
      <point x="133" y="1515" type="line"/>
    </contour>
  </outline>
</glyph>
<glyph name="lacute" format="1">
  <advance width="641"/>
  <unicode hex="013A"/>
  <outline>
    <contour>
      <point x="409" y="-19" type="curve" smooth="yes"/>
      <point x="479" y="-19"/>
      <point x="550" y="0"/>
      <point x="609" y="37" type="curve"/>
      <point x="609" y="188" type="line"/>
      <point x="550" y="157"/>
      <point x="485" y="130"/>
      <point x="431" y="130" type="curve" smooth="yes"/>
      <point x="366" y="130"/>
      <point x="314" y="172"/>
      <point x="314" y="303" type="curve" smooth="yes"/>
      <point x="314" y="1491" type="line"/>
      <point x="130" y="1491" type="line"/>
      <point x="130" y="273" type="line" smooth="yes"/>
      <point x="130" y="73"/>
      <point x="264" y="-19"/>
    </contour>
    <contour>
      <point x="235" y="1623" type="curve" smooth="yes"/>
      <point x="241" y="1623"/>
      <point x="251" y="1629"/>
      <point x="262" y="1644" type="curve"/>
      <point x="491" y="1936" type="line" smooth="yes"/>
      <point x="514" y="1966"/>
      <point x="525" y="1997"/>
      <point x="525" y="2020" type="curve" smooth="yes"/>
      <point x="525" y="2073"/>
      <point x="479" y="2107"/>
      <point x="431" y="2107" type="curve" smooth="yes"/>
      <point x="389" y="2107"/>
      <point x="347" y="2083"/>
      <point x="330" y="2020" type="curve" smooth="yes"/>
      <point x="231" y="1658" type="line"/>
      <point x="226" y="1651"/>
      <point x="225" y="1642"/>
      <point x="225" y="1638" type="curve" smooth="yes"/>
      <point x="225" y="1629"/>
      <point x="231" y="1623"/>
    </contour>
  </outline>
</glyph>
<glyph name="Lcaron" format="1">
  <advance width="1067"/>
  <unicode hex="013D"/>
  <outline>
    <contour>
      <point x="133" y="0" type="line"/>
      <point x="982" y="0" type="line"/>
      <point x="982" y="177" type="line"/>
      <point x="333" y="177" type="line"/>
      <point x="333" y="1515" type="line"/>
      <point x="133" y="1515" type="line"/>
    </contour>
    <contour>
      <point x="1218" y="1062" type="line"/>
      <point x="1327" y="1062"/>
      <point x="1465" y="1254"/>
      <point x="1465" y="1388" type="curve" smooth="yes"/>
      <point x="1465" y="1489"/>
      <point x="1389" y="1534"/>
      <point x="1316" y="1534" type="curve" smooth="yes"/>
      <point x="1247" y="1534"/>
      <point x="1180" y="1487"/>
      <point x="1180" y="1397" type="curve" smooth="yes"/>
      <point x="1180" y="1345"/>
      <point x="1212" y="1293"/>
      <point x="1281" y="1273" type="curve"/>
      <point x="1281" y="1194"/>
      <point x="1259" y="1142"/>
      <point x="1195" y="1086" type="curve"/>
    </contour>
  </outline>
</glyph>
<glyph name="nacute" format="1">
  <advance width="1052"/>
  <unicode hex="0144"/>
  <outline>
    <contour>
      <point x="107" y="0" type="line"/>
      <point x="292" y="0" type="line"/>
      <point x="292" y="708" type="line"/>
      <point x="347" y="788"/>
      <point x="485" y="866"/>
      <point x="599" y="866" type="curve" smooth="yes"/>
      <point x="691" y="866"/>
      <point x="765" y="815"/>
      <point x="765" y="674" type="curve" smooth="yes"/>
      <point x="765" y="0" type="line"/>
      <point x="949" y="0" type="line"/>
      <point x="949" y="679" type="line" smooth="yes"/>
      <point x="949" y="878"/>
      <point x="820" y="1014"/>
      <point x="627" y="1014" type="curve" smooth="yes"/>
      <point x="569" y="1014"/>
      <point x="428" y="1006"/>
      <point x="288" y="852" type="curve"/>
      <point x="288" y="996" type="line"/>
      <point x="107" y="996" type="line"/>
    </contour>
    <contour>
      <point x="389" y="1149" type="curve" smooth="yes"/>
      <point x="393" y="1149"/>
      <point x="404" y="1154"/>
      <point x="414" y="1168" type="curve"/>
      <point x="643" y="1459" type="line"/>
      <point x="666" y="1492"/>
      <point x="678" y="1521"/>
      <point x="678" y="1545" type="curve" smooth="yes"/>
      <point x="678" y="1599"/>
      <point x="631" y="1631"/>
      <point x="583" y="1631" type="curve" smooth="yes"/>
      <point x="542" y="1631"/>
      <point x="501" y="1607"/>
      <point x="482" y="1545" type="curve"/>
      <point x="381" y="1182" type="line"/>
      <point x="379" y="1177"/>
      <point x="378" y="1167"/>
      <point x="378" y="1164" type="curve" smooth="yes"/>
      <point x="378" y="1154"/>
      <point x="381" y="1149"/>
    </contour>
  </outline>
</glyph>
<glyph name="Ncaron" format="1">
  <advance width="1654"/>
  <unicode hex="0147"/>
  <outline>
    <contour>
      <point x="825" y="1669" type="curve" smooth="yes"/>
      <point x="840" y="1669"/>
      <point x="856" y="1675"/>
      <point x="864" y="1684" type="curve"/>
      <point x="1139" y="2091" type="line"/>
      <point x="1140" y="2091"/>
      <point x="1140" y="2093"/>
      <point x="1140" y="2094" type="curve" smooth="yes"/>
      <point x="1140" y="2095"/>
      <point x="1139" y="2096"/>
      <point x="1137" y="2096" type="curve" smooth="yes"/>
      <point x="1136" y="2096"/>
      <point x="1136" y="2096"/>
      <point x="1133" y="2095" type="curve"/>
      <point x="825" y="1889" type="line"/>
      <point x="521" y="2095" type="line"/>
      <point x="517" y="2096"/>
      <point x="515" y="2096"/>
      <point x="514" y="2096" type="curve" smooth="yes"/>
      <point x="513" y="2096"/>
      <point x="512" y="2095"/>
      <point x="512" y="2094" type="curve"/>
      <point x="512" y="2091" type="line"/>
      <point x="787" y="1684" type="line"/>
      <point x="794" y="1675"/>
      <point x="811" y="1669"/>
    </contour>
    <contour>
      <point x="131" y="0" type="line"/>
      <point x="319" y="0" type="line"/>
      <point x="319" y="1193" type="line"/>
      <point x="1353" y="0" type="line"/>
      <point x="1523" y="0" type="line"/>
      <point x="1523" y="1516" type="line"/>
      <point x="1331" y="1516" type="line"/>
      <point x="1331" y="311" type="line"/>
      <point x="290" y="1516" type="line"/>
      <point x="131" y="1516" type="line"/>
    </contour>
  </outline>
</glyph>
<glyph name="Omacron" format="1">
  <advance width="1822"/>
  <unicode hex="014C"/>
  <outline>
    <contour>
      <point x="909" y="161" type="curve" smooth="yes"/>
      <point x="583" y="161"/>
      <point x="316" y="429"/>
      <point x="316" y="758" type="curve" smooth="yes"/>
      <point x="316" y="1088"/>
      <point x="583" y="1356"/>
      <point x="909" y="1356" type="curve" smooth="yes"/>
      <point x="1236" y="1356"/>
      <point x="1504" y="1088"/>
      <point x="1504" y="758" type="curve" smooth="yes"/>
      <point x="1504" y="429"/>
      <point x="1236" y="161"/>
    </contour>
    <contour>
      <point x="909" y="-20" type="curve" smooth="yes"/>
      <point x="1349" y="-20"/>
      <point x="1711" y="330"/>
      <point x="1711" y="758" type="curve" smooth="yes"/>
      <point x="1711" y="1188"/>
      <point x="1349" y="1536"/>
      <point x="909" y="1536" type="curve" smooth="yes"/>
      <point x="469" y="1536"/>
      <point x="109" y="1188"/>
      <point x="109" y="758" type="curve" smooth="yes"/>
      <point x="109" y="330"/>
      <point x="469" y="-20"/>
    </contour>
    <contour>
      <point x="641" y="1668" type="line"/>
      <point x="1174" y="1668" type="line"/>
      <point x="1174" y="1820" type="line"/>
      <point x="641" y="1820" type="line"/>
    </contour>
  </outline>
</glyph>
<glyph name="Obreve" format="1">
  <advance width="1822"/>
  <unicode hex="014E"/>
  <outline>
    <contour>
      <point x="908" y="1669" type="curve" smooth="yes"/>
      <point x="1023" y="1669"/>
      <point x="1139" y="1748"/>
      <point x="1147" y="1907" type="curve"/>
      <point x="1038" y="1907" type="line"/>
      <point x="1029" y="1826"/>
      <point x="967" y="1783"/>
      <point x="907" y="1783" type="curve" smooth="yes"/>
      <point x="846" y="1783"/>
      <point x="786" y="1826"/>
      <point x="775" y="1907" type="curve"/>
      <point x="668" y="1907" type="line"/>
      <point x="674" y="1748"/>
      <point x="791" y="1669"/>
    </contour>
    <contour>
      <point x="909" y="162" type="curve" smooth="yes"/>
      <point x="583" y="162"/>
      <point x="316" y="430"/>
      <point x="316" y="760" type="curve" smooth="yes"/>
      <point x="316" y="1089"/>
      <point x="583" y="1356"/>
      <point x="909" y="1356" type="curve" smooth="yes"/>
      <point x="1236" y="1356"/>
      <point x="1504" y="1089"/>
      <point x="1504" y="760" type="curve" smooth="yes"/>
      <point x="1504" y="430"/>
      <point x="1236" y="162"/>
    </contour>
    <contour>
      <point x="909" y="-19" type="curve" smooth="yes"/>
      <point x="1349" y="-19"/>
      <point x="1711" y="330"/>
      <point x="1711" y="760" type="curve" smooth="yes"/>
      <point x="1711" y="1188"/>
      <point x="1349" y="1537"/>
      <point x="909" y="1537" type="curve" smooth="yes"/>
      <point x="469" y="1537"/>
      <point x="109" y="1188"/>
      <point x="109" y="760" type="curve" smooth="yes"/>
      <point x="109" y="330"/>
      <point x="469" y="-19"/>
    </contour>
  </outline>
</glyph>
